SplineFontDB: 3.0
FontName: Inconsolata-g
FullName: Inconsolata-g
FamilyName: Inconsolata-g
Weight: Medium
Copyright: Created by Raph Levien using his own tools and FontForge. Copyright 2006 Raph Levien. Released under the SIL Open Font License, http://scripts.sil.org/OFL. Modified by maffi leonardo, Feb 13 2009.
Version: 001.010
ItalicAngle: 0
UnderlinePosition: -150
UnderlineWidth: 50
Ascent: 820
Descent: 180
LayerCount: 2
Layer: 0 0 "Back" 
Layer: 1 0 "Fore" 
NeedsXUIDChange: 1
XUID: [1021 803 253296341 6000085]
FSType: 8
OS2Version: 3
OS2_WeightWidthSlopeOnly: 0
OS2_UseTypoMetrics: 1
CreationTime: 1161020814
ModificationTime: 1234529415
PfmFamily: 17
TTFWeight: 500
TTFWidth: 5
LineGap: 200
VLineGap: 0
Panose: 2 11 6 9 3 0 3 0 0 0
OS2TypoAscent: 0
OS2TypoAOffset: 1
OS2TypoDescent: 0
OS2TypoDOffset: 1
OS2TypoLinegap: 0
OS2WinAscent: 0
OS2WinAOffset: 1
OS2WinDescent: 0
OS2WinDOffset: 1
HheadAscent: 0
HheadAOffset: 1
HheadDescent: 0
HheadDOffset: 1
OS2SubXSize: 650
OS2SubYSize: 700
OS2SubXOff: 0
OS2SubYOff: 140
OS2SupXSize: 650
OS2SupYSize: 700
OS2SupXOff: 0
OS2SupYOff: 480
OS2StrikeYSize: 49
OS2StrikeYPos: 258
OS2Vendor: 'PfEd'
OS2CodePages: 00000013.00000000
OS2UnicodeRanges: 8000002f.0000016b.00000000.00000000
DEI: 0
LangName: 1033 "" "" "" "FontForge 2.0 : Inconsolata-d : 12-2-2009" 
Encoding: UnicodeBmp
UnicodeInterp: none
NameList: Adobe Glyph List
DisplaySize: -24
AntiAlias: 1
FitToEm: 1
WinInfo: 0 16 14
BeginPrivate: 9
BlueValues 31 [-14 0 529 541 722 730 770 775]
OtherBlues 11 [-201 -193]
BlueScale 8 0.039625
BlueFuzz 1 1
StdHW 4 [74]
StdVW 4 [77]
StemSnapH 7 [71 74]
StemSnapV 7 [74 77]
ExpansionFactor 4 0.06
EndPrivate
BeginChars: 65544 294

StartChar: exclam
Encoding: 33 33 2
Width: 600
GlyphClass: 2
Flags: W
LayerCount: 2
Fore
SplineSet
356.002 55.4912 m 0
 356.002 17.7002 325.296 -13.0166 287.479 -13.0166 c 0
 249.672 -13.0166 218.954 17.6865 218.954 55.4932 c 0
 218.954 93.2861 249.66 124.002 287.479 124.002 c 0
 325.284 124.002 356.002 93.2969 356.002 55.4912 c 0
289.271 774.001 m 0
 311.02 774.001 335.4 759.407 344.344 724.32 c 0
 346.089 717.476 348.758 704.489 348.758 677.25 c 0
 348.758 632.979 340.893 589.116 337.998 545 c 2
 316.998 225 l 1
 258.998 225 l 1
 241.998 545 l 2
 237.953 621.137 230.563 649.273 230.563 686.67 c 0
 230.563 708.378 233.143 724.012 238.461 736.817 c 0
 248.802 761.721 269.201 774.001 289.271 774.001 c 0
EndSplineSet
Validated: 1
EndChar

StartChar: quotedbl
Encoding: 34 34 3
Width: 600
GlyphClass: 2
Flags: W
LayerCount: 2
Fore
SplineSet
456 706 m 2
 456 596 l 1
 457.64 492 l 1
 377.28 492 l 1
 374 542 377.28 542 375.64 592 c 1
 380.765 611.5 374 625.258 374 648 c 2
 374 706 l 2
 374 751.782 401.192 772.143 419.514 772.143 c 0
 438.179 772.143 456 758.433 456 706 c 2
254 706 m 2
 254 596 l 1
 255.64 492 l 1
 175.28 492 l 1
 172 542 175.28 542 173.64 592 c 1
 178.765 611.5 172 625.258 172 648 c 2
 172 706 l 2
 172 751.782 199.192 772.143 217.514 772.143 c 0
 236.179 772.143 254 758.433 254 706 c 2
EndSplineSet
Validated: 33
EndChar

StartChar: numbersign
Encoding: 35 35 4
Width: 600
GlyphClass: 2
Flags: W
LayerCount: 2
Fore
SplineSet
211 723 m 1
 281 725.998 l 1
 256.94 527.364 l 1
 384.588 528.89 l 1
 407.001 716.999 l 1
 479.001 719.999 l 1
 455.759 529.741 l 1
 561.001 530.999 l 1
 555.001 474.999 l 1
 448.942 473.938 l 1
 425.119 278.914 l 1
 540.001 280.999 l 1
 534.001 226.999 l 1
 418.549 225.133 l 1
 393.001 15.999 l 1
 323.001 11.999 l 1
 348.26 223.997 l 1
 219.943 221.923 l 1
 195 15.999 l 1
 127 12.999 l 1
 151.587 220.819 l 1
 39 218.999 l 1
 44 271.999 l 1
 157.887 274.065 l 1
 181.217 471.262 l 1
 55 470 l 1
 59 525 l 1
 187.757 526.539 l 1
 211 723 l 1
250.228 471.95 m 1
 226.408 275.309 l 1
 354.649 277.636 l 1
 377.954 473.229 l 1
 250.228 471.95 l 1
EndSplineSet
Validated: 1
EndChar

StartChar: dollar
Encoding: 36 36 5
Width: 600
GlyphClass: 2
Flags: W
LayerCount: 2
Fore
SplineSet
282 754 m 1
 357.001 754.002 l 1
 357.545 752.764 357.826 751.418 357.826 750.048 c 0
 357.826 741.464 350.001 741.13 350.001 730.002 c 2
 350.001 685.532 l 1
 418.469 678.633 479.449 647.8 522.001 597.002 c 1
 472.001 534.002 l 1
 469.53 534.649 466.406 536.861 465.999 542.033 c 0
 465.735 545.387 466.587 548.592 464.874 552.134 c 0
 464.367 553.183 463.572 554.434 459.967 558.806 c 0
 435.885 588.017 400.198 609.607 350.001 617.17 c 1
 350.001 394.008 l 1
 376.21 385.214 402.686 376.233 426.693 365.906 c 0
 451.099 355.408 542.79 316.114 542.79 210.307 c 0
 542.79 127.201 481.208 35.8965 350.001 18.79 c 1
 350.001 -54 l 1
 282.001 -54 l 1
 282.001 16.6514 l 1
 202.132 21.6387 130.574 53.0654 79.001 109.001 c 1
 129.001 178.001 l 1
 134.732 175.388 134.18 168.72 134.102 167.27 c 0
 133.83 162.202 133.225 159.078 137.668 154.351 c 0
 170.2 119.732 221.082 90.2109 282.001 83.4424 c 1
 282.001 338.142 l 1
 260.849 345.222 239.279 353.278 218.422 363.138 c 0
 121.008 409.185 101.838 474.448 101.838 516.645 c 0
 101.838 600.06 175.207 670.816 282 684.586 c 1
 282 754 l 1
350.001 316.851 m 1
 350.002 85.8447 l 1
 424.319 100.224 467.13 152.562 467.13 204.904 c 0
 467.13 228.696 458.248 267.248 409.601 293.706 c 0
 393.688 302.361 373.119 309.564 350.001 316.851 c 1
282.002 418.098 m 1
 282.001 618.619 l 1
 209.13 610.104 178.408 566.68 178.408 526.616 c 0
 178.408 501.337 190.351 466.61 241.422 437.197 c 0
 253.406 430.295 267.162 424.025 282.002 418.098 c 1
EndSplineSet
Validated: 1
EndChar

StartChar: percent
Encoding: 37 37 6
Width: 600
GlyphClass: 2
Flags: W
LayerCount: 2
Fore
SplineSet
463 722 m 1
 541 722 l 1
 137 0 l 1
 63 0 l 1
 463 722 l 1
171.904 735.106 m 0
 242.475 735.106 302.16 670.551 302.16 582.188 c 0
 302.16 496.123 243.528 431.982 172.952 431.982 c 0
 101.84 431.982 42.8516 496.911 42.8516 583.448 c 0
 42.8516 672.526 103.042 735.106 171.904 735.106 c 0
170.33 674.006 m 0
 147.48 674.006 112.979 656.125 112.979 587.431 c 0
 112.979 508.954 151.262 493.912 172.149 493.912 c 0
 195.202 493.912 229.092 512.143 229.092 579.149 c 0
 229.092 661.668 189.098 674.006 170.33 674.006 c 0
569.018 138.594 m 0
 569.018 51.7461 509.983 -12.123 439.695 -12.123 c 0
 369.049 -12.123 309.979 52.0537 309.979 138.263 c 0
 309.979 225.09 369.219 289.002 439.589 289.002 c 0
 510.127 289.002 569.018 224.872 569.018 138.594 c 0
439.32 229.006 m 0
 414.437 229.006 378.994 208.942 378.994 138.342 c 0
 378.994 69.8926 413.149 46.7715 440.304 46.7715 c 0
 465.114 46.7715 500.009 66.7959 500.009 135.904 c 0
 500.009 210.331 463.157 229.006 439.32 229.006 c 0
EndSplineSet
Validated: 1
EndChar

StartChar: ampersand
Encoding: 38 38 7
Width: 600
GlyphClass: 2
Flags: W
LayerCount: 2
Fore
SplineSet
275.219 729.113 m 0
 362.09 729.113 430.047 664.095 430.047 574.844 c 0
 430.047 499.043 380.585 423.323 304.998 382.002 c 1
 434.998 201.002 l 1
 462.524 232.966 478.371 266.739 487.028 294.096 c 0
 487.896 296.842 488.579 299.924 488.579 303.141 c 0
 488.579 307.709 486.979 312.213 486.979 316.94 c 0
 486.979 322.599 489.255 326.514 491.999 329.003 c 1
 566.999 277.003 l 1
 540.905 230.063 511.512 184.949 479 142.002 c 1
 560 37.002 l 1
 492 -13.998 l 1
 428 88.002 l 1
 382.006 30.9922 310.649 -12.0293 232.618 -12.0293 c 0
 128.336 -12.0293 51.7305 66.2754 51.7305 169.434 c 0
 51.7305 258.732 108.957 348.314 197.999 397.001 c 1
 155.128 448.799 115.987 513.457 115.987 577.086 c 0
 115.987 663.563 187.112 729.113 275.219 729.113 c 0
195.896 575.614 m 0
 195.896 545.143 208.497 503.948 265.997 432.002 c 1
 319.754 461.717 354.162 516.515 354.162 569.307 c 0
 354.162 624.186 316.436 660.404 273.732 660.404 c 0
 232.645 660.404 195.896 626.43 195.896 575.614 c 0
237.997 343.002 m 1
 176.424 303.103 139.361 237.449 139.361 177.451 c 0
 139.361 110.153 186.016 62.8281 245.171 62.8281 c 0
 322.403 62.8281 385.997 143.002 385.997 143.002 c 1
 237.997 343.002 l 1
EndSplineSet
Validated: 1
EndChar

StartChar: quotesingle
Encoding: 39 39 8
Width: 600
GlyphClass: 2
Flags: W
LayerCount: 2
Fore
SplineSet
390.503 701.904 m 6
 390.503 582.003 l 5
 392.818 468.643 l 5
 279.383 468.643 l 5
 274.753 523.143 279.383 523.143 277.068 577.643 c 5
 284.303 598.897 274.753 613.894 274.753 638.683 c 6
 274.753 701.903 l 6
 274.753 751.806 313.138 774 339 774 c 4
 365.348 774 390.503 759.056 390.503 701.904 c 6
EndSplineSet
Validated: 33
EndChar

StartChar: parenleft
Encoding: 40 40 9
Width: 600
GlyphClass: 2
Flags: W
LayerCount: 2
Fore
SplineSet
464 772 m 1
 498.999 701.001 l 1
 495.073 698.764 491.328 698.611 489.668 698.611 c 0
 485.072 698.611 481.395 699.933 477.322 699.933 c 0
 472.716 699.933 469.927 698.141 466.834 696.315 c 0
 331.452 616.468 251.272 468.859 251.272 303.346 c 0
 251.272 123.314 344.63 -46.9678 503 -138.999 c 1
 465 -199.999 l 1
 281.456 -103.657 170.68 88.9932 170.68 299.463 c 0
 170.68 511.567 284.678 693.118 464 772 c 1
EndSplineSet
Validated: 1
EndChar

StartChar: parenright
Encoding: 41 41 10
Width: 600
GlyphClass: 2
Flags: W
LayerCount: 2
Fore
SplineSet
100 699 m 1
 122.001 771.001 l 1
 310.267 684.353 432.001 496.634 432.001 290.29 c 0
 432.001 82.1055 308.17 -110.383 116.001 -201.999 c 1
 94.001 -131.999 l 1
 250.595 -49.1162 350.028 112.598 350.028 286.979 c 0
 350.028 458.955 253.152 617.58 100 699 c 1
EndSplineSet
Validated: 1
EndChar

StartChar: asterisk
Encoding: 42 42 11
Width: 600
GlyphClass: 2
Flags: W
LayerCount: 2
Fore
SplineSet
257 601 m 1
 351 601 l 1
 349.036 587.217 345.49 584.406 344 570 c 2
 326 396 l 1
 510 480 l 1
 541 409 l 1
 342 349 l 1
 488 174 l 1
 425 124 l 1
 300 316 l 1
 170 123 l 1
 107 174 l 1
 258 348 l 1
 58 409 l 1
 88 484 l 1
 275 396 l 1
 257 601 l 1
EndSplineSet
Validated: 1
EndChar

StartChar: plus
Encoding: 43 43 12
Width: 600
GlyphClass: 2
Flags: W
LayerCount: 2
Fore
SplineSet
267 606 m 1
 340 606 l 1
 340 408 l 1
 538 408 l 1
 538 337 l 1
 340 337 l 1
 340 120 l 1
 267 120 l 1
 267 337 l 1
 62 337 l 1
 62 408 l 1
 267 408 l 1
 267 606 l 1
EndSplineSet
Validated: 1
EndChar

StartChar: comma
Encoding: 44 44 13
Width: 600
GlyphClass: 2
Flags: W
LayerCount: 2
Fore
SplineSet
364.152 22.835 m 0
 364.152 -37.4941 321.708 -113.06 241.002 -195.003 c 1
 201.002 -160.003 l 1
 228.483 -134.729 247.953 -106.531 259.272 -87.9355 c 0
 264.931 -78.6406 276.43 -58.8359 276.43 -39.6602 c 0
 276.43 -15.8047 250.978 -5.06694 240 0 c 0
 214 12 194 38.8408 194 70 c 0
 194 106 236 150 282 146 c 0
 323.06 142.43 364.152 82.1328 364.152 22.835 c 0
EndSplineSet
Validated: 33
EndChar

StartChar: hyphen
Encoding: 45 45 14
Width: 600
GlyphClass: 2
Flags: W
LayerCount: 2
Fore
SplineSet
91 381 m 5
 508 381 l 5
 508 304 l 5
 91 304 l 5
 91 381 l 5
EndSplineSet
Validated: 1
EndChar

StartChar: period
Encoding: 46 46 15
Width: 600
GlyphClass: 2
Flags: W
LayerCount: 2
Fore
SplineSet
380.191 68.1943 m 4
 380.191 23.3184 344.566 -13.6484 299.976 -13.6484 c 4
 255.484 -13.6484 219.843 23.2842 219.843 68.2139 c 4
 219.843 113.053 255.447 150 300 150 c 4
 344.569 150 380.191 113.05 380.191 68.1943 c 4
EndSplineSet
Validated: 1
EndChar

StartChar: slash
Encoding: 47 47 16
Width: 600
GlyphClass: 2
Flags: W
LayerCount: 2
Fore
SplineSet
84 -15 m 1
 447 770 l 1
 516 735 l 1
 152 -49 l 1
 84 -15 l 1
EndSplineSet
Validated: 1
EndChar

StartChar: zero
Encoding: 48 48 17
Width: 600
GlyphClass: 2
Flags: W
HStem: 416.113 9.53382e-12<321.386 321.386> 416.113 1.92878e-11<321.386 321.386> 416.113 9.53382e-12<321.386 321.386>
VStem: 321.386 8.00125e-06<416.113 416.113> 321.386 1.45223e-05<416.113 416.113> 321.386 9.69849e-06<416.113 416.113>
LayerCount: 2
Fore
SplineSet
345.662 361.328 m 4
 345.662 329.472 327.62 303.156 304.898 303.156 c 4
 282.847 303.156 264.805 329.472 264.805 361.328 c 4
 264.805 393.184 282.847 419.5 304.898 419.5 c 4
 327.62 419.5 345.662 393.184 345.662 361.328 c 4
111.5 358 m 1
 103.5 202 196.5 61 304.5 58 c 1
 423.5 68 472.5 180 474.5 358 c 1
 479.5 535 415.5 643 300.5 656 c 1
 170.5 656 111.5 484 111.5 358 c 1
301.5 727 m 0
 424.5 727 554.5 595 554.5 349 c 0
 554.5 101 418.5 -13 303.5 -13 c 0
 177.5 -13 45.5 122 45.5 355 c 0
 45.5 586 175.5 727 301.5 727 c 0
EndSplineSet
EndChar

StartChar: one
Encoding: 49 49 18
Width: 600
GlyphClass: 2
Flags: W
LayerCount: 2
Fore
SplineSet
393 724 m 5
 393 0 l 5
 304 0 l 5
 304 623 l 5
 145 580 l 5
 124 625 l 5
 332 724 l 5
 393 724 l 5
EndSplineSet
EndChar

StartChar: two
Encoding: 50 50 19
Width: 600
GlyphClass: 2
Flags: W
LayerCount: 2
Fore
SplineSet
72 610 m 1
 119 683 204 727 295 727 c 0
 424 727 525 637 525 524 c 0
 525 420 443 346 385 297 c 0
 328 248 235 176 169 71 c 1
 502 71 l 2
 508 71 511 72 516 76 c 0
 519 78 525 83 533 81 c 1
 533 0 l 1
 67 0 l 1
 67 51 l 1
 134 171 207 245 298 320 c 0
 355 367 437 430 437 518 c 0
 437 596 369 655 284 655 c 0
 215 655 167 616 148 590 c 0
 142 580 145 573 137 563 c 1
 72 610 l 1
EndSplineSet
Validated: 33
EndChar

StartChar: three
Encoding: 51 51 20
Width: 600
GlyphClass: 2
Flags: W
LayerCount: 2
Fore
SplineSet
509 541 m 0
 509 471 461 409 390 385 c 1
 473 358 527 285 527 199 c 0
 527 86 434 -12 282 -12 c 0
 203 -12 127 16 73 70 c 1
 140 143 l 1
 152 132 146 121 157 110 c 0
 163 104 207 61 281 61 c 0
 374 61 441 129 441 208 c 0
 441 295 362 346 255 346 c 0
 241 346 228 345 214 343 c 1
 214 408 l 1
 290 408 326 421 340 426 c 0
 395 448 424 496 424 540 c 0
 424 601 368 652 286 652 c 0
 237 652 186 633 149 597 c 1
 100 647 l 1
 150 697 219 724 291 724 c 0
 416 724 509 640 509 541 c 0
EndSplineSet
Validated: 1
EndChar

StartChar: four
Encoding: 52 52 21
Width: 600
GlyphClass: 2
Flags: W
LayerCount: 2
Fore
SplineSet
380 723 m 1
 455 723 l 1
 455 271 l 1
 557 271 l 1
 557 199 l 1
 455 199 l 1
 455 0 l 1
 363 0 l 1
 363 200 l 1
 43 200 l 1
 43 260 l 1
 380 723 l 1
364 594 m 1
 131 271 l 1
 364 271 l 1
 364 594 l 1
EndSplineSet
Validated: 1
EndChar

StartChar: five
Encoding: 53 53 22
Width: 600
GlyphClass: 2
Flags: W
LayerCount: 2
Fore
SplineSet
111 722 m 1
 513 722 l 1
 513 649 l 1
 186 649 l 1
 173 441 l 1
 215 460 259 469 303 469 c 0
 436 469 543 383 543 228 c 0
 543 72 430 -13 292 -13 c 0
 198 -13 110 27 57 98 c 1
 136 152 l 1
 147 145 140 134 146 125 c 0
 150 117 205 58 291 58 c 0
 376 58 452 119 452 230 c 0
 452 345 373 402 289 402 c 0
 235 402 179 378 140 334 c 1
 83 355 l 1
 111 722 l 1
EndSplineSet
Validated: 1
EndChar

StartChar: six
Encoding: 54 54 23
Width: 600
GlyphClass: 2
Flags: W
LayerCount: 2
Fore
SplineSet
343.5 730 m 0
 407.5 730 470.5 706 517.5 664 c 1
 455.5 602 l 1
 443.5 610 444.5 621 436.5 628 c 0
 431.5 633 396.5 658 343.5 658 c 0
 286.5 658 155.5 626 150.5 379 c 1
 186.5 433 249.5 466 319.5 466 c 0
 431.5 466 537.5 380 537.5 230 c 0
 537.5 81 431.5 -12 310.5 -12 c 0
 239.5 -12 169.5 20 122.5 84 c 0
 71.5 154 62.5 244 62.5 329 c 0
 62.5 398 70.5 482 96.5 551 c 0
 145.5 677 248.5 730 343.5 730 c 0
310.5 395 m 0
 251.5 395 191.5 357 155.5 298 c 1
 144.5 163 217.5 60 314.5 60 c 0
 381.5 60 450.5 113 450.5 225 c 0
 450.5 350 374.5 395 310.5 395 c 0
EndSplineSet
Validated: 33
EndChar

StartChar: seven
Encoding: 55 55 24
Width: 600
GlyphClass: 2
Flags: W
LayerCount: 2
Fore
SplineSet
75.5 722 m 1
 524.5 722 l 1
 524.5 677 l 1
 471.5 565 420.5 452 374.5 338 c 0
 328.5 226 286.5 114 247.5 0 c 1
 147.5 0 l 1
 194.5 130 245.5 259 299.5 386 c 0
 336.5 473 374.5 559 414.5 645 c 1
 75.5 645 l 1
 75.5 722 l 1
EndSplineSet
Validated: 1
EndChar

StartChar: eight
Encoding: 56 56 25
Width: 600
GlyphClass: 2
Flags: W
LayerCount: 2
Fore
SplineSet
309.5 731 m 0
 426.5 731 516.5 655 516.5 560 c 0
 516.5 491 466.5 423 389.5 386 c 1
 479.5 348 542.5 271 542.5 186 c 0
 542.5 76 437.5 -12 298.5 -12 c 0
 161.5 -12 57.5 74 57.5 182 c 0
 57.5 265 121.5 344 215.5 384 c 1
 144.5 417 94.5 482 94.5 553 c 0
 94.5 650 188.5 731 309.5 731 c 0
282.5 351 m 1
 207.5 322 148.5 261 148.5 192 c 0
 148.5 120 216.5 61 302.5 61 c 0
 387.5 61 452.5 118 452.5 187 c 0
 452.5 258 385.5 322 282.5 351 c 1
302.5 663 m 0
 233.5 663 180.5 617 180.5 560 c 0
 180.5 465 320.5 415 320.5 415 c 1
 382.5 445 429.5 499 429.5 555 c 0
 429.5 615 373.5 663 302.5 663 c 0
EndSplineSet
Validated: 1
EndChar

StartChar: nine
Encoding: 57 57 26
Width: 600
GlyphClass: 2
Flags: W
LayerCount: 2
Fore
SplineSet
255 -12 m 0
 189 -12 126 12 79 54 c 1
 141 116 l 1
 154 108 151 96 161 88 c 0
 162 88 200 62 257 62 c 0
 314 62 380 88 414 161 c 0
 422 179 443 228 446 340 c 1
 409 291 348 262 283 262 c 0
 167 262 65 351 65 490 c 0
 65 630 168 729 292 729 c 0
 375 729 466 683 508 572 c 0
 526 523 535 461 535 370 c 0
 535 252 515 189 501 156 c 0
 453 41 351 -12 255 -12 c 0
291 333 m 0
 348 333 407 367 442 421 c 1
 456 567 380 657 290 657 c 0
 218 657 151 598 151 493 c 0
 151 386 220 333 291 333 c 0
EndSplineSet
Validated: 33
EndChar

StartChar: colon
Encoding: 58 58 27
Width: 600
GlyphClass: 2
Flags: W
LayerCount: 2
Fore
SplineSet
355.002 423.493 m 0
 355.002 387.009 324.552 356.954 286.441 356.954 c 0
 248.415 356.954 217.952 386.98 217.952 423.509 c 0
 217.952 459.963 248.383 490.002 286.462 490.002 c 0
 324.556 490.002 355.002 459.961 355.002 423.493 c 0
355.002 53.4932 m 0
 355.002 17.0088 324.552 -13.0459 286.441 -13.0459 c 0
 248.415 -13.0459 217.952 16.9805 217.952 53.5088 c 0
 217.952 89.9629 248.383 120.002 286.462 120.002 c 0
 324.556 120.002 355.002 89.9609 355.002 53.4932 c 0
EndSplineSet
Validated: 1
EndChar

StartChar: semicolon
Encoding: 59 59 28
Width: 600
GlyphClass: 2
Flags: W
LayerCount: 2
Fore
SplineSet
364.152 22.835 m 0
 364.152 -37.4941 321.706 -113.057 241 -195 c 1
 201 -160 l 1
 228.481 -134.726 247.951 -106.529 259.27 -87.9336 c 0
 264.928 -78.6377 276.427 -58.834 276.427 -39.6582 c 0
 276.427 -15.8027 259.351 -5.13281 249.284 1.5625 c 0
 239.047 8.37109 216.973 21.6943 216.973 52.8525 c 0
 216.973 87.8496 245.536 118.93 283.672 118.93 c 0
 324.887 118.93 364.152 82.1328 364.152 22.835 c 0
355.002 423.493 m 0
 355.002 387.009 324.552 356.954 286.441 356.954 c 0
 248.415 356.954 217.952 386.98 217.952 423.509 c 0
 217.952 459.963 248.383 490.002 286.462 490.002 c 0
 324.556 490.002 355.002 459.961 355.002 423.493 c 0
EndSplineSet
Validated: 1
EndChar

StartChar: less
Encoding: 60 60 29
Width: 600
GlyphClass: 2
Flags: W
LayerCount: 2
Fore
SplineSet
541 575 m 1
 541 657 l 1
 50 399 l 1
 50 343 l 1
 544 55 l 1
 544 142 l 1
 139 370 l 1
 541 575 l 1
EndSplineSet
Validated: 9
EndChar

StartChar: equal
Encoding: 61 61 30
Width: 600
GlyphClass: 2
Flags: W
LayerCount: 2
Fore
SplineSet
62 508 m 1
 538 508 l 1
 538 437 l 1
 62 437 l 1
 62 508 l 1
62 268 m 1
 538 268 l 1
 538 197 l 1
 62 197 l 1
 62 268 l 1
EndSplineSet
Validated: 1
EndChar

StartChar: greater
Encoding: 62 62 31
Width: 600
GlyphClass: 2
Flags: W
LayerCount: 2
Fore
SplineSet
59 575 m 1
 59 657 l 1
 550 399 l 1
 550 343 l 1
 56 55 l 1
 56 142 l 1
 461 370 l 1
 59 575 l 1
EndSplineSet
Validated: 1
EndChar

StartChar: question
Encoding: 63 63 32
Width: 600
GlyphClass: 2
Flags: W
LayerCount: 2
Fore
SplineSet
381.002 51.4932 m 0
 381.002 15.0088 350.553 -15.0459 312.441 -15.0459 c 0
 274.415 -15.0459 243.952 14.9805 243.952 51.5088 c 0
 243.952 87.9629 274.383 118.002 312.462 118.002 c 0
 350.556 118.002 381.002 87.9609 381.002 51.4932 c 0
84.001 650 m 1
 134.426 727.691 220.639 771.061 307.403 771.061 c 0
 438.7 771.061 513.241 674.634 513.241 566.64 c 0
 513.241 457.757 436.647 413.667 398.405 379.677 c 0
 350.693 337.27 348.001 302.836 348.001 262.001 c 2
 348.001 214.001 l 1
 272.001 214.001 l 1
 272.001 262.001 l 2
 272.001 314.015 275.261 354.807 326.45 411.014 c 0
 361.473 449.469 421.577 496.797 421.577 572.71 c 0
 421.577 641.183 368.949 695.153 299.635 695.153 c 0
 241.047 695.153 179.543 656.112 143.001 595 c 1
 84.001 650 l 1
EndSplineSet
Validated: 1
EndChar

StartChar: at
Encoding: 64 64 33
Width: 600
GlyphClass: 2
Flags: W
LayerCount: 2
Fore
SplineSet
514 35 m 1
 465.464 3.64258 409.093 -13.0049 351.68 -13.0049 c 0
 207.207 -13.0049 45.9785 94.75 45.9785 363.717 c 0
 45.9785 626.559 197.938 733 324.447 733 c 0
 408.453 733 485.772 686.98 523.017 604.768 c 0
 548.262 549.039 549 493.219 549 438.001 c 2
 549 203.001 l 1
 479 203.001 l 1
 479 247.001 l 1
 450.306 212.735 407.914 192.941 363.251 192.941 c 0
 280.295 192.941 212.67 260.163 212.67 343.966 c 0
 212.67 406.433 250.973 468.115 322.793 496.582 c 0
 368.543 514.716 414.747 515 459 515 c 2
 476 515 l 1
 475.939 600.733 407.704 671.015 321.098 671.015 c 0
 220.711 671.015 112.988 575.649 112.988 367.243 c 0
 112.988 141.221 246.229 52.9316 358.489 52.9316 c 0
 402.842 52.9316 446.203 66.1816 483 91 c 1
 514 35 l 1
478.999 456.999 m 1
 459.998 456.998 l 2
 418.557 456.998 369.897 456.606 330.803 429.77 c 0
 299.599 408.351 284.925 377.013 284.925 347.369 c 0
 284.925 297.232 325.739 256.964 376.597 256.964 c 0
 410.055 256.964 444.08 274.841 462.009 309.68 c 0
 480.086 344.808 478.999 389.065 478.999 434.999 c 2
 478.999 456.999 l 1
EndSplineSet
Validated: 33
EndChar

StartChar: A
Encoding: 65 65 34
Width: 600
GlyphClass: 2
Flags: W
LayerCount: 2
Fore
SplineSet
27 -1 m 1
 282 735 l 1
 291 735 l 1
 570 0 l 1
 486 0 l 1
 406 211 l 1
 177 211 l 1
 107 -1 l 1
 27 -1 l 1
388 274 m 1
 286 549 l 1
 193 274 l 1
 388 274 l 1
EndSplineSet
Validated: 1
EndChar

StartChar: B
Encoding: 66 66 35
Width: 600
GlyphClass: 2
Flags: W
LayerCount: 2
Fore
SplineSet
66 722 m 1
 271.001 721.999 l 2
 315.4 721.999 360.705 721.499 405.88 701.855 c 0
 473.725 672.354 511.001 610.489 511.001 545.609 c 0
 511.001 476.391 468.789 413.433 404.001 387 c 1
 484.895 359.735 539.123 283.98 539.123 199.903 c 0
 539.123 125.489 496.411 54.79 418.712 21.7725 c 0
 368.818 0.570312 319.11 0 270 0 c 2
 66 0 l 1
 66 722 l 1
146.001 652.999 m 1
 146.001 422.999 l 1
 259.001 422.999 l 2
 291.146 422.999 325.728 423.131 358.964 437.514 c 0
 404.425 457.188 429.17 496.926 429.17 538.137 c 0
 429.17 579.683 403.8 620.585 355.924 639.924 c 0
 323.834 652.886 290.835 652.999 260.001 652.999 c 2
 146.001 652.999 l 1
146.001 354.999 m 1
 146.002 70.999 l 1
 284.002 70.999 l 2
 315.206 70.999 345.806 71.5459 376.986 85.5957 c 0
 426.878 108.077 454.348 156.378 454.348 208.009 c 0
 454.348 260.226 425.929 311.753 372.337 337.188 c 0
 336.298 354.295 300.474 354.999 264.001 354.999 c 2
 146.001 354.999 l 1
EndSplineSet
Validated: 1
EndChar

StartChar: C
Encoding: 67 67 36
Width: 600
GlyphClass: 2
Flags: W
LayerCount: 2
Fore
SplineSet
331.618 728 m 0
 427.542 728 514.175 672.041 552.999 584.999 c 1
 475.999 546.999 l 1
 470.669 550.735 470.715 557.019 470.715 558.375 c 0
 470.715 561.257 471.206 564.142 471.206 567.016 c 0
 471.206 572.402 469.515 575.396 467.215 579.367 c 0
 438.074 629.698 385.396 663.167 328.882 663.167 c 0
 226.815 663.167 135.986 555.778 135.986 363.969 c 0
 135.986 168.839 229.417 57.9941 335.654 57.9941 c 0
 392.316 57.9941 449.701 90.8848 482.999 146 c 1
 542.999 107 l 1
 497.693 32.9785 417.217 -12.002 331.108 -12.002 c 0
 212.178 -12.002 56.9668 77.8506 56.9668 356.807 c 0
 56.9668 645.838 219.327 728 331.618 728 c 0
EndSplineSet
Validated: 1
EndChar

StartChar: D
Encoding: 68 68 37
Width: 600
GlyphClass: 2
Flags: W
LayerCount: 2
Fore
SplineSet
72 722 m 1
 241.001 722 l 2
 304.678 722 356.646 717.434 409.104 683.3 c 0
 501.967 622.876 543.182 501.213 543.182 362.199 c 0
 543.182 204.202 486.7 81.1934 383.192 27.9785 c 0
 332.292 1.81055 284.391 -1 227 -1 c 2
 72 -1 l 1
 72 722 l 1
149.001 653 m 1
 149 63 l 1
 223 63 l 2
 268.397 63 312.737 65.0195 358.002 95.5625 c 0
 415.69 134.488 461.353 213.696 461.353 351.331 c 0
 461.353 455.017 438.945 557.738 371.851 613.352 c 0
 327.166 650.39 281.492 653 236.001 653 c 2
 149.001 653 l 1
EndSplineSet
Validated: 1
EndChar

StartChar: E
Encoding: 69 69 38
Width: 600
GlyphClass: 2
Flags: W
LayerCount: 2
Fore
SplineSet
78 723 m 1
 521 723 l 1
 521 651 l 1
 155 651 l 1
 155 414 l 1
 457 414 l 1
 457 340 l 1
 155 340 l 1
 155 72 l 1
 518 72 l 1
 518 0 l 1
 78 0 l 1
 78 723 l 1
EndSplineSet
Validated: 1
EndChar

StartChar: F
Encoding: 70 70 39
Width: 600
GlyphClass: 2
Flags: W
LayerCount: 2
Fore
SplineSet
100 723 m 1
 516 723 l 1
 516 652 l 1
 182 652 l 1
 182 425 l 1
 452 425 l 1
 452 355 l 1
 182 355 l 1
 182 0 l 1
 100 0 l 1
 100 723 l 1
EndSplineSet
Validated: 1
EndChar

StartChar: G
Encoding: 71 71 40
Width: 600
GlyphClass: 2
Flags: W
LayerCount: 2
Fore
SplineSet
331.256 729.021 m 0
 420.211 729.021 499.722 682.819 541.001 607.999 c 1
 484.001 549.999 l 1
 474.935 555.814 472.125 564.987 468.569 572.777 c 0
 446.486 621.162 395.192 658.067 330.754 658.067 c 0
 269.932 658.067 205.563 624.732 168.312 554.634 c 0
 140.066 501.479 131.993 436.71 131.993 369.475 c 0
 131.993 293.213 140.467 191.911 200.744 123.216 c 0
 240.013 78.4619 291.335 59.9971 338.046 59.9971 c 0
 381.069 59.9971 427.485 75.1279 468 104 c 1
 468 276 l 1
 337 276 l 1
 337 346 l 1
 543 346 l 1
 543 64 l 1
 474.935 13.8818 397.763 -11.0488 330.884 -11.0488 c 0
 204.891 -11.0488 51.8867 79.1094 51.8867 352.371 c 0
 51.8867 669.165 235.234 729.021 331.256 729.021 c 0
EndSplineSet
Validated: 1
EndChar

StartChar: H
Encoding: 72 72 41
Width: 600
GlyphClass: 2
Flags: W
LayerCount: 2
Fore
SplineSet
73 722 m 1
 163 722 l 1
 163.822 720.356 164.252 718.529 164.252 716.663 c 0
 164.252 707.549 157 706.38 157 694 c 2
 157 413 l 1
 440 413 l 1
 440 722 l 1
 528 722 l 1
 528.872 720.545 529.336 718.865 529.336 717.138 c 0
 529.336 708.364 521 708.006 521 696 c 2
 521 -1 l 1
 439 -1 l 1
 439 344 l 1
 157 344 l 1
 157 0 l 1
 73 0 l 1
 73 722 l 1
EndSplineSet
Validated: 1
EndChar

StartChar: I
Encoding: 73 73 42
Width: 600
GlyphClass: 2
Flags: W
LayerCount: 2
Fore
SplineSet
112 722 m 1
 470 722 l 1
 470 654 l 1
 327 654 l 1
 327 66 l 1
 477 66 l 1
 477 -1 l 1
 104 -1 l 1
 104 67 l 1
 246 67 l 1
 246 654 l 1
 112 654 l 1
 112 722 l 1
EndSplineSet
Validated: 1
EndChar

StartChar: J
Encoding: 74 74 43
Width: 600
GlyphClass: 2
Flags: W
LayerCount: 2
Fore
SplineSet
209 722 m 1
 539 722.002 l 1
 539 654.002 l 1
 428 654.002 l 1
 428 242.002 l 2
 428 189.716 427.529 134.893 399.871 83.1328 c 0
 366.41 20.5146 303.824 -13.1006 235.465 -13.1006 c 0
 171.621 -13.1006 109.769 15.8271 67.001 67 c 1
 121.001 133 l 1
 127.876 126.68 123.024 118.694 128.163 112.067 c 0
 130.664 108.842 176.363 58.6807 236.759 58.6807 c 0
 271.444 58.6807 302.787 75.9434 322.107 104.722 c 0
 348.989 144.764 348 196.3 348 241 c 2
 348 654 l 1
 209 654 l 1
 209 722 l 1
EndSplineSet
Validated: 33
EndChar

StartChar: K
Encoding: 75 75 44
Width: 600
GlyphClass: 2
Flags: W
LayerCount: 2
Fore
SplineSet
59 723 m 1
 155.998 723 l 1
 157.284 715.176 152.151 709.852 149.465 706.358 c 0
 145.418 701.094 144.999 698.015 144.999 693 c 2
 144.999 389 l 1
 446.999 728 l 1
 466.857 722.945 487.384 722 507 722 c 2
 537 722 l 1
 264 410 l 1
 556 -1 l 1
 498.81 -0.826172 453 -5 453 -5 c 1
 202 361 l 1
 145 299 l 1
 145 0 l 1
 59 0 l 1
 59 723 l 1
EndSplineSet
Validated: 33
EndChar

StartChar: L
Encoding: 76 76 45
Width: 600
GlyphClass: 2
Flags: W
LayerCount: 2
Fore
SplineSet
87 722 m 1
 181 721.999 l 1
 182.252 713.762 178.671 707.036 176.957 703.775 c 0
 173.543 697.277 171 693.469 171 683 c 2
 171 69 l 1
 519 69 l 1
 519 -1 l 1
 87 -1 l 1
 87 722 l 1
EndSplineSet
Validated: 33
EndChar

StartChar: M
Encoding: 77 77 46
Width: 600
GlyphClass: 2
Flags: W
LayerCount: 2
Fore
SplineSet
57 722 m 1
 121 722 l 1
 300 369 l 1
 482 723 l 1
 543 723 l 1
 543 -1 l 1
 466 -1 l 1
 466 545 l 1
 310 254 l 1
 279 254 l 1
 133 541 l 1
 133 -1 l 1
 57 -1 l 1
 57 722 l 1
EndSplineSet
Validated: 1
EndChar

StartChar: N
Encoding: 78 78 47
Width: 600
GlyphClass: 2
Flags: W
LayerCount: 2
Fore
SplineSet
68 0 m 1
 68 722 l 1
 147 722 l 1
 450 187 l 1
 450 723 l 1
 536 723 l 1
 536.929 716.255 533.916 710.683 532.621 708.22 c 0
 529.844 702.938 528 700.058 528 692 c 2
 528 -1 l 1
 464 -1 l 1
 146 568 l 1
 146 0 l 1
 68 0 l 1
EndSplineSet
Validated: 1
EndChar

StartChar: O
Encoding: 79 79 48
Width: 600
GlyphClass: 2
Flags: W
LayerCount: 2
Fore
SplineSet
556.008 359.504 m 0
 556.008 296.095 551.431 206.273 513.071 128.646 c 0
 465.54 32.457 382.428 -11.0146 304.486 -11.0146 c 0
 193.978 -11.0146 44.001 78.3994 44.001 362.113 c 0
 44.001 645.884 196.082 730 303.762 730 c 0
 382.354 730 464.443 686.67 511.792 593.902 c 0
 551.172 516.748 556.008 427.05 556.008 359.504 c 0
300.363 654.011 m 0
 224.498 654.011 123.975 587.912 123.975 372.66 c 0
 123.975 143.054 223.623 67.9873 304.838 67.9873 c 0
 353.419 67.9873 409.359 95.4453 442.77 165.717 c 0
 472.359 227.951 475.089 301.614 475.089 348.897 c 0
 475.089 410.011 471.39 479.154 446.987 539.85 c 0
 413.338 623.544 351.594 654.011 300.363 654.011 c 0
EndSplineSet
Validated: 1
EndChar

StartChar: P
Encoding: 80 80 49
Width: 600
GlyphClass: 2
Flags: W
LayerCount: 2
Fore
SplineSet
78 722 m 1
 297.998 722.002 l 2
 344.558 722.002 389.348 720.812 434.622 697.495 c 0
 502.826 662.371 538.015 591.719 538.015 518.7 c 0
 538.015 445.504 502.882 376.353 436.113 342.409 c 0
 392.262 320.116 348.977 319 304 319 c 1
 304 319 l 1
 162 319 l 1
 162 0 l 1
 78 0 l 1
 78 722 l 1
161.998 646.002 m 1
 160.998 390.002 l 1
 306.998 390.002 l 2
 335.464 390.002 362.991 390.68 390.829 404.765 c 0
 432.657 425.928 455.001 468.945 455.001 514.987 c 0
 455.001 561.986 431.627 607.923 386.617 630.502 c 0
 357.188 645.265 328.163 646.002 297.998 646.002 c 2
 161.998 646.002 l 1
EndSplineSet
Validated: 5
EndChar

StartChar: Q
Encoding: 81 81 50
Width: 600
GlyphClass: 2
Flags: W
LayerCount: 2
Fore
SplineSet
300.491 656.024 m 0
 221.775 656.024 122.96 585.888 122.96 373.877 c 0
 122.96 144.877 220.551 63.9922 305.427 63.9922 c 0
 366.012 63.9922 478.121 108.342 478.121 348.259 c 0
 478.121 408.965 473.721 479.175 448.587 540.782 c 0
 413.795 626.061 351.323 656.024 300.491 656.024 c 0
556.016 357.88 m 0
 556.016 294.497 551.451 205.025 513.097 127.798 c 0
 473.396 47.8584 408.807 4.4375 343.021 -7.54688 c 1
 344.367 -47.6055 355.333 -95.084 427.899 -95.084 c 0
 453.816 -95.084 485.179 -90.5898 522.001 -88.998 c 1
 520.001 -167.998 l 1
 436.633 -167.283 386.167 -172.608 341.236 -150.306 c 0
 288.62 -124.188 270.812 -74.3867 271.791 -8.40332 c 1
 166.777 8.07227 44.001 105.442 44.001 361.968 c 0
 44.001 646.357 196.452 730.001 303.806 730.001 c 0
 383.023 730.001 465.548 686.02 512.627 592.27 c 0
 551.228 515.402 556.016 426.335 556.016 357.88 c 0
EndSplineSet
Validated: 33
EndChar

StartChar: R
Encoding: 82 82 51
Width: 600
GlyphClass: 2
Flags: W
LayerCount: 2
Fore
SplineSet
75 722 m 1
 287.999 722.001 l 2
 334.666 722.001 380.247 720.951 425.987 697.72 c 0
 492.447 663.966 528.143 596.481 528.143 523.979 c 0
 528.143 428.395 468.499 345.903 381 322 c 1
 548 0 l 1
 457 0 l 1
 297 319 l 1
 157 319 l 1
 157 0 l 1
 75 0 l 1
 75 722 l 1
156.999 646.001 m 1
 156.999 390.002 l 1
 296.999 390.002 l 2
 325.465 390.002 352.992 390.68 380.83 404.765 c 0
 422.658 425.928 445.002 468.945 445.002 514.987 c 0
 445.002 561.986 421.628 607.922 376.618 630.501 c 0
 347.189 645.264 318.164 646.001 287.999 646.001 c 2
 156.999 646.001 l 1
EndSplineSet
Validated: 1
EndChar

StartChar: S
Encoding: 83 83 52
Width: 600
GlyphClass: 2
Flags: W
LayerCount: 2
Fore
SplineSet
514 636 m 1
 463.002 566.998 l 1
 460.469 567.768 457.131 570.057 456.898 576.477 c 0
 456.745 580.736 457.327 583.152 454.26 587.624 c 0
 426.296 628.399 374.584 659.137 307.323 659.137 c 0
 224.668 659.137 176.929 608.656 176.929 553.301 c 0
 176.929 523.785 190.278 480.956 250.701 445.618 c 0
 316.768 406.979 418.491 386.476 481.296 327.333 c 0
 526.491 284.774 537.391 234.351 537.391 196.565 c 0
 537.391 105.696 472.479 -12.0703 296.743 -12.0703 c 0
 207.646 -12.0703 126.78 19.165 70 80.998 c 1
 118 163.998 l 1
 123.54 161.187 123.285 154.811 123.259 152.897 c 0
 123.192 148.116 122.894 145.187 126.519 140.597 c 0
 158.801 99.7109 219.842 60.9492 299.1 60.9492 c 0
 403.921 60.9492 456.763 129.107 456.763 191.929 c 0
 456.763 224.218 443.541 261.931 396.186 291.611 c 0
 341.617 325.812 237.4 350.797 170.522 400.177 c 0
 110.322 444.627 93.7998 498.906 93.7998 541.004 c 0
 93.7998 639.749 183.362 726.008 313.761 726.008 c 0
 392.466 726.008 465.102 694.099 514 636 c 1
EndSplineSet
Validated: 1
EndChar

StartChar: T
Encoding: 84 84 53
Width: 600
GlyphClass: 2
Flags: W
LayerCount: 2
Fore
SplineSet
46 723 m 1
 546 723 l 1
 546 650 l 1
 333 650 l 1
 333 -1 l 1
 251 -1 l 1
 251 650 l 1
 46 650 l 1
 46 723 l 1
EndSplineSet
Validated: 1
EndChar

StartChar: U
Encoding: 85 85 54
Width: 600
GlyphClass: 2
Flags: W
LayerCount: 2
Fore
SplineSet
68 722 m 1
 159.003 721.998 l 1
 159.794 720.161 160.203 718.17 160.203 716.148 c 0
 160.203 709.233 155.634 704.496 152.574 700.193 c 0
 148.299 694.181 148.003 690.265 148.003 684.999 c 2
 148.003 247.999 l 2
 148.003 212.141 148.704 177.153 165.339 141.576 c 0
 191.302 86.0508 245.808 55.9189 303.069 55.9189 c 0
 359.416 55.9189 413.785 85.3418 440.469 140.547 c 0
 458.227 177.286 459.002 213.691 459.002 250.998 c 2
 459.002 721.998 l 1
 536.002 721.998 l 1
 536.002 252.998 l 2
 536.002 200.19 534.41 150.172 507.087 99.8125 c 0
 466.02 24.124 384.911 -13.0742 301.462 -13.0742 c 0
 216.266 -13.0742 136.155 24.9766 96.1416 99.2168 c 0
 69.4092 148.813 68 197.96 68 249 c 1
 68 249 l 1
 68 722 l 1
EndSplineSet
Validated: 1
EndChar

StartChar: V
Encoding: 86 86 55
Width: 600
GlyphClass: 2
Flags: W
LayerCount: 2
Fore
SplineSet
39 723 m 1
 124 723 l 1
 309 168 l 1
 484 722 l 1
 564 722 l 1
 322 -5 l 1
 285 -5 l 1
 39 723 l 1
EndSplineSet
Validated: 1
EndChar

StartChar: W
Encoding: 87 87 56
Width: 600
GlyphClass: 2
Flags: W
LayerCount: 2
Fore
SplineSet
30 722 m 1
 105 722 l 1
 183 234 l 1
 299 669 l 1
 324 669 l 1
 441 232 l 1
 507 722 l 1
 575 722 l 1
 461 -5 l 1
 429 -5 l 1
 305 472 l 1
 179 -5 l 1
 146 -5 l 1
 30 722 l 1
EndSplineSet
Validated: 1
EndChar

StartChar: X
Encoding: 88 88 57
Width: 600
GlyphClass: 2
Flags: W
LayerCount: 2
Fore
SplineSet
449 723 m 1
 530 723 l 1
 347.292 370.084 l 1
 552 0 l 1
 461 0 l 1
 300.474 286.156 l 1
 146 0 l 1
 57 0 l 1
 254.441 368.201 l 1
 61 723 l 1
 148 723 l 1
 300.153 448.564 l 1
 449 723 l 1
EndSplineSet
Validated: 1
EndChar

StartChar: Y
Encoding: 89 89 58
Width: 600
GlyphClass: 2
Flags: W
LayerCount: 2
Fore
SplineSet
43 723 m 1
 135 723 l 1
 312 372 l 1
 472 722 l 1
 558 722 l 1
 353 285 l 1
 353 0 l 1
 265 0 l 1
 265 285 l 1
 43 723 l 1
EndSplineSet
Validated: 1
EndChar

StartChar: Z
Encoding: 90 90 59
Width: 600
GlyphClass: 2
Flags: W
LayerCount: 2
Fore
SplineSet
82 722 m 1
 528.001 722 l 1
 527.001 665 l 1
 170.001 71 l 1
 511.001 71 l 2
 527.143 71 531.579 80.1396 546 78 c 1
 546 -1 l 1
 68 -1 l 1
 68 56 l 1
 432 649 l 1
 82 649 l 1
 82 722 l 1
EndSplineSet
Validated: 33
EndChar

StartChar: bracketleft
Encoding: 91 91 60
Width: 600
GlyphClass: 2
Flags: W
LayerCount: 2
Fore
SplineSet
162 776 m 1
 493 776 l 1
 493 707 l 1
 236 707 l 1
 237 -102 l 5
 495 -102 l 5
 495 -168 l 5
 163 -168 l 5
 162 776 l 1
EndSplineSet
Validated: 1
EndChar

StartChar: backslash
Encoding: 92 92 61
Width: 600
GlyphClass: 2
Flags: W
LayerCount: 2
Fore
SplineSet
516 -15 m 1
 153 770 l 1
 84 735 l 1
 448 -49 l 1
 516 -15 l 1
EndSplineSet
Validated: 9
EndChar

StartChar: bracketright
Encoding: 93 93 62
Width: 600
GlyphClass: 2
Flags: W
LayerCount: 2
Fore
SplineSet
438 776 m 1
 107 776 l 1
 107 707 l 1
 364 707 l 1
 361 -93 l 5
 103 -93 l 5
 103 -159 l 5
 435 -159 l 5
 438 776 l 1
EndSplineSet
Validated: 9
EndChar

StartChar: asciicircum
Encoding: 94 94 63
Width: 600
GlyphClass: 2
Flags: W
LayerCount: 2
Fore
SplineSet
38.3115 431 m 5
 296.355 728 l 5
 332.803 728 l 5
 561.688 432 l 5
 471.301 403 l 5
 308.019 606 l 5
 122.868 403 l 5
 38.3115 431 l 5
EndSplineSet
Validated: 1
EndChar

StartChar: underscore
Encoding: 95 95 64
Width: 600
GlyphClass: 2
Flags: W
LayerCount: 2
Fore
SplineSet
50 -22 m 1
 550 -22 l 1
 550 -93 l 1
 50 -93 l 1
 50 -22 l 1
EndSplineSet
Validated: 1
EndChar

StartChar: grave
Encoding: 96 96 65
Width: 600
GlyphClass: 2
Flags: W
LayerCount: 2
Fore
SplineSet
293.09 353.122 m 2
 229.977 463.064 l 1
 170.353 563.322 l 1
 168 744 l 1
 196.592 701.4 196.688 694.026 225.328 647.74 c 1
 236.667 616.728 244.362 618.187 257.411 595.457 c 2
 290.689 537.487 l 2
 316.957 491.729 329.436 410.24 329.972 369.047 c 0
 330.519 327.082 323.174 300.717 293.09 353.122 c 2
EndSplineSet
Validated: 33
EndChar

StartChar: a
Encoding: 97 97 66
Width: 600
GlyphClass: 2
Flags: W
LayerCount: 2
Fore
SplineSet
115 467 m 1
 164.456 518.083 232.513 541.056 303.926 541.056 c 0
 386.092 541.056 453.268 510.996 488.009 453.098 c 0
 512.442 412.376 514 371.391 514 328.001 c 2
 514 0.000976562 l 1
 435 0.000976562 l 1
 435 58.001 l 1
 377.24 10.666 309.94 -13.001 244.918 -13.001 c 0
 134.316 -13.001 66.8193 59.1641 66.8193 136.826 c 0
 66.8193 195.508 104.708 257.38 188.206 288.065 c 0
 255.558 312.817 339.023 312 417 312 c 2
 434 312 l 1
 434 331 l 2
 434 359.055 434.409 393.113 416.772 422.077 c 0
 401.83 446.614 370.745 473.03 307.869 473.03 c 0
 258.955 473.03 199.358 459.393 156 414 c 1
 115 467 l 1
437.001 248.001 m 1
 418.001 248.002 l 2
 362.992 248.002 292.115 251.467 244.036 239.989 c 0
 177.666 224.146 150.669 180.911 150.669 142.458 c 0
 150.669 95.1387 191.682 50.8154 261.864 50.8154 c 0
 331.199 50.8154 381.823 92.8447 401.059 113.288 c 0
 436.771 151.243 437.001 185.579 437.001 213.001 c 2
 437.001 248.001 l 1
EndSplineSet
Validated: 33
EndChar

StartChar: b
Encoding: 98 98 67
Width: 600
GlyphClass: 2
Flags: W
LayerCount: 2
Fore
SplineSet
79 771 m 1
 177.001 771.001 l 1
 178.977 764.037 172.639 759.558 170.696 758.014 c 0
 165.256 753.691 164 751.157 164 745.001 c 2
 164 448.001 l 1
 197.57 506.184 259.707 542.07 327.128 542.07 c 0
 431.167 542.07 540.005 456.139 540.005 271.2 c 0
 540.005 79.1562 427.245 -13.0762 318.695 -13.0762 c 0
 255.173 -13.0762 196.766 18.3506 162 70 c 1
 133 0 l 1
 79 0 l 1
 79 771 l 1
298.07 470.354 m 0
 245.669 470.354 197.568 440.715 177.846 392.983 c 0
 165.811 363.856 163.971 329.782 163.971 281.904 c 0
 163.971 236.093 163.586 204.899 167.226 177.364 c 0
 180.564 76.4443 260.538 61.9736 296.745 61.9736 c 0
 348.523 61.9736 453.239 91.5615 453.239 253.68 c 0
 453.239 440.585 347.818 470.354 298.07 470.354 c 0
EndSplineSet
Validated: 33
EndChar

StartChar: c
Encoding: 99 99 68
Width: 600
GlyphClass: 2
Flags: W
LayerCount: 2
Fore
SplineSet
539 442 m 1
 480.002 372.998 l 1
 470.827 379.922 477.128 390.807 472.705 399.751 c 0
 469.636 405.958 426.166 469.072 335.782 469.072 c 0
 238.506 469.072 160.971 393.767 160.971 273.125 c 0
 160.971 149.419 239.602 62.9775 342.758 62.9775 c 0
 395.812 62.9775 447.211 86.4414 483.002 126.998 c 1
 531.002 70.998 l 1
 480.518 16.5791 409.688 -13.0029 335.782 -13.0029 c 0
 186.049 -13.0029 75 104.891 75 264.508 c 0
 75 423.379 185.477 540.027 341.052 540.027 c 0
 426.181 540.027 497.315 503.103 539 442 c 1
EndSplineSet
Validated: 1
EndChar

StartChar: d
Encoding: 100 100 69
Width: 600
GlyphClass: 2
Flags: W
LayerCount: 2
Fore
SplineSet
440 452 m 1
 439.999 771.002 l 1
 528.999 771.002 l 1
 529.428 763.117 525.031 757.36 522.643 753.667 c 0
 518.514 747.284 517.989 744.042 517.998 738.002 c 2
 518.998 49.002 l 2
 519.021 32.9775 519.823 16.2109 523.998 0.000976562 c 1
 440.998 0.000976562 l 1
 436.756 12.8486 435.998 26.4238 435.998 39.001 c 2
 435.998 85.001 l 1
 402.752 25.583 340.196 -11.7422 272.5 -11.7422 c 0
 170.17 -11.7422 61.9971 73.6689 61.9971 269.088 c 0
 61.9971 471.408 183.849 543.089 284.755 543.089 c 0
 357.904 543.089 414.551 506.411 440 452 c 1
288.637 475.043 m 0
 227.728 475.043 142.872 433.441 142.872 282.733 c 0
 142.872 108.365 231.934 61.8115 291.868 61.8115 c 0
 347.079 61.8115 401.869 98.7207 422.258 162.217 c 0
 430.841 188.945 433.288 218.615 433.288 258.528 c 0
 433.288 317.622 430.951 347.17 424.39 371.789 c 0
 403.441 450.385 335.052 475.043 288.637 475.043 c 0
EndSplineSet
Validated: 33
EndChar

StartChar: e
Encoding: 101 101 70
Width: 600
GlyphClass: 2
Flags: W
LayerCount: 2
Fore
SplineSet
309.698 542.271 m 0
 396.487 542.271 495.286 496.223 519.331 354.104 c 0
 524.53 323.372 526.211 289.372 523 253.001 c 1
 147.298 253.001 l 1
 153.598 94.4863 256.131 55.4414 326.953 55.4414 c 0
 379.589 55.4414 429.496 76.3574 464 115 c 1
 510 70 l 1
 464.675 15.5068 396.045 -12.1436 320.487 -12.1436 c 0
 176.7 -12.1436 66.2988 82.2256 66.2988 258.61 c 0
 66.2988 451.855 183.263 542.271 309.698 542.271 c 0
150.008 317.002 m 1
 440.999 317.002 l 1
 450.941 402.841 389.68 478.171 303.883 478.171 c 0
 247.072 478.171 166.495 441.852 150.008 317.002 c 1
EndSplineSet
Validated: 33
EndChar

StartChar: f
Encoding: 102 102 71
Width: 600
GlyphClass: 2
Flags: W
LayerCount: 2
Fore
SplineSet
408.022 777.453 m 0
 474.61 777.453 532.123 750.586 570.002 705 c 1
 532.002 628 l 1
 528.436 627.638 523.231 629.721 522.594 637.659 c 0
 522.195 642.608 523.123 645.776 519.404 651.402 c 0
 497.141 685.077 454.729 711.981 403.751 711.981 c 0
 359.971 711.981 319.107 692.477 297.274 653.356 c 0
 277.496 617.916 278.001 577.346 278.001 539 c 2
 278.001 498 l 1
 451.001 498 l 1
 451.001 432 l 1
 278.001 432 l 1
 278.001 0 l 1
 198.001 0 l 1
 198.001 432 l 1
 83.001 432 l 1
 83.001 498 l 1
 198.001 498 l 1
 198.001 550 l 2
 198.001 596.99 199.927 641.101 227.06 685.227 c 0
 264.057 745.395 333.643 777.453 408.022 777.453 c 0
EndSplineSet
Validated: 33
EndChar

StartChar: g
Encoding: 103 103 72
Width: 600
GlyphClass: 2
Flags: W
LayerCount: 2
Fore
SplineSet
155.954 364.263 m 0
 155.954 300.151 208.144 247.998 272.491 247.998 c 0
 336.833 247.998 389.059 300.156 389.059 364.307 c 0
 389.059 428.413 336.878 480.571 272.536 480.571 c 0
 208.19 480.571 155.954 428.416 155.954 364.263 c 0
277.609 546.548 m 0
 325.888 546.548 370.362 528.526 403 495.999 c 1
 443.962 530.331 496.755 547.195 550 542.999 c 1
 560 474.999 l 1
 549.913 476.739 539.695 477.614 529.459 477.614 c 0
 496.841 477.614 464.884 468.734 437 451.999 c 1
 454.566 425.56 464.002 394.364 464.002 362.276 c 0
 464.002 264.562 378.096 180.94 273.257 180.94 c 0
 250.3 180.94 227.524 185.02 205.999 192.998 c 1
 200.796 188.705 168.183 161.817 168.183 133.804 c 0
 168.183 117.118 179.983 104.637 200.261 99.0645 c 0
 211.548 95.9629 236.34 92.4023 275.862 92.4023 c 0
 335.853 92.4023 399.797 99.8467 455.06 77.4062 c 0
 511.29 54.5732 537.372 8.31445 537.372 -37.5127 c 0
 537.372 -108.517 473.087 -199.385 293.795 -199.385 c 0
 108.265 -199.385 54.4287 -131.699 54.4287 -73.9854 c 0
 54.4287 -31.9229 83.7041 7.00586 140.521 43.2773 c 1
 107.074 60.8535 98.0557 91.7832 98.0557 113.826 c 0
 98.0557 147.838 119.806 183.617 158 215.999 c 1
 109.489 247.564 79.7412 301.442 79.7412 359.359 c 0
 79.7412 462.8 172.22 546.548 277.609 546.548 c 0
196.924 28.2959 m 1
 166.506 11.5918 130.978 -16.207 130.978 -54.2588 c 0
 130.978 -72.7559 140.354 -101.884 183.146 -118.898 c 0
 223.162 -134.81 268.211 -136.198 292.383 -136.198 c 0
 327.816 -136.198 372.583 -133.957 411.374 -113.023 c 0
 447.727 -93.4053 460.905 -65.7031 460.905 -42.7607 c 0
 460.905 -19.4521 446.826 11.4414 397.737 18.8408 c 0
 367.368 23.418 324.657 20.4795 285.591 21.9258 c 0
 245.081 23.4258 216.988 25.7012 196.924 28.2959 c 1
EndSplineSet
Validated: 33
EndChar

StartChar: h
Encoding: 104 104 73
Width: 600
GlyphClass: 2
Flags: W
LayerCount: 2
Fore
SplineSet
91 0 m 1
 91 770 l 1
 187 770 l 1
 187.379 768.886 187.572 767.712 187.572 766.526 c 0
 187.572 760.484 182.866 756.916 180.206 754.11 c 0
 176.271 749.956 176.001 746.931 176.001 743 c 2
 176.001 436 l 1
 214.872 495.002 280.121 542.003 351.958 542.003 c 0
 412.282 542.003 466.545 508.129 492.9 448.568 c 0
 511.73 406.015 512.002 362.335 512.002 321.001 c 1
 512.002 321.001 l 1
 512.002 0.000976562 l 1
 430.002 0.000976562 l 1
 430.002 319.001 l 2
 430.002 356.394 429.764 401.823 401.111 436.062 c 0
 382.099 458.781 355.909 469.58 329.342 469.58 c 0
 273.362 469.58 222.49 422.787 202.309 395.894 c 0
 180.287 366.551 176 340.651 176 305 c 2
 176 0 l 1
 91 0 l 1
EndSplineSet
Validated: 1
EndChar

StartChar: i
Encoding: 105 105 74
Width: 600
GlyphClass: 2
Flags: W
LayerCount: 2
Fore
SplineSet
133 530 m 1
 345 530 l 1
 345 67 l 1
 469 67 l 1
 469 0 l 1
 126 0 l 1
 126 67 l 1
 261 67 l 1
 261 462 l 1
 133 462 l 1
 133 530 l 1
305.003 760 m 0
 338.171 760 365.02 733.279 365.02 700.492 c 0
 365.02 667.727 338.183 640.991 304.99 640.991 c 0
 271.818 640.991 244.981 667.715 244.981 700.485 c 0
 244.981 733.264 271.822 760 305.003 760 c 0
EndSplineSet
Validated: 1
EndChar

StartChar: j
Encoding: 106 106 75
Width: 600
GlyphClass: 2
Flags: W
LayerCount: 2
Fore
SplineSet
156 530 m 1
 437 529.999 l 1
 437 36.999 l 2
 437 -8.68555 435.772 -52.1055 413.163 -96.3818 c 0
 377.277 -166.657 303.238 -202.182 227.699 -202.182 c 0
 162.018 -202.182 103.902 -175.027 66 -128 c 1
 120 -56 l 1
 127.204 -61.9473 125.358 -69.4814 130.11 -77.248 c 0
 134.378 -84.2217 169.009 -130.016 233.016 -130.016 c 0
 277.791 -130.016 319.506 -106.298 339.459 -63.2393 c 0
 352.497 -35.1016 353 -7.27539 353 21 c 2
 353 461 l 1
 156 461 l 1
 156 530 l 1
396.003 759.999 m 0
 429.171 759.999 456.02 733.279 456.02 700.492 c 0
 456.02 667.727 429.183 640.991 395.99 640.991 c 0
 362.818 640.991 335.981 667.715 335.981 700.484 c 0
 335.981 733.263 362.822 759.999 396.003 759.999 c 0
EndSplineSet
Validated: 1
EndChar

StartChar: k
Encoding: 107 107 76
Width: 600
GlyphClass: 2
Flags: W
LayerCount: 2
Fore
SplineSet
87 770 m 1
 182 770 l 1
 183.286 762.176 178.153 756.852 175.467 753.358 c 0
 171.42 748.094 171.001 745.015 171.001 740 c 2
 171.001 286 l 1
 436.001 532 l 1
 456.531 526.949 477.705 526 498.001 526 c 2
 528.001 526 l 1
 305.001 316 l 1
 565.001 -1 l 1
 562.3 -0.982422 559.598 -0.973633 556.896 -0.973633 c 0
 501.401 -0.973633 457 -5 457 -5 c 1
 241 265 l 1
 171 200 l 1
 171 -1 l 1
 87 -1 l 1
 87 770 l 1
EndSplineSet
Validated: 33
EndChar

StartChar: l
Encoding: 108 108 77
Width: 600
GlyphClass: 2
Flags: W
LayerCount: 2
Fore
SplineSet
108 770 m 1
 342 770 l 1
 342 67 l 1
 498 67 l 1
 498 0 l 1
 101 0 l 1
 101 67 l 1
 258 67 l 1
 258 703 l 1
 108 703 l 1
 108 770 l 1
EndSplineSet
Validated: 1
EndChar

StartChar: m
Encoding: 109 109 78
Width: 600
GlyphClass: 2
Flags: W
LayerCount: 2
Fore
SplineSet
54 0 m 1
 53.998 529.002 l 1
 130.998 529.002 l 1
 129.998 477.002 l 1
 154.335 514.019 194.918 542.058 238.34 542.058 c 0
 285.781 542.058 323.698 508.724 331.998 465.002 c 1
 352.562 511.825 399.839 542.004 450.615 542.004 c 0
 480.394 542.004 513.14 530.577 533.429 499.945 c 0
 556.855 464.576 554.999 419.811 554.999 376.003 c 2
 554.999 -0.99707 l 1
 475.999 -0.99707 l 1
 475.999 375.003 l 2
 475.999 399.071 478.584 429.364 468.834 451.655 c 0
 460.273 471.231 443.933 481.207 426.805 481.207 c 0
 394.658 481.207 374.014 448.265 365.249 433.481 c 0
 345.703 400.516 343 377.823 343 350.002 c 2
 343 0.00195312 l 1
 265 0.00195312 l 1
 265 368.002 l 2
 265 389.834 266.608 415.374 259.774 437.515 c 0
 250.805 466.573 229.6 478.298 210.74 478.298 c 0
 189.54 478.298 165.885 464.472 146.731 428.907 c 0
 131.729 401.049 130 377.928 130 353 c 2
 130 0 l 1
 54 0 l 1
EndSplineSet
Validated: 33
EndChar

StartChar: n
Encoding: 110 110 79
Width: 600
GlyphClass: 2
Flags: W
LayerCount: 2
Fore
SplineSet
89 0 m 1
 89.001 529 l 1
 174.001 529 l 1
 174.001 436 l 1
 212.872 495.002 278.121 542.003 349.958 542.003 c 0
 410.282 542.003 464.545 508.129 490.9 448.568 c 0
 509.73 406.015 510.002 362.335 510.002 321.001 c 1
 510.002 321.001 l 1
 510.002 0.000976562 l 1
 428.002 0.000976562 l 1
 428.002 319.001 l 2
 428.002 356.394 427.764 401.823 399.111 436.062 c 0
 380.099 458.781 353.909 469.58 327.342 469.58 c 0
 271.362 469.58 220.49 422.787 200.309 395.894 c 0
 178.287 366.551 174 340.651 174 305 c 2
 174 0 l 1
 89 0 l 1
EndSplineSet
Validated: 1
EndChar

StartChar: o
Encoding: 111 111 80
Width: 600
GlyphClass: 2
Flags: W
LayerCount: 2
Fore
SplineSet
543.113 262.304 m 0
 543.113 86.8037 430.327 -14 304.97 -14 c 0
 171.549 -14 56.8682 99.5322 56.8682 260.578 c 0
 56.8682 424.14 172.53 541.005 307.44 541.005 c 0
 427.751 541.005 543.113 445.084 543.113 262.304 c 0
301.76 470.104 m 0
 220.797 470.104 144.987 397.574 144.987 267.806 c 0
 144.987 137.225 221.251 57.9922 305.616 57.9922 c 0
 382.886 57.9922 459.169 125.6 459.169 258.844 c 0
 459.169 404.202 378.13 470.104 301.76 470.104 c 0
EndSplineSet
Validated: 1
EndChar

StartChar: p
Encoding: 112 112 81
Width: 600
GlyphClass: 2
Flags: W
LayerCount: 2
Fore
SplineSet
79 529 m 1
 163.999 529.001 l 1
 163.999 448.001 l 1
 199.964 505.863 263.254 541.001 331.195 541.001 c 0
 435.346 541.001 546.008 457.518 546.008 270.69 c 0
 546.008 76.5713 432.1 -14.1494 323.885 -14.1494 c 0
 259.582 -14.1494 200.339 17.6553 165 70 c 1
 165 -193 l 1
 80 -193 l 1
 79 529 l 1
300.598 469.912 m 0
 247.268 469.912 198.021 440.747 177.863 393.199 c 0
 166.208 365.706 163.873 333.507 163.873 288.854 c 0
 163.873 212.179 163.541 168.562 179.043 132.851 c 0
 199.941 84.71 249.87 59.8389 300.075 59.8389 c 0
 349.664 59.8389 459.205 86.543 459.205 253.488 c 0
 459.205 445.621 347.067 469.912 300.598 469.912 c 0
EndSplineSet
Validated: 33
EndChar

StartChar: q
Encoding: 113 113 82
Width: 600
GlyphClass: 2
Flags: W
LayerCount: 2
Fore
SplineSet
443 452 m 2
 443 528.999 l 1
 522 528.999 l 1
 522 -193.001 l 1
 439 -193.001 l 1
 439 84.999 l 1
 405.898 26.0547 344.027 -11.6572 276.61 -11.6572 c 0
 159.719 -11.6572 58.9971 98.0801 58.9971 269.638 c 0
 58.9971 449.541 172.706 543.066 288.684 543.066 c 0
 406.139 543.066 443 451.618 443 452 c 2
291.949 475.033 m 0
 220.924 475.033 142.88 419.676 142.88 281.575 c 0
 142.88 131.999 219.653 61.79 295.167 61.79 c 0
 350.365 61.79 404.936 99.0664 425.25 162.164 c 0
 433.889 188.997 436.294 218.713 436.294 258.291 c 0
 436.294 322.298 433.787 355.626 423.349 384.853 c 0
 400.165 449.771 339.214 475.033 291.949 475.033 c 0
EndSplineSet
Validated: 33
EndChar

StartChar: r
Encoding: 114 114 83
Width: 600
GlyphClass: 2
Flags: W
LayerCount: 2
Fore
SplineSet
125 529 m 1
 212 529 l 1
 209 427 l 1
 243.671 502.684 322.168 541.803 399.502 541.803 c 0
 458.959 541.803 507.697 518.113 541 483.999 c 1
 502 403.999 l 1
 493.106 412.504 489.309 421.667 482.353 430.553 c 0
 467.489 449.541 432.541 460 388 460 c 0
 350.57 460 294.103 450.052 246 374 c 4
 210.015 317.107 208 277.944 208 246 c 2
 209 -1 l 1
 125 -1 l 1
 125 529 l 1
EndSplineSet
EndChar

StartChar: s
Encoding: 115 115 84
Width: 600
GlyphClass: 2
Flags: W
LayerCount: 2
Fore
SplineSet
511 459 m 1
 461.998 385.998 l 1
 459.952 386.485 455.919 388.386 455.965 395.316 c 0
 455.992 399.388 456.752 402.169 453.488 406.382 c 0
 433.34 432.385 382.003 479.073 306.537 479.073 c 0
 246.686 479.073 194.999 449.385 194.999 406.785 c 0
 194.999 388.999 204.201 363.326 247.445 342.428 c 0
 296.926 318.516 382.175 306.562 441.996 272.981 c 0
 504.635 237.82 519.699 189.924 519.699 153.283 c 0
 519.699 73.377 444.138 -12.002 299.463 -12.002 c 0
 219.05 -12.002 138.143 14.2158 76.001 71.998 c 1
 124.001 154.998 l 1
 129.71 152.329 129.204 145.692 129.131 144.103 c 0
 128.918 139.469 128.402 136.207 132.351 131.719 c 0
 149.101 112.68 207.224 57.999 297.966 57.999 c 0
 373.594 57.999 434.069 92.167 434.069 141.757 c 0
 434.069 160.887 424.92 188.765 381.246 209.208 c 0
 342.195 227.486 283.741 241.549 238.969 257.732 c 0
 210.234 268.119 109.997 301.799 109.997 394.23 c 0
 109.997 473.3 190.548 542.004 313.496 542.004 c 0
 391.8 542.004 462.083 512.905 511 459 c 1
EndSplineSet
Validated: 1
EndChar

StartChar: t
Encoding: 116 116 85
Width: 600
GlyphClass: 2
Flags: W
LayerCount: 2
Fore
SplineSet
228 671 m 1
 319.002 686.001 l 1
 323.071 674.251 314.742 667.102 312.44 654.7 c 0
 306.992 625.351 299.002 530.001 299.002 530.001 c 1
 472.002 530.001 l 1
 472.002 461.001 l 1
 298.002 461.001 l 1
 291.312 392.179 287.956 323.066 287.956 253.871 c 0
 287.956 177.138 290.736 156.77 291.357 152.11 c 0
 299.83 88.5381 340.909 66.6729 380.425 66.6729 c 0
 413.027 66.6729 454.079 81.5986 499 115 c 1
 525 49 l 1
 480.23 16.2305 418.815 -10.1211 355.783 -10.1211 c 0
 301.714 -10.1211 260.342 10.8887 235.237 46.2598 c 0
 204.429 89.6689 204 142.866 204 190.358 c 0
 204 280.26 207.611 370.358 215 461 c 1
 91 461 l 1
 92 529 l 1
 218 529 l 1
 228 671 l 1
EndSplineSet
Validated: 33
EndChar

StartChar: u
Encoding: 117 117 86
Width: 600
GlyphClass: 2
Flags: W
LayerCount: 2
Fore
SplineSet
83 529 m 1
 167.001 529.002 l 1
 167.001 234.002 l 2
 167.001 198.502 166.871 157.111 185.679 119.766 c 0
 206.759 77.9092 245.415 55.002 286.848 55.002 c 0
 337.841 55.002 384.894 89.1904 409.153 133.496 c 0
 426.844 165.802 430.001 197.249 430.001 238.002 c 2
 430.001 529.002 l 1
 514.001 529.002 l 1
 514.001 48.002 l 2
 514.001 32.4922 514.915 15.8223 520.001 0.00195312 c 1
 432.001 0.00195312 l 1
 429.807 13.6514 429.663 27.4951 430.001 41.001 c 2
 431.001 81.001 l 1
 396.51 22.5859 333.904 -13.0156 267.521 -13.0156 c 0
 198.648 -13.0156 133.916 25.4346 102.995 94.9668 c 0
 82.3164 141.467 81.8438 187.899 82 234 c 2
 83 529 l 1
EndSplineSet
Validated: 33
EndChar

StartChar: v
Encoding: 118 118 87
Width: 600
GlyphClass: 2
Flags: W
LayerCount: 2
Fore
SplineSet
56 530 m 1
 156 530 l 1
 158 520.53 152.295 514.363 152.295 507.316 c 0
 152.295 504.529 153.032 502.45 154 500 c 2
 307 113 l 1
 392 310 l 2
 421.967 379.454 449.99 452.863 464 530 c 1
 539 530 l 1
 521.386 449.312 491.663 372.127 460 298 c 2
 331 -4 l 1
 266 -4 l 1
 56 530 l 1
EndSplineSet
Validated: 33
EndChar

StartChar: w
Encoding: 119 119 88
Width: 600
GlyphClass: 2
Flags: W
LayerCount: 2
Fore
SplineSet
28 530 m 1
 112.999 529.999 l 1
 116.046 520.996 112.998 513.232 111.086 507.076 c 0
 108.215 497.831 108.457 493.65 109.999 485.999 c 2
 186.999 103.999 l 1
 277.999 479.999 l 1
 328.999 479.999 l 1
 440.999 104.999 l 1
 486.61 406.208 492.088 465.02 489.999 528.999 c 1
 566.999 528.999 l 1
 544.195 351.316 514.841 174.519 479 -1 c 1
 401 -1 l 1
 303 342 l 1
 210 -1 l 1
 135 -1 l 1
 28 530 l 1
EndSplineSet
Validated: 33
EndChar

StartChar: x
Encoding: 120 120 89
Width: 600
GlyphClass: 2
Flags: W
LayerCount: 2
Fore
SplineSet
430 530 m 1
 515 530 l 1
 343.447 272.196 l 1
 538 0 l 1
 443 -0 l 1
 297.06 205.835 l 1
 159 0 l 1
 65 -0 l 1
 250.856 269.049 l 1
 68 530 l 1
 159 530 l 1
 297.737 333.918 l 1
 430 530 l 1
EndSplineSet
Validated: 1
EndChar

StartChar: y
Encoding: 121 121 90
Width: 600
GlyphClass: 2
Flags: W
LayerCount: 2
Fore
SplineSet
63 529 m 1
 167.001 528.999 l 1
 167.652 518.578 161.834 512.754 161.834 504.225 c 0
 161.834 500.852 162.695 498.285 164.001 494.998 c 2
 319.001 104.998 l 1
 420.001 388.998 l 2
 436.21 434.576 451.256 481.53 460.001 529.998 c 1
 547.001 529.998 l 1
 531.435 478.241 513.035 427.41 494 376.998 c 2
 329 -60.002 l 2
 317.685 -89.9688 306.505 -117.889 283.381 -143.906 c 0
 248.106 -183.595 198.508 -201.182 150.696 -201.182 c 0
 107.172 -201.182 66.5488 -186.253 36 -157.002 c 1
 79 -82.002 l 1
 85.8369 -87.3584 85.2471 -95.085 88.2402 -100.82 c 0
 91.1865 -106.466 111.209 -132.772 150.446 -132.772 c 0
 175.24 -132.772 202.436 -121.95 224.474 -98.4824 c 0
 241.247 -80.6211 251.822 -58.0557 261 -37 c 2
 278 2 l 1
 63 529 l 1
EndSplineSet
Validated: 33
EndChar

StartChar: z
Encoding: 122 122 91
Width: 600
GlyphClass: 2
Flags: W
LayerCount: 2
Fore
SplineSet
92 530 m 1
 504.001 530 l 1
 504.001 473 l 1
 181.001 71 l 1
 496.001 71 l 2
 512.143 71 516.579 80.1396 531 78 c 1
 531 -1 l 1
 68 -1 l 1
 68 56 l 1
 396 457 l 1
 92 457 l 1
 92 530 l 1
EndSplineSet
Validated: 33
EndChar

StartChar: braceleft
Encoding: 123 123 92
Width: 600
GlyphClass: 2
Flags: W
LayerCount: 2
Fore
SplineSet
71 329 m 1
 94.002 328.999 l 2
 114.582 328.999 146.237 328.584 171.536 355.121 c 0
 198.694 383.607 201.557 425.156 201.557 453.491 c 0
 201.557 481.496 198.601 507.73 198.601 536.425 c 0
 198.601 580.04 204.82 645.199 255.774 691.646 c 0
 311.37 742.324 385.822 738 448.002 738 c 2
 483.002 738 l 1
 483.002 672 l 1
 443.002 672 l 2
 392.344 672 357.047 676.742 325.876 657.279 c 0
 281.265 629.425 279.432 573.025 279.432 549.493 c 0
 279.432 521.75 282.856 496.367 282.856 468.062 c 0
 282.856 440.501 279.772 406.244 264.44 374.89 c 0
 247.329 339.898 217.846 312.378 182.001 297 c 1
 225.959 281.72 279.877 237.614 279.877 116.516 c 0
 279.877 80.6914 276.206 50.3086 276.206 19.6328 c 0
 276.206 -20.249 282.099 -70.9766 323.52 -99.5127 c 0
 355.222 -121.353 391.356 -119.001 439 -119.001 c 2
 482 -119.001 l 1
 482 -184.001 l 1
 440 -184.001 l 2
 368.421 -184.001 309.076 -187.507 259.023 -149.095 c 0
 197.979 -102.248 194.438 -23.0059 194.438 19.0576 c 0
 194.438 64.2178 198.784 98.7588 198.784 134.884 c 0
 198.784 184.919 190.964 218.659 168.219 240.946 c 0
 144.453 264.235 114.606 264 95 264 c 2
 71 264 l 1
 71 329 l 1
EndSplineSet
Validated: 33
EndChar

StartChar: bar
Encoding: 124 124 93
Width: 600
GlyphClass: 2
Flags: W
LayerCount: 2
Fore
SplineSet
261 756 m 1
 339 756 l 1
 339 -175 l 1
 261 -175 l 1
 261 756 l 1
EndSplineSet
Validated: 1
EndChar

StartChar: braceright
Encoding: 125 125 94
Width: 600
GlyphClass: 2
Flags: W
LayerCount: 2
Fore
SplineSet
529 329 m 1
 506 329 l 2
 485.42 329 453.765 328.585 428.466 355.122 c 0
 401.308 383.608 398.446 425.157 398.446 453.492 c 0
 398.446 481.497 401.402 507.731 401.402 536.425 c 0
 401.402 580.04 395.182 645.199 344.228 691.645 c 0
 288.632 742.324 214.18 738 152 738 c 2
 117 738 l 1
 117 672 l 1
 157 672 l 2
 207.658 672 242.955 676.742 274.126 657.279 c 0
 318.737 629.425 320.57 573.026 320.57 549.494 c 0
 320.57 521.751 317.145 496.368 317.145 468.062 c 0
 317.145 440.501 320.229 406.244 335.561 374.889 c 0
 352.672 339.898 382.155 312.378 418 297 c 1
 374.042 281.72 320.124 237.615 320.124 116.516 c 0
 320.124 80.6924 323.795 50.3096 323.795 19.6338 c 0
 323.795 -20.248 317.902 -70.9756 276.481 -99.5117 c 0
 244.779 -121.352 208.644 -119 161 -119 c 2
 118 -119 l 1
 118 -184 l 1
 160 -184 l 2
 231.579 -184 290.924 -187.506 340.977 -149.094 c 0
 402.021 -102.247 405.562 -23.0049 405.562 19.0576 c 0
 405.562 64.2178 401.216 98.7588 401.216 134.884 c 0
 401.216 184.919 409.036 218.659 431.781 240.946 c 0
 455.547 264.235 485.394 264 505 264 c 2
 529 264 l 1
 529 329 l 1
EndSplineSet
Validated: 41
EndChar

StartChar: asciitilde
Encoding: 126 126 95
Width: 600
GlyphClass: 2
Flags: W
LayerCount: 2
Fore
SplineSet
116 396 m 1
 58 434.001 l 1
 92.1982 492.035 151.499 538.052 217.153 538.052 c 0
 312.781 538.052 343.146 451 409.265 451 c 0
 447.271 451 474.649 480.654 508 526.001 c 1
 561 482.001 l 1
 530.811 436.286 473.381 375.378 400.536 375.378 c 0
 306.617 375.378 282.907 467.596 212.175 467.596 c 0
 179.423 467.596 145.323 443.982 116 396 c 1
EndSplineSet
Validated: 1
EndChar

StartChar: exclamdown
Encoding: 161 161 97
Width: 600
GlyphClass: 2
Flags: W
LayerCount: 2
Fore
SplineSet
218.956 705.494 m 0
 218.956 743.285 249.662 774.002 287.479 774.002 c 0
 325.286 774.002 356.004 743.299 356.004 705.491 c 0
 356.004 667.699 325.298 636.983 287.48 636.983 c 0
 249.674 636.983 218.956 667.688 218.956 705.494 c 0
285.686 -13.0156 m 0
 263.938 -13.0156 239.555 1.57812 230.612 36.665 c 0
 228.867 43.5098 226.198 56.4961 226.198 83.7354 c 0
 226.198 128.007 234.063 171.869 236.958 215.985 c 2
 257.958 535.985 l 1
 315.958 535.985 l 1
 332.958 215.985 l 2
 337.003 139.848 344.393 111.711 344.393 74.3154 c 0
 344.393 52.6074 341.814 36.9727 336.496 24.167 c 0
 326.155 -0.736328 305.756 -13.0156 285.686 -13.0156 c 0
EndSplineSet
Validated: 1
EndChar

StartChar: cent
Encoding: 162 162 98
Width: 600
GlyphClass: 2
Flags: W
LayerCount: 2
Fore
SplineSet
340 723 m 1
 417.998 714.999 l 1
 418.773 707.497 415.21 701.297 413.824 698.826 c 0
 410.852 693.525 409.046 690.934 407.999 683 c 2
 395.456 587.822 l 1
 458.441 575.242 504.754 541.294 533 498 c 1
 482 432 l 1
 476.607 435.758 476.706 442.016 476.706 443.549 c 0
 476.706 450.099 478.707 455.065 472.749 462.134 c 0
 457.796 479.871 428.657 504.644 386.192 517.518 c 1
 332.752 112.001 l 1
 333.469 112 l 2
 389.462 112 444.705 135.59 485 177.001 c 1
 527 121.001 l 1
 477.291 66.4258 406.711 37.9902 331.604 37.9902 c 0
 328.725 37.9902 325.861 38.0303 323.014 38.1094 c 1
 306 -90.999 l 1
 239 -82.999 l 1
 255.422 48.0547 l 1
 141.433 79.5752 66 182.291 66 315.836 c 0
 66 471.215 168.407 585.207 323.673 592.709 c 1
 340 723 l 1
265.042 124.835 m 1
 315.271 525.684 l 1
 219.936 519.992 147.947 447.754 147.947 326.543 c 0
 147.947 225.646 194.97 152.959 265.042 124.835 c 1
EndSplineSet
Validated: 41
EndChar

StartChar: sterling
Encoding: 163 163 99
Width: 600
GlyphClass: 2
Flags: W
LayerCount: 2
Fore
SplineSet
494 663 m 1
 443 599.003 l 1
 433.543 605.937 434.27 615.248 427.512 622.675 c 0
 422.593 628.08 390.006 656.13 341.348 656.13 c 0
 279.173 656.13 217.781 609.402 217.781 512.957 c 0
 217.781 488.177 221.729 463.316 227.169 438.001 c 1
 342.001 438.001 l 1
 342.001 372.001 l 1
 242.812 372.001 l 1
 251.234 336.144 258.537 298.853 258.537 259.183 c 0
 258.537 201.958 243.518 148.501 216.001 104.001 c 1
 226.251 105.792 236.645 106.676 247.063 106.676 c 0
 324.104 106.676 372.007 58.917 438.359 58.917 c 0
 470.325 58.917 500.468 70.8555 524 91.001 c 1
 555 31.001 l 1
 528.906 10.2539 484.714 -17.1631 434.141 -17.1631 c 0
 360.259 -17.1631 311.803 34.666 227.673 34.666 c 0
 203.994 34.666 159.283 30.2656 85 -9 c 1
 55 57 l 1
 108.912 81.9053 122.949 87.4531 141.287 115.98 c 0
 167.053 156.062 181.214 204.698 181.214 256.852 c 0
 181.214 296.572 172.952 334.482 163.82 372 c 1
 88 372 l 1
 88 438 l 1
 148.325 438 l 1
 143.399 462.328 139.931 486.842 139.931 511.928 c 0
 139.931 641.884 235.856 722.006 343.371 722.006 c 0
 398.585 722.006 452.418 701.138 494 663 c 1
EndSplineSet
Validated: 1
EndChar

StartChar: euro
Encoding: 8364 8364 100
Width: 600
GlyphClass: 2
Flags: W
LayerCount: 2
Fore
SplineSet
548 665 m 1
 519 586.001 l 1
 510.733 592.759 515.38 602.068 509.043 609.779 c 0
 507.923 611.143 464.815 661.168 386.756 661.168 c 0
 317.566 661.168 233.595 620.98 199.483 502.336 c 0
 197.687 496.084 195.746 488.7 193.828 480.002 c 1
 480 480.002 l 1
 455 413.002 l 1
 184.084 413.002 l 1
 182.441 393.405 181.417 370.759 181.417 344.615 c 0
 181.417 336.228 181.561 328.023 181.852 320.002 c 1
 420 320.002 l 1
 394 253.002 l 1
 188.48 253.002 l 1
 196.604 205.906 211.937 166.803 235.532 134.871 c 0
 276.315 79.6797 335.262 56.7939 388.937 56.7939 c 0
 435.099 56.7939 479.135 73.5117 513.001 104.003 c 1
 546.001 46.0029 l 1
 501.681 7.41895 444.787 -13.124 384.234 -13.124 c 0
 290.459 -13.124 145.305 38.4707 114.986 253.002 c 1
 48 253.002 l 1
 63 320.002 l 1
 109.56 320.002 l 1
 109.399 326.062 109.318 332.227 109.318 338.497 c 0
 109.318 363.48 110.294 388.449 112.537 413.001 c 1
 47.999 413.001 l 1
 62.999 480.001 l 1
 122.296 480.001 l 1
 130.797 521.1 144.027 559.767 163.557 593.832 c 0
 222.805 697.18 318.974 727.395 391.355 727.395 c 0
 452.52 727.395 507.764 705.737 548 665 c 1
EndSplineSet
Validated: 1
EndChar

StartChar: yen
Encoding: 165 165 101
Width: 600
GlyphClass: 2
Flags: W
LayerCount: 2
Fore
SplineSet
52 723 m 1
 142 723 l 1
 310 421 l 1
 464 722 l 1
 550 722 l 1
 348 342 l 1
 348 318 l 1
 504 318 l 1
 504 252 l 1
 348 252 l 1
 348 179 l 1
 504 179 l 1
 504 114 l 1
 348 114 l 1
 348 0 l 1
 269 0 l 1
 269 114 l 1
 107 114 l 1
 107 179 l 1
 269 179 l 1
 269 252 l 1
 107 252 l 1
 107 318 l 1
 269 318 l 1
 269 342 l 1
 52 723 l 1
EndSplineSet
Validated: 1
EndChar

StartChar: Scaron
Encoding: 352 352 102
Width: 600
GlyphClass: 2
Flags: W
LayerCount: 2
Fore
SplineSet
476 875 m 1
 324 760 l 1
 299 760 l 1
 156 873 l 1
 194 917 l 1
 314 835 l 1
 443 914 l 1
 476 875 l 1
514 636 m 1
 463 567 l 1
 460.467 567.77 457.129 570.059 456.897 576.479 c 0
 456.744 580.739 457.326 583.155 454.259 587.627 c 0
 426.295 628.402 374.583 659.139 307.322 659.139 c 0
 224.667 659.139 176.928 608.659 176.928 553.304 c 0
 176.928 523.788 190.278 480.959 250.701 445.621 c 0
 316.767 406.982 418.491 386.478 481.296 327.335 c 0
 526.491 284.776 537.39 234.352 537.39 196.567 c 0
 537.39 105.698 472.479 -12.0684 296.743 -12.0684 c 0
 207.646 -12.0684 126.78 19.167 70 81 c 1
 118 164 l 1
 123.54 161.188 123.285 154.812 123.259 152.899 c 0
 123.193 148.118 122.894 145.188 126.519 140.598 c 0
 158.801 99.7119 219.842 60.9502 299.1 60.9502 c 0
 403.921 60.9502 456.763 129.108 456.763 191.929 c 0
 456.763 224.218 443.541 261.931 396.186 291.612 c 0
 341.618 325.812 237.401 350.797 170.523 400.177 c 0
 110.323 444.627 93.7998 498.906 93.7998 541.004 c 0
 93.7998 639.749 183.363 726.008 313.761 726.008 c 0
 392.466 726.008 465.102 694.099 514 636 c 1
EndSplineSet
Validated: 1
EndChar

StartChar: section
Encoding: 167 167 103
Width: 600
GlyphClass: 2
Flags: W
LayerCount: 2
Fore
SplineSet
488 676 m 1
 423.001 617.998 l 1
 414.503 624.419 416.793 633.706 413.889 641.761 c 0
 404.46 667.915 369.873 709.913 308.354 709.913 c 0
 247.312 709.913 202.995 669.157 202.995 620.92 c 0
 202.995 597.43 213.727 561.521 264.35 534.75 c 0
 297.608 517.161 341.068 507.395 387.738 485.109 c 0
 468.615 446.49 494.177 395.662 494.177 353.919 c 0
 494.177 305.478 458.97 262.525 408.54 241.875 c 1
 459.314 207.38 483.177 156.538 483.177 107.272 c 0
 483.177 16.9873 402.924 -63.0234 285.775 -63.0234 c 0
 208.625 -63.0234 133.5 -27.5068 85.001 35.998 c 1
 146.001 106.998 l 1
 154.995 103.318 153.115 93.2207 155.625 86.7061 c 0
 159.141 77.5811 198.685 13.7588 286.023 13.7588 c 0
 356.942 13.7588 400.23 57.0381 400.23 105.025 c 0
 400.23 132.11 386.389 163.981 346.982 187.299 c 0
 298.949 215.721 233.162 219.874 175.365 254.027 c 0
 123.913 284.432 101.679 326.187 101.679 366.087 c 0
 101.679 418.43 140.913 463.115 196.205 482.822 c 1
 140.944 517.146 118.9 567.711 118.9 613.633 c 0
 118.9 701.981 199.382 778.27 307.937 778.27 c 0
 384.596 778.27 452.277 738.832 488 676 c 1
238.745 461.794 m 1
 207.925 451.722 185.961 423.14 185.961 389.456 c 0
 185.961 363.601 199.373 327.896 248.471 303.874 c 0
 283.421 286.774 323.541 281.478 365.24 264.585 c 1
 390.577 277.357 407.454 303.586 407.454 333.719 c 0
 407.454 360.137 394.182 398.164 340.304 424.752 c 0
 310.541 439.438 274.63 447.454 238.745 461.794 c 1
EndSplineSet
Validated: 1
EndChar

StartChar: scaron
Encoding: 353 353 104
Width: 600
GlyphClass: 2
Flags: W
LayerCount: 2
Fore
SplineSet
447 763 m 1
 318 600 l 1
 293 600 l 1
 165 764 l 1
 219 804 l 1
 309 685 l 1
 403 803 l 1
 447 763 l 1
511 459 m 1
 462 386 l 1
 459.954 386.487 455.921 388.387 455.967 395.318 c 0
 455.994 399.389 456.754 402.17 453.49 406.383 c 0
 433.342 432.386 382.005 479.074 306.539 479.074 c 0
 246.687 479.074 195 449.386 195 406.786 c 0
 195 389 204.202 363.327 247.446 342.429 c 0
 296.926 318.517 382.175 306.562 441.996 272.983 c 0
 504.635 237.822 519.699 189.926 519.699 153.285 c 0
 519.699 73.3789 444.137 -12 299.462 -12 c 0
 219.049 -12 138.142 14.2178 76 72 c 1
 124 155 l 1
 129.709 152.331 129.203 145.694 129.13 144.104 c 0
 128.917 139.47 128.401 136.208 132.349 131.72 c 0
 149.099 112.681 207.222 58 297.964 58 c 0
 373.592 58 434.068 92.168 434.068 141.757 c 0
 434.068 160.887 424.919 188.765 381.245 209.208 c 0
 342.194 227.486 283.74 241.548 238.968 257.732 c 0
 210.234 268.119 109.997 301.799 109.997 394.231 c 0
 109.997 473.3 190.548 542.004 313.496 542.004 c 0
 391.8 542.004 462.083 512.905 511 459 c 1
EndSplineSet
Validated: 1
EndChar

StartChar: copyright
Encoding: 169 169 105
Width: 600
GlyphClass: 2
Flags: W
LayerCount: 2
Fore
SplineSet
313.62 491.091 m 0
 386.544 491.091 443.025 445.506 458.001 383.999 c 1
 398.001 360.999 l 1
 391.518 368.855 395.373 377.022 393.507 384.631 c 0
 391.426 393.116 373.382 433.152 316.116 433.152 c 0
 261.423 433.152 207.998 399.047 207.998 326.991 c 0
 207.998 256.911 256.4 201.947 317.235 201.947 c 0
 353.532 201.947 386.838 222.046 404.001 254 c 1
 455.001 220 l 1
 422.957 171.427 369.075 140.974 312.131 140.974 c 0
 217.885 140.974 142.847 222.733 142.847 319.43 c 0
 142.847 418.338 220.235 491.091 313.62 491.091 c 0
306.309 21.8867 m 0
 152.946 21.8867 25.751 152.285 25.751 317.374 c 0
 25.751 483.339 153.373 614.019 306.768 614.019 c 0
 459.737 614.019 587.019 483.766 587.019 318.261 c 0
 587.019 152.431 459.473 21.8867 306.309 21.8867 c 0
78.7285 317.798 m 0
 78.7285 179.71 182.938 71.9082 307.828 71.9082 c 0
 432.333 71.9082 537.007 179.646 537.007 318.684 c 0
 537.007 457.351 432.661 564.999 308.145 564.999 c 0
 183.439 564.999 78.7285 457.058 78.7285 317.798 c 0
EndSplineSet
Validated: 33
EndChar

StartChar: ordfeminine
Encoding: 170 170 106
Width: 600
GlyphClass: 2
Flags: W
LayerCount: 2
Fore
SplineSet
152 656 m 1
 193.633 703.845 253.099 721.283 307.799 721.283 c 0
 370.636 721.283 423.691 696.265 447.562 644.965 c 0
 459.784 618.696 460.999 592.462 460.999 562.001 c 2
 460.999 309.001 l 1
 387.999 309.001 l 1
 387.999 348.001 l 1
 353.619 315.568 309.293 298 264.369 298 c 0
 184.049 298 127.994 354.535 127.994 418.966 c 0
 127.994 457.363 148.671 500.38 196.971 526.1 c 0
 248.84 553.72 312.644 551.001 369.999 551.001 c 2
 386.999 551.001 l 1
 386.999 565.001 l 2
 386.999 584.589 386.634 605.219 374.2 624.597 c 0
 361.1 645.015 336.794 659.022 300.518 659.022 c 0
 260.387 659.022 218.034 643.693 192 608 c 1
 152 656 l 1
390 491 m 1
 371.001 490.999 l 2
 340.995 490.999 302.243 493.161 271.691 487.741 c 0
 220.557 478.671 202.866 447.249 202.866 422.154 c 0
 202.866 389.706 231.215 360.688 275.851 360.688 c 0
 311.446 360.688 343.688 377.898 364.27 397.046 c 0
 389.322 420.354 390 444.06 390 471 c 2
 390 491 l 1
98.001 238.999 m 1
 503.001 238.999 l 1
 503.001 175.999 l 1
 98.001 175.999 l 1
 98.001 238.999 l 1
EndSplineSet
Validated: 33
EndChar

StartChar: guillemotleft
Encoding: 171 171 107
Width: 600
GlyphClass: 2
Flags: W
LayerCount: 2
Fore
SplineSet
298 293 m 1
 474 464 l 1
 519 416 l 1
 379 279 l 1
 527 117 l 1
 481 71 l 1
 298 266 l 1
 298 293 l 1
88 293 m 1
 264 464 l 1
 309 416 l 1
 169 279 l 1
 317 117 l 1
 271 71 l 1
 88 266 l 1
 88 293 l 1
EndSplineSet
Validated: 1
EndChar

StartChar: logicalnot
Encoding: 172 172 108
Width: 600
GlyphClass: 2
Flags: W
LayerCount: 2
Fore
SplineSet
116 402 m 1
 490 402 l 1
 490 182 l 1
 416 182 l 1
 416 329 l 1
 116 329 l 1
 116 402 l 1
EndSplineSet
Validated: 1
EndChar

StartChar: softhyphen
Encoding: 173 173 109
Width: 600
GlyphClass: 2
Flags: W
LayerCount: 2
Fore
SplineSet
92 403 m 1
 509 403 l 1
 509 326 l 1
 92 326 l 1
 92 403 l 1
EndSplineSet
Validated: 1
EndChar

StartChar: registered
Encoding: 174 174 110
Width: 600
GlyphClass: 2
Flags: W
LayerCount: 2
Fore
SplineSet
306.307 21.8877 m 0
 152.944 21.8877 25.749 152.286 25.749 317.375 c 0
 25.749 483.34 153.371 614.02 306.766 614.02 c 0
 459.735 614.02 587.017 483.767 587.017 318.262 c 0
 587.017 152.432 459.471 21.8877 306.307 21.8877 c 0
78.7266 317.799 m 0
 78.7266 179.711 182.937 71.9092 307.826 71.9092 c 0
 432.331 71.9092 537.005 179.646 537.005 318.685 c 0
 537.005 457.352 432.659 565 308.143 565 c 0
 183.438 565 78.7266 457.059 78.7266 317.799 c 0
190.001 153.999 m 1
 190.001 491.998 l 1
 299.001 491.998 l 2
 324.844 491.998 351.992 491.819 378.65 480.54 c 0
 417.746 463.998 439.001 429.49 439.001 393.728 c 0
 439.001 352.648 411.133 316.255 371.001 304.999 c 1
 446.001 159.999 l 1
 391.001 151.999 l 1
 319.001 296.999 l 1
 243.001 296.999 l 1
 243.001 153.999 l 1
 190.001 153.999 l 1
243.001 444.998 m 1
 243.002 342.998 l 1
 303.002 342.998 l 2
 322.022 342.998 344.799 342.904 363.19 354.542 c 0
 378.831 364.439 386.002 379.475 386.002 393.689 c 0
 386.002 408.751 377.926 424.773 360.289 434.693 c 0
 341.596 445.208 319.038 444.998 300.001 444.998 c 2
 243.001 444.998 l 1
EndSplineSet
Validated: 33
EndChar

StartChar: macron
Encoding: 175 175 111
Width: 600
GlyphClass: 2
Flags: W
LayerCount: 2
Fore
SplineSet
153 720 m 1
 447 720 l 1
 447 655 l 1
 153 655 l 1
 153 720 l 1
EndSplineSet
Validated: 1
EndChar

StartChar: degree
Encoding: 176 176 112
Width: 600
GlyphClass: 2
Flags: W
LayerCount: 2
Fore
SplineSet
463.001 584.452 m 0
 463.001 498.746 392.957 428.901 306.438 428.901 c 0
 219.963 428.901 149.901 498.734 149.901 584.477 c 0
 149.901 670.167 219.933 740.008 306.437 740.008 c 0
 392.955 740.008 463.001 670.157 463.001 584.452 c 0
307.635 679 m 0
 260.519 679 220.978 638.291 220.978 585.821 c 0
 220.978 533.608 260.369 492.877 307.592 492.877 c 0
 354.563 492.877 394.082 533.555 394.082 586.13 c 0
 394.082 638.326 354.711 679 307.635 679 c 0
EndSplineSet
Validated: 1
EndChar

StartChar: plusminus
Encoding: 177 177 113
Width: 600
GlyphClass: 2
Flags: W
LayerCount: 2
Fore
SplineSet
63 93 m 1
 540 93 l 1
 540 20 l 1
 63 20 l 1
 63 93 l 1
267 666 m 1
 340 666 l 1
 340 468 l 1
 538 468 l 1
 538 397 l 1
 340 397 l 1
 340 180 l 1
 267 180 l 1
 267 397 l 1
 62 397 l 1
 62 468 l 1
 267 468 l 1
 267 666 l 1
EndSplineSet
Validated: 1
EndChar

StartChar: uni00B2
Encoding: 178 178 114
Width: 600
GlyphClass: 2
Flags: W
LayerCount: 2
Fore
SplineSet
139 642 m 1
 173.775 702.486 238.827 738.289 309.097 738.289 c 0
 401.336 738.289 464.001 678.772 464.001 608.562 c 0
 464.001 553.701 426.301 516.005 409.841 500.835 c 0
 363.815 458.418 299.74 428.353 234.999 356.001 c 1
 445.999 356.001 l 2
 451.283 356.001 453.691 356.742 458.392 360.795 c 0
 460.8 362.872 466.479 368.497 474 366.001 c 1
 474 293.001 l 1
 150 293.001 l 1
 150 344.001 l 1
 214.555 433.276 299.669 489.779 334.371 517.997 c 0
 367.994 545.339 394.114 573.312 394.114 608.167 c 0
 394.114 644.933 362.276 678.918 306.876 678.918 c 0
 262.373 678.918 224.551 655.763 204.174 629.982 c 0
 197.924 622.076 198.745 616.904 193 606 c 1
 139 642 l 1
EndSplineSet
Validated: 33
EndChar

StartChar: uni00B3
Encoding: 179 179 115
Width: 600
GlyphClass: 2
Flags: W
LayerCount: 2
Fore
SplineSet
308.545 739.11 m 0
 394.884 739.11 460.211 681.246 460.211 614.549 c 0
 460.211 572.149 433.43 536.233 395.002 523.998 c 1
 444.062 515.326 480.003 473.421 480.003 424.667 c 0
 480.003 348.941 397.313 290.988 304.905 290.988 c 0
 241.7 290.988 181.601 318.47 140.002 365.999 c 1
 194.002 425.999 l 1
 204.214 415.152 199.363 404.246 210.156 393.713 c 0
 216.259 387.756 251.227 355.986 306.08 355.986 c 0
 362.891 355.986 408.455 389.769 408.455 431.009 c 0
 408.455 452.324 395.327 495.102 306.638 495.102 c 0
 294.628 495.102 283.184 494.368 272.001 493 c 1
 272.001 551 l 1
 279.637 550.271 287.302 549.895 294.973 549.895 c 0
 370.89 549.895 391.541 582.897 391.541 609.503 c 0
 391.541 644.173 357.16 678.039 305.042 678.039 c 0
 265.851 678.039 224.827 658.778 197 624.001 c 1
 155 667.001 l 1
 193.931 713.016 250.216 739.11 308.545 739.11 c 0
EndSplineSet
Validated: 1
EndChar

StartChar: Zcaron
Encoding: 381 381 116
Width: 600
GlyphClass: 2
Flags: W
LayerCount: 2
Fore
SplineSet
470 875 m 1
 318 760 l 1
 293 760 l 1
 150 873 l 1
 188 917 l 1
 308 835 l 1
 437 914 l 1
 470 875 l 1
82 722 m 1
 528 722 l 1
 527 665 l 1
 170 71 l 1
 511 71 l 2
 527.142 71 531.579 80.1396 546 78 c 1
 546 -1 l 1
 68 -1 l 1
 68 56 l 1
 432 649 l 1
 82 649 l 1
 82 722 l 1
EndSplineSet
Validated: 33
EndChar

StartChar: micro
Encoding: 181 181 117
Width: 600
GlyphClass: 2
Flags: W
LayerCount: 2
Fore
SplineSet
38 -193 m 1
 38.9385 -58.9863 60.998 87.3193 60.998 234.001 c 2
 60.998 529.001 l 1
 136.998 529.001 l 1
 136.998 215.001 l 2
 136.998 180.231 138.183 147.142 154.246 114.566 c 0
 174.858 72.7666 211.804 49.9863 248.659 49.9863 c 0
 290.594 49.9863 331.56 78.8877 352.025 125.635 c 0
 365.241 155.819 366.998 186.456 366.998 222.001 c 2
 366.998 529.001 l 1
 440.998 529.001 l 1
 440.998 134.001 l 2
 440.998 116.207 440.842 95.0254 450.742 77.626 c 0
 459.415 62.3828 473.239 54.8672 487.236 54.8672 c 0
 526.512 54.8672 550.999 111.001 550.999 111.001 c 1
 581.999 52.001 l 1
 559.817 18.1191 523.188 -12.1016 480.236 -12.1016 c 0
 431.192 -12.1016 391.479 28.1357 385 78.001 c 1
 358.195 22.6025 302.55 -13.0039 242.87 -13.0039 c 0
 186.505 -13.0039 135.089 18.999 111 70 c 1
 111.199 -18.0234 110.861 -105.668 110 -193 c 1
 38 -193 l 1
EndSplineSet
Validated: 33
EndChar

StartChar: paragraph
Encoding: 182 182 118
Width: 600
GlyphClass: 2
Flags: W
LayerCount: 2
Fore
SplineSet
515 771 m 1
 515.002 -79.002 l 1
 448.002 -79.002 l 1
 448.002 704.998 l 1
 360.002 704.998 l 1
 360.002 -79.002 l 1
 291.002 -79.002 l 1
 291.002 372.998 l 1
 173.558 380.689 83.9434 470.145 83.9434 574.544 c 0
 83.9434 645.649 125.969 713.383 202.88 746.684 c 0
 258.506 770.77 316.231 771 370 771 c 2
 515 771 l 1
EndSplineSet
Validated: 1
EndChar

StartChar: periodcentered
Encoding: 183 183 119
Width: 600
GlyphClass: 2
Flags: W
LayerCount: 2
Fore
SplineSet
355.002 383.493 m 0
 355.002 347.009 324.552 316.954 286.441 316.954 c 0
 248.415 316.954 217.952 346.98 217.952 383.509 c 0
 217.952 419.963 248.383 450.002 286.462 450.002 c 0
 324.556 450.002 355.002 419.961 355.002 383.493 c 0
EndSplineSet
Validated: 1
EndChar

StartChar: zcaron
Encoding: 382 382 120
Width: 600
GlyphClass: 2
Flags: W
LayerCount: 2
Fore
SplineSet
447 763 m 1
 318 600 l 1
 293 600 l 1
 165 764 l 1
 219 804 l 1
 309 685 l 1
 403 803 l 1
 447 763 l 1
92 530 m 1
 504 530 l 1
 504 473 l 1
 181 71 l 1
 496 71 l 2
 512.142 71 516.579 80.1396 531 78 c 1
 531 -1 l 1
 68 -1 l 1
 68 56 l 1
 396 457 l 1
 92 457 l 1
 92 530 l 1
EndSplineSet
Validated: 33
EndChar

StartChar: uni00B9
Encoding: 185 185 121
Width: 600
GlyphClass: 2
Flags: W
LayerCount: 2
Fore
SplineSet
356 733 m 1
 356 293 l 1
 282 293 l 1
 282 641 l 1
 170 612 l 1
 151 648 l 1
 306 733 l 1
 356 733 l 1
EndSplineSet
Validated: 1
EndChar

StartChar: ordmasculine
Encoding: 186 186 122
Width: 600
GlyphClass: 2
Flags: W
LayerCount: 2
Fore
SplineSet
301.826 721.011 m 0
 385.224 721.011 470.107 653.807 470.107 514.755 c 0
 470.107 364.792 379.364 296.939 294.599 296.939 c 0
 202.824 296.939 120.827 374.445 120.827 500.868 c 0
 120.827 633.778 205.502 721.011 301.826 721.011 c 0
190.986 506.213 m 0
 190.986 409.195 244.899 363.924 296.394 363.924 c 0
 345.93 363.924 401 406.472 401 506.206 c 0
 401 605.508 349.544 655.999 296.205 655.999 c 0
 243.333 655.999 190.986 606.056 190.986 506.213 c 0
97.999 238.999 m 1
 502.999 238.999 l 1
 502.999 175.999 l 1
 97.999 175.999 l 1
 97.999 238.999 l 1
EndSplineSet
Validated: 1
EndChar

StartChar: guillemotright
Encoding: 187 187 123
Width: 600
GlyphClass: 2
Flags: W
LayerCount: 2
Fore
SplineSet
317 293 m 1
 141 464 l 1
 96 416 l 1
 236 279 l 1
 88 117 l 1
 134 71 l 1
 317 266 l 1
 317 293 l 1
527 293 m 1
 351 464 l 1
 306 416 l 1
 446 279 l 1
 298 117 l 1
 344 71 l 1
 527 266 l 1
 527 293 l 1
EndSplineSet
Validated: 9
EndChar

StartChar: OE
Encoding: 338 338 124
Width: 600
GlyphClass: 2
Flags: W
LayerCount: 2
Fore
SplineSet
303 690 m 1
 302.999 722.999 l 1
 570.999 722.999 l 1
 570.999 650.999 l 1
 374.999 650.999 l 1
 374.999 413.999 l 1
 540.999 413.999 l 1
 540.999 339.999 l 1
 374.999 339.999 l 1
 374.999 71.999 l 1
 567.999 71.999 l 1
 567.999 -0.000976562 l 1
 301.999 -0.000976562 l 1
 301.999 35.999 l 1
 278.696 7.88574 244.099 -8.08789 207.296 -8.08789 c 0
 150.139 -8.08789 80.2578 30.5801 47.0557 139.126 c 0
 42.7402 153.235 20.79 225.823 20.79 361.821 c 0
 20.79 459.096 28.5986 542.925 59.6631 615.563 c 0
 98.0645 705.359 160.916 732.002 207.762 732.002 c 0
 243.98 732.002 278.474 716.617 303 690 c 1
94.9746 375.778 m 0
 94.9746 343.46 94.9492 221.604 127.295 142.577 c 0
 153.346 78.9287 191.362 62.9834 217.459 62.9834 c 0
 257.505 62.9834 290.623 98.6045 301.999 150 c 1
 301.999 562 l 1
 289.633 601.236 259.886 665.004 207.67 665.004 c 0
 173.505 665.004 138.57 636.141 117.536 573.058 c 0
 110.44 551.778 94.9746 498.334 94.9746 375.778 c 0
EndSplineSet
Validated: 33
EndChar

StartChar: oe
Encoding: 339 339 125
Width: 600
GlyphClass: 2
Flags: W
LayerCount: 2
Fore
SplineSet
197.072 540.057 m 0
 240.284 540.057 279.951 520.669 304.999 487.002 c 1
 334.47 520.962 377.35 540.074 422.222 540.074 c 0
 475.911 540.074 535.758 511.908 562.004 440.152 c 0
 580.681 389.091 577.999 326.963 577.999 269.003 c 2
 577.999 256.003 l 1
 313.999 256.003 l 1
 314.608 182.932 318.121 148.322 330.688 119.843 c 0
 351.231 73.2822 394.066 53.9521 437.271 53.9521 c 0
 470.728 53.9521 512.336 65.2314 542 99.002 c 1
 583 49.002 l 1
 544.141 8.98145 490.715 -13.627 434.895 -13.627 c 0
 386.721 -13.627 340.059 3.22266 303 34.002 c 1
 271.715 5.40332 230.291 -13.0244 188.332 -13.0244 c 0
 142.262 -13.0244 83.79 10.4297 49.2461 81.4238 c 0
 21.2949 138.868 16.9922 213.135 16.9922 274.023 c 0
 16.9922 327.286 21.0078 390.061 49.5869 444.004 c 0
 83.9795 508.918 142.433 540.057 197.072 540.057 c 0
314.999 322.002 m 1
 508.999 322.002 l 1
 508.999 332.002 l 2
 508.999 366.279 509.723 402.652 491.453 433.149 c 0
 473.763 462.679 442.709 476.794 412.737 476.794 c 0
 382.558 476.794 345.108 462.075 327.261 414.08 c 0
 324.696 407.184 313.855 377.198 314.999 322.002 c 1
86.9277 285.094 m 0
 86.9277 245.959 89.3105 188.589 103.745 142.739 c 0
 123.419 80.2471 163.53 57.833 198.357 57.833 c 0
 227.309 57.833 256.517 74.249 256.517 103.2 c 0
 256.517 118.216 241.95 172.812 241.95 273.517 c 0
 241.95 359.741 252.374 403.188 252.374 419.748 c 0
 252.374 450.248 226.516 470.078 196.281 470.078 c 0
 163.479 470.078 128.257 447.488 107.572 402.841 c 0
 89.1689 363.119 86.9277 317.748 86.9277 285.094 c 0
EndSplineSet
Validated: 33
EndChar

StartChar: Ydieresis
Encoding: 376 376 126
Width: 600
GlyphClass: 2
Flags: W
LayerCount: 2
Fore
SplineSet
252.019 855.498 m 0
 252.019 823.211 225.789 796.981 193.502 796.981 c 0
 161.212 796.981 134.981 823.209 134.981 855.499 c 0
 134.981 887.789 161.21 914.019 193.5 914.019 c 0
 225.79 914.019 252.019 887.789 252.019 855.498 c 0
458.002 855.512 m 0
 458.002 823.168 431.956 796.991 400.005 796.991 c 0
 368.061 796.991 341.998 823.155 341.998 855.514 c 0
 341.998 887.862 368.052 914.035 400.008 914.035 c 0
 431.936 914.035 458.002 887.877 458.002 855.512 c 0
43 723 m 1
 135 723 l 1
 312 372 l 1
 472 722 l 1
 558 722 l 1
 353 285 l 1
 353 0 l 1
 265 0 l 1
 265 285 l 1
 43 723 l 1
EndSplineSet
Validated: 1
EndChar

StartChar: questiondown
Encoding: 191 191 127
Width: 600
GlyphClass: 2
Flags: W
LayerCount: 2
Fore
SplineSet
220.157 704.477 m 0
 220.157 740.96 250.607 771.015 288.718 771.015 c 0
 326.744 771.015 357.207 740.988 357.207 704.46 c 0
 357.207 668.006 326.776 637.967 288.697 637.967 c 0
 250.603 637.967 220.157 668.008 220.157 704.477 c 0
517.159 105.969 m 1
 466.734 28.2783 380.522 -15.0908 293.757 -15.0908 c 0
 162.46 -15.0908 87.9189 81.3359 87.9189 189.33 c 0
 87.9189 298.213 164.513 342.303 202.755 376.293 c 0
 250.467 418.7 253.159 453.134 253.159 493.969 c 2
 253.159 541.969 l 1
 329.159 541.969 l 1
 329.159 493.969 l 2
 329.159 441.955 325.899 401.163 274.71 344.956 c 0
 239.688 306.501 179.583 259.173 179.583 183.26 c 0
 179.583 114.787 232.211 60.8164 301.525 60.8164 c 0
 360.113 60.8164 421.617 99.8574 458.159 160.969 c 1
 517.159 105.969 l 1
EndSplineSet
Validated: 1
EndChar

StartChar: Agrave
Encoding: 192 192 128
Width: 600
GlyphClass: 2
Flags: W
LayerCount: 2
Fore
SplineSet
220 917 m 1
 174 836 l 1
 370 765 l 1
 397 813 l 1
 220 917 l 1
27 -1 m 1
 282 735 l 1
 291 735 l 1
 570 0 l 1
 486 0 l 1
 406 211 l 1
 177 211 l 1
 107 -1 l 1
 27 -1 l 1
388 274 m 1
 286 549 l 1
 193 274 l 1
 388 274 l 1
EndSplineSet
Validated: 9
EndChar

StartChar: Aacute
Encoding: 193 193 129
Width: 600
GlyphClass: 2
Flags: W
LayerCount: 2
Fore
SplineSet
367 917 m 1
 413 836 l 1
 217 765 l 1
 190 813 l 1
 367 917 l 1
27 -1 m 1
 282 735 l 1
 291 735 l 1
 570 0 l 1
 486 0 l 1
 406 211 l 1
 177 211 l 1
 107 -1 l 1
 27 -1 l 1
388 274 m 1
 286 549 l 1
 193 274 l 1
 388 274 l 1
EndSplineSet
Validated: 1
EndChar

StartChar: Acircumflex
Encoding: 194 194 130
Width: 600
GlyphClass: 2
Flags: W
LayerCount: 2
Fore
SplineSet
128 802 m 1
 280 917 l 1
 305 917 l 1
 448 804 l 1
 410 760 l 1
 290 842 l 1
 161 763 l 1
 128 802 l 1
27 -1 m 1
 282 735 l 1
 291 735 l 1
 570 0 l 1
 486 0 l 1
 406 211 l 1
 177 211 l 1
 107 -1 l 1
 27 -1 l 1
388 274 m 1
 286 549 l 1
 193 274 l 1
 388 274 l 1
EndSplineSet
Validated: 1
EndChar

StartChar: Atilde
Encoding: 195 195 131
Width: 600
GlyphClass: 2
Flags: W
LayerCount: 2
Fore
SplineSet
162 792 m 1
 110 829 l 1
 152.86 896.837 195.854 929.268 241.029 929.268 c 0
 287.862 929.268 318.97 895.067 333.861 879.55 c 0
 352.642 859.979 370.041 842.93 391.658 842.93 c 0
 420.237 842.93 433.799 869.991 459 904 c 1
 502 858 l 1
 461.944 808.14 430.39 775.754 387.65 775.754 c 0
 320.264 775.754 288.884 863.432 237.844 863.432 c 0
 207.153 863.432 189.763 836.786 162 792 c 1
27 -1 m 1
 282 735 l 1
 291 735 l 1
 570 0 l 1
 486 0 l 1
 406 211 l 1
 177 211 l 1
 107 -1 l 1
 27 -1 l 1
388 274 m 1
 286 549 l 1
 193 274 l 1
 388 274 l 1
EndSplineSet
Validated: 1
EndChar

StartChar: Adieresis
Encoding: 196 196 132
Width: 600
GlyphClass: 2
Flags: W
LayerCount: 2
Fore
SplineSet
244.019 855.498 m 0
 244.019 823.211 217.789 796.981 185.502 796.981 c 0
 153.212 796.981 126.981 823.209 126.981 855.499 c 0
 126.981 887.789 153.21 914.019 185.5 914.019 c 0
 217.79 914.019 244.019 887.789 244.019 855.498 c 0
450.002 855.512 m 0
 450.002 823.168 423.956 796.991 392.005 796.991 c 0
 360.061 796.991 333.998 823.155 333.998 855.514 c 0
 333.998 887.862 360.052 914.035 392.008 914.035 c 0
 423.936 914.035 450.002 887.877 450.002 855.512 c 0
27 -1 m 1
 282 735 l 1
 291 735 l 1
 570 0 l 1
 486 0 l 1
 406 211 l 1
 177 211 l 1
 107 -1 l 1
 27 -1 l 1
388 274 m 1
 286 549 l 1
 193 274 l 1
 388 274 l 1
EndSplineSet
Validated: 1
EndChar

StartChar: Aring
Encoding: 197 197 133
Width: 600
GlyphClass: 2
Flags: W
LayerCount: 2
Fore
SplineSet
394.005 818.997 m 0
 394.005 763.145 347.039 716.958 287.924 716.958 c 0
 228.95 716.958 181.921 763.101 181.921 819.065 c 0
 181.921 874.856 228.86 921.005 287.911 921.005 c 0
 347.013 921.005 394.005 874.837 394.005 818.997 c 0
240.914 819.774 m 0
 240.914 790.11 262.627 766.896 288.995 766.896 c 0
 315.032 766.896 337.035 789.837 337.035 820.068 c 0
 337.035 849.828 315.332 873.012 289.022 873.012 c 0
 263 873.012 240.914 850.072 240.914 819.774 c 0
27 -1 m 1
 282 735 l 1
 291 735 l 1
 570 0 l 1
 486 0 l 1
 406 211 l 1
 177 211 l 1
 107 -1 l 1
 27 -1 l 1
388 274 m 1
 286 549 l 1
 193 274 l 1
 388 274 l 1
EndSplineSet
Validated: 5
EndChar

StartChar: AE
Encoding: 198 198 134
Width: 600
GlyphClass: 2
Flags: W
LayerCount: 2
Fore
SplineSet
242 723 m 1
 571 723 l 1
 571 651 l 1
 370 651 l 1
 372 414 l 1
 541 414 l 1
 541 340 l 1
 373 340 l 1
 375 72 l 1
 568 72 l 1
 568 0 l 1
 302 0 l 1
 302 196 l 1
 151 196 l 1
 89 0 l 1
 15 0 l 1
 242 723 l 1
302 651 m 1
 289 651 l 1
 168 263 l 1
 302 263 l 1
 302 651 l 1
EndSplineSet
Validated: 1
EndChar

StartChar: Ccedilla
Encoding: 199 199 135
Width: 600
GlyphClass: 2
Flags: W
LayerCount: 2
Fore
SplineSet
313 0 m 1
 363 0 l 1
 357 -55 l 1
 376 -56 l 2
 390.785 -56.7783 405.994 -57.7168 420.883 -64.9414 c 0
 442.973 -75.6602 455.07 -96.4922 455.07 -118.956 c 0
 455.07 -160.352 414.433 -205.092 329.389 -205.092 c 0
 284.871 -205.092 235.296 -192.447 192 -162 c 1
 221 -114 l 1
 257.397 -143.353 301.031 -155.011 336.064 -155.011 c 0
 381.118 -155.011 389.002 -136.826 389.002 -126.739 c 0
 389.002 -119.915 385.46 -112.176 376.38 -106.611 c 0
 363.902 -98.9639 347.2 -99 334 -99 c 2
 300 -99 l 1
 313 0 l 1
331.618 728 m 0
 427.542 728 514.176 672.042 553 585 c 1
 476 547 l 1
 470.67 550.736 470.716 557.019 470.716 558.375 c 0
 470.716 561.257 471.207 564.142 471.207 567.016 c 0
 471.207 572.403 469.516 575.396 467.216 579.368 c 0
 438.075 629.699 385.397 663.168 328.882 663.168 c 0
 226.816 663.168 135.987 555.779 135.987 363.969 c 0
 135.987 168.839 229.418 57.9941 335.655 57.9941 c 0
 392.317 57.9941 449.702 90.8848 483 146 c 1
 543 107 l 1
 497.694 32.9785 417.217 -12.002 331.109 -12.002 c 0
 212.178 -12.002 56.9668 77.8506 56.9668 356.807 c 0
 56.9668 645.838 219.327 728 331.618 728 c 0
EndSplineSet
Validated: 37
EndChar

StartChar: Egrave
Encoding: 200 200 136
Width: 600
GlyphClass: 2
Flags: W
LayerCount: 2
Fore
SplineSet
220 917 m 1
 174 836 l 1
 370 765 l 1
 397 813 l 1
 220 917 l 1
78 723 m 1
 521 723 l 1
 521 651 l 1
 155 651 l 1
 155 414 l 1
 457 414 l 1
 457 340 l 1
 155 340 l 1
 155 72 l 1
 518 72 l 1
 518 0 l 1
 78 0 l 1
 78 723 l 1
EndSplineSet
Validated: 9
EndChar

StartChar: Eacute
Encoding: 201 201 137
Width: 600
GlyphClass: 2
Flags: W
LayerCount: 2
Fore
SplineSet
387 917 m 1
 433 836 l 1
 237 765 l 1
 210 813 l 1
 387 917 l 1
78 723 m 1
 521 723 l 1
 521 651 l 1
 155 651 l 1
 155 414 l 1
 457 414 l 1
 457 340 l 1
 155 340 l 1
 155 72 l 1
 518 72 l 1
 518 0 l 1
 78 0 l 1
 78 723 l 1
EndSplineSet
Validated: 1
EndChar

StartChar: Ecircumflex
Encoding: 202 202 138
Width: 600
GlyphClass: 2
Flags: W
LayerCount: 2
Fore
SplineSet
138 802 m 1
 290 917 l 1
 315 917 l 1
 458 804 l 1
 420 760 l 1
 300 842 l 1
 171 763 l 1
 138 802 l 1
78 723 m 1
 521 723 l 1
 521 651 l 1
 155 651 l 1
 155 414 l 1
 457 414 l 1
 457 340 l 1
 155 340 l 1
 155 72 l 1
 518 72 l 1
 518 0 l 1
 78 0 l 1
 78 723 l 1
EndSplineSet
Validated: 1
EndChar

StartChar: Edieresis
Encoding: 203 203 139
Width: 600
GlyphClass: 2
Flags: W
LayerCount: 2
Fore
SplineSet
252.019 855.498 m 0
 252.019 823.211 225.789 796.981 193.502 796.981 c 0
 161.212 796.981 134.981 823.209 134.981 855.499 c 0
 134.981 887.789 161.21 914.019 193.5 914.019 c 0
 225.79 914.019 252.019 887.789 252.019 855.498 c 0
458.002 855.512 m 0
 458.002 823.168 431.956 796.991 400.005 796.991 c 0
 368.061 796.991 341.998 823.155 341.998 855.514 c 0
 341.998 887.862 368.052 914.035 400.008 914.035 c 0
 431.936 914.035 458.002 887.877 458.002 855.512 c 0
78 723 m 1
 521 723 l 1
 521 651 l 1
 155 651 l 1
 155 414 l 1
 457 414 l 1
 457 340 l 1
 155 340 l 1
 155 72 l 1
 518 72 l 1
 518 0 l 1
 78 0 l 1
 78 723 l 1
EndSplineSet
Validated: 1
EndChar

StartChar: Igrave
Encoding: 204 204 140
Width: 600
GlyphClass: 2
Flags: W
LayerCount: 2
Fore
SplineSet
220 917 m 1
 174 836 l 1
 370 765 l 1
 397 813 l 1
 220 917 l 1
112 722 m 1
 470 722 l 1
 470 654 l 1
 327 654 l 1
 327 66 l 1
 477 66 l 1
 477 -1 l 1
 104 -1 l 1
 104 67 l 1
 246 67 l 1
 246 654 l 1
 112 654 l 1
 112 722 l 1
EndSplineSet
Validated: 9
EndChar

StartChar: Iacute
Encoding: 205 205 141
Width: 600
GlyphClass: 2
Flags: W
LayerCount: 2
Fore
SplineSet
387 917 m 1
 433 836 l 1
 237 765 l 1
 210 813 l 1
 387 917 l 1
112 722 m 1
 470 722 l 1
 470 654 l 1
 327 654 l 1
 327 66 l 1
 477 66 l 1
 477 -1 l 1
 104 -1 l 1
 104 67 l 1
 246 67 l 1
 246 654 l 1
 112 654 l 1
 112 722 l 1
EndSplineSet
Validated: 1
EndChar

StartChar: Icircumflex
Encoding: 206 206 142
Width: 600
GlyphClass: 2
Flags: W
LayerCount: 2
Fore
SplineSet
127 802 m 1
 279 917 l 1
 304 917 l 1
 447 804 l 1
 409 760 l 1
 289 842 l 1
 160 763 l 1
 127 802 l 1
112 722 m 1
 470 722 l 1
 470 654 l 1
 327 654 l 1
 327 66 l 1
 477 66 l 1
 477 -1 l 1
 104 -1 l 1
 104 67 l 1
 246 67 l 1
 246 654 l 1
 112 654 l 1
 112 722 l 1
EndSplineSet
Validated: 1
EndChar

StartChar: Idieresis
Encoding: 207 207 143
Width: 600
GlyphClass: 2
Flags: W
LayerCount: 2
Fore
SplineSet
248.019 855.498 m 0
 248.019 823.211 221.789 796.981 189.502 796.981 c 0
 157.212 796.981 130.981 823.209 130.981 855.499 c 0
 130.981 887.789 157.21 914.019 189.5 914.019 c 0
 221.79 914.019 248.019 887.789 248.019 855.498 c 0
454.002 855.512 m 0
 454.002 823.168 427.956 796.991 396.005 796.991 c 0
 364.061 796.991 337.998 823.155 337.998 855.514 c 0
 337.998 887.862 364.052 914.035 396.008 914.035 c 0
 427.936 914.035 454.002 887.877 454.002 855.512 c 0
112 722 m 1
 470 722 l 1
 470 654 l 1
 327 654 l 1
 327 66 l 1
 477 66 l 1
 477 -1 l 1
 104 -1 l 1
 104 67 l 1
 246 67 l 1
 246 654 l 1
 112 654 l 1
 112 722 l 1
EndSplineSet
Validated: 1
EndChar

StartChar: Eth
Encoding: 208 208 144
Width: 600
GlyphClass: 2
Flags: W
LayerCount: 2
Fore
SplineSet
101 722 m 1
 263 721.998 l 2
 325.631 721.998 375.745 716.4 426.079 679.129 c 0
 512.98 614.781 550.114 487.959 550.114 365.113 c 0
 550.114 211.219 490.967 72.9824 379.856 21.249 c 0
 338.864 2.16309 300.228 -1 249 -1 c 2
 101 -1 l 1
 101 722 l 1
176 653.998 m 1
 176 65.998 l 1
 245 65.998 l 2
 286.258 65.998 324.723 68.2363 365.552 95.7949 c 0
 435.377 142.925 472.256 240.808 472.256 355.088 c 0
 472.256 435.564 454.827 524.972 411.342 584.515 c 0
 362.021 652.048 302.634 653.998 258 653.998 c 2
 176 653.998 l 1
45 415.998 m 1
 297 415.998 l 1
 297 348.998 l 1
 45 348.998 l 1
 45 415.998 l 1
EndSplineSet
Validated: 5
EndChar

StartChar: Ntilde
Encoding: 209 209 145
Width: 600
GlyphClass: 2
Flags: W
LayerCount: 2
Fore
SplineSet
167 792 m 1
 115 829 l 1
 157.86 896.837 200.854 929.268 246.029 929.268 c 0
 292.862 929.268 323.97 895.067 338.861 879.55 c 0
 357.642 859.979 375.041 842.93 396.658 842.93 c 0
 425.237 842.93 438.799 869.991 464 904 c 1
 507 858 l 1
 466.944 808.14 435.39 775.754 392.65 775.754 c 0
 325.264 775.754 293.884 863.432 242.844 863.432 c 0
 212.153 863.432 194.763 836.786 167 792 c 1
68 0 m 1
 68 722 l 1
 147 722 l 1
 450 187 l 1
 450 723 l 1
 536 723 l 1
 536.929 716.255 533.916 710.683 532.621 708.22 c 0
 529.844 702.938 528 700.058 528 692 c 2
 528 -1 l 1
 464 -1 l 1
 146 568 l 1
 146 0 l 1
 68 0 l 1
EndSplineSet
Validated: 1
EndChar

StartChar: Ograve
Encoding: 210 210 146
Width: 600
GlyphClass: 2
Flags: W
LayerCount: 2
Fore
SplineSet
220 917 m 1
 174 836 l 1
 370 765 l 1
 397 813 l 1
 220 917 l 1
556.008 359.504 m 0
 556.008 296.095 551.428 206.273 513.069 128.645 c 0
 465.538 32.457 382.426 -11.0146 304.485 -11.0146 c 0
 193.976 -11.0146 44 78.3984 44 362.113 c 0
 44 645.884 196.081 730 303.761 730 c 0
 382.353 730 464.443 686.67 511.792 593.902 c 0
 551.172 516.748 556.008 427.05 556.008 359.504 c 0
300.361 654.01 m 0
 224.496 654.01 123.971 587.911 123.971 372.659 c 0
 123.971 143.053 223.619 67.9873 304.834 67.9873 c 0
 353.415 67.9873 409.355 95.4453 442.765 165.717 c 0
 472.355 227.951 475.085 301.614 475.085 348.897 c 0
 475.085 410.01 471.386 479.154 446.984 539.849 c 0
 413.335 623.543 351.591 654.01 300.361 654.01 c 0
EndSplineSet
Validated: 9
EndChar

StartChar: Oacute
Encoding: 211 211 147
Width: 600
GlyphClass: 2
Flags: W
LayerCount: 2
Fore
SplineSet
387 917 m 1
 433 836 l 1
 237 765 l 1
 210 813 l 1
 387 917 l 1
556.008 359.504 m 0
 556.008 296.095 551.428 206.273 513.069 128.645 c 0
 465.538 32.457 382.426 -11.0146 304.485 -11.0146 c 0
 193.976 -11.0146 44 78.3984 44 362.113 c 0
 44 645.884 196.081 730 303.761 730 c 0
 382.353 730 464.443 686.67 511.792 593.902 c 0
 551.172 516.748 556.008 427.05 556.008 359.504 c 0
300.361 654.01 m 0
 224.496 654.01 123.971 587.911 123.971 372.659 c 0
 123.971 143.053 223.619 67.9873 304.834 67.9873 c 0
 353.415 67.9873 409.355 95.4453 442.765 165.717 c 0
 472.355 227.951 475.085 301.614 475.085 348.897 c 0
 475.085 410.01 471.386 479.154 446.984 539.849 c 0
 413.335 623.543 351.591 654.01 300.361 654.01 c 0
EndSplineSet
Validated: 1
EndChar

StartChar: Ocircumflex
Encoding: 212 212 148
Width: 600
GlyphClass: 2
Flags: W
LayerCount: 2
Fore
SplineSet
141 802 m 1
 293 917 l 1
 318 917 l 1
 461 804 l 1
 423 760 l 1
 303 842 l 1
 174 763 l 1
 141 802 l 1
556.008 359.504 m 0
 556.008 296.095 551.428 206.273 513.069 128.645 c 0
 465.538 32.457 382.426 -11.0146 304.485 -11.0146 c 0
 193.976 -11.0146 44 78.3984 44 362.113 c 0
 44 645.884 196.081 730 303.761 730 c 0
 382.353 730 464.443 686.67 511.792 593.902 c 0
 551.172 516.748 556.008 427.05 556.008 359.504 c 0
300.361 654.01 m 0
 224.496 654.01 123.971 587.911 123.971 372.659 c 0
 123.971 143.053 223.619 67.9873 304.834 67.9873 c 0
 353.415 67.9873 409.355 95.4453 442.765 165.717 c 0
 472.355 227.951 475.085 301.614 475.085 348.897 c 0
 475.085 410.01 471.386 479.154 446.984 539.849 c 0
 413.335 623.543 351.591 654.01 300.361 654.01 c 0
EndSplineSet
Validated: 1
EndChar

StartChar: Otilde
Encoding: 213 213 149
Width: 600
GlyphClass: 2
Flags: W
LayerCount: 2
Fore
SplineSet
167 792 m 1
 115 829 l 1
 157.86 896.837 200.854 929.268 246.029 929.268 c 0
 292.862 929.268 323.97 895.067 338.861 879.55 c 0
 357.642 859.979 375.041 842.93 396.658 842.93 c 0
 425.237 842.93 438.799 869.991 464 904 c 1
 507 858 l 1
 466.944 808.14 435.39 775.754 392.65 775.754 c 0
 325.264 775.754 293.884 863.432 242.844 863.432 c 0
 212.153 863.432 194.763 836.786 167 792 c 1
556.008 359.504 m 0
 556.008 296.095 551.428 206.273 513.069 128.645 c 0
 465.538 32.457 382.426 -11.0146 304.485 -11.0146 c 0
 193.976 -11.0146 44 78.3984 44 362.113 c 0
 44 645.884 196.081 730 303.761 730 c 0
 382.353 730 464.443 686.67 511.792 593.902 c 0
 551.172 516.748 556.008 427.05 556.008 359.504 c 0
300.361 654.01 m 0
 224.496 654.01 123.971 587.911 123.971 372.659 c 0
 123.971 143.053 223.619 67.9873 304.834 67.9873 c 0
 353.415 67.9873 409.355 95.4453 442.765 165.717 c 0
 472.355 227.951 475.085 301.614 475.085 348.897 c 0
 475.085 410.01 471.386 479.154 446.984 539.849 c 0
 413.335 623.543 351.591 654.01 300.361 654.01 c 0
EndSplineSet
Validated: 1
EndChar

StartChar: Odieresis
Encoding: 214 214 150
Width: 600
GlyphClass: 2
Flags: W
LayerCount: 2
Fore
SplineSet
252.019 855.498 m 0
 252.019 823.211 225.789 796.981 193.502 796.981 c 0
 161.212 796.981 134.981 823.209 134.981 855.499 c 0
 134.981 887.789 161.21 914.019 193.5 914.019 c 0
 225.79 914.019 252.019 887.789 252.019 855.498 c 0
458.002 855.512 m 0
 458.002 823.168 431.956 796.991 400.005 796.991 c 0
 368.061 796.991 341.998 823.155 341.998 855.514 c 0
 341.998 887.862 368.052 914.035 400.008 914.035 c 0
 431.936 914.035 458.002 887.877 458.002 855.512 c 0
556.008 359.504 m 0
 556.008 296.095 551.428 206.273 513.069 128.645 c 0
 465.538 32.457 382.426 -11.0146 304.485 -11.0146 c 0
 193.976 -11.0146 44 78.3984 44 362.113 c 0
 44 645.884 196.081 730 303.761 730 c 0
 382.353 730 464.443 686.67 511.792 593.902 c 0
 551.172 516.748 556.008 427.05 556.008 359.504 c 0
300.361 654.01 m 0
 224.496 654.01 123.971 587.911 123.971 372.659 c 0
 123.971 143.053 223.619 67.9873 304.834 67.9873 c 0
 353.415 67.9873 409.355 95.4453 442.765 165.717 c 0
 472.355 227.951 475.085 301.614 475.085 348.897 c 0
 475.085 410.01 471.386 479.154 446.984 539.849 c 0
 413.335 623.543 351.591 654.01 300.361 654.01 c 0
EndSplineSet
Validated: 1
EndChar

StartChar: multiply
Encoding: 215 215 151
Width: 600
GlyphClass: 2
Flags: W
LayerCount: 2
Fore
SplineSet
453 583 m 1
 508 532 l 1
 357.683 376.932 l 1
 505 221 l 1
 451 168 l 1
 304.762 322.338 l 1
 160 173 l 1
 108 224 l 1
 253.994 375.919 l 1
 108 530 l 1
 163 583 l 1
 306.764 430.829 l 1
 453 583 l 1
EndSplineSet
Validated: 1
EndChar

StartChar: Oslash
Encoding: 216 216 152
Width: 600
GlyphClass: 2
Flags: W
LayerCount: 2
Fore
SplineSet
300.361 654.01 m 0
 224.496 654.01 123.971 587.911 123.971 372.659 c 0
 123.971 281.791 139.578 215.128 163.474 167.742 c 1
 399.759 612.324 l 1
 368.854 641.994 332.534 654.01 300.361 654.01 c 0
556.009 359.504 m 0
 556.009 296.095 551.431 206.271 513.071 128.644 c 0
 465.54 32.4551 382.428 -11.0166 304.486 -11.0166 c 0
 261.835 -11.0166 213.305 2.30273 169.787 34.9707 c 1
 112.001 -73.001 l 1
 52.001 -42.001 l 1
 119.617 85.2217 l 1
 75.1973 143.736 44.001 232.717 44.001 362.113 c 0
 44.001 645.884 196.082 730 303.762 730 c 0
 349.841 730 397.122 715.105 437.898 684.086 c 1
 491.001 784.001 l 1
 553.001 751.001 l 1
 488.972 631.364 l 1
 497.238 619.917 504.886 607.436 511.793 593.902 c 0
 551.173 516.748 556.009 427.05 556.009 359.504 c 0
443.914 547.168 m 1
 208.345 107.009 l 1
 238.637 79.418 273.141 67.9844 304.837 67.9844 c 0
 353.418 67.9844 409.357 95.4434 442.769 165.715 c 0
 472.357 227.949 475.089 301.612 475.089 348.896 c 0
 475.089 410.009 471.39 479.152 446.987 539.848 c 2
 443.914 547.168 l 1
EndSplineSet
Validated: 1
EndChar

StartChar: Ugrave
Encoding: 217 217 153
Width: 600
GlyphClass: 2
Flags: W
LayerCount: 2
Fore
SplineSet
220 917 m 1
 174 836 l 1
 370 765 l 1
 397 813 l 1
 220 917 l 1
68 722 m 1
 159 722 l 1
 159.791 720.163 160.2 718.172 160.2 716.15 c 0
 160.2 709.235 155.631 704.498 152.571 700.195 c 0
 148.296 694.182 148 690.266 148 685 c 2
 148 248 l 2
 148 212.142 148.701 177.155 165.336 141.578 c 0
 191.299 86.0527 245.805 55.9209 303.067 55.9209 c 0
 359.414 55.9209 413.783 85.3438 440.467 140.549 c 0
 458.225 177.288 459 213.693 459 251 c 2
 459 722 l 1
 536 722 l 1
 536 253 l 2
 536 200.192 534.408 150.173 507.085 99.8135 c 0
 466.018 24.125 384.91 -13.0732 301.461 -13.0732 c 0
 216.265 -13.0732 136.155 24.9775 96.1416 99.2168 c 0
 69.4092 148.814 68 197.96 68 249 c 1
 68 249 l 1
 68 722 l 1
EndSplineSet
Validated: 9
EndChar

StartChar: Uacute
Encoding: 218 218 154
Width: 600
GlyphClass: 2
Flags: W
LayerCount: 2
Fore
SplineSet
387 917 m 1
 433 836 l 1
 237 765 l 1
 210 813 l 1
 387 917 l 1
68 722 m 1
 159 722 l 1
 159.791 720.163 160.2 718.172 160.2 716.15 c 0
 160.2 709.235 155.631 704.498 152.571 700.195 c 0
 148.296 694.182 148 690.266 148 685 c 2
 148 248 l 2
 148 212.142 148.701 177.155 165.336 141.578 c 0
 191.299 86.0527 245.805 55.9209 303.067 55.9209 c 0
 359.414 55.9209 413.783 85.3438 440.467 140.549 c 0
 458.225 177.288 459 213.693 459 251 c 2
 459 722 l 1
 536 722 l 1
 536 253 l 2
 536 200.192 534.408 150.173 507.085 99.8135 c 0
 466.018 24.125 384.91 -13.0732 301.461 -13.0732 c 0
 216.265 -13.0732 136.155 24.9775 96.1416 99.2168 c 0
 69.4092 148.814 68 197.96 68 249 c 1
 68 249 l 1
 68 722 l 1
EndSplineSet
Validated: 1
EndChar

StartChar: Ucircumflex
Encoding: 219 219 155
Width: 600
GlyphClass: 2
Flags: W
LayerCount: 2
Fore
SplineSet
141 802 m 1
 293 917 l 1
 318 917 l 1
 461 804 l 1
 423 760 l 1
 303 842 l 1
 174 763 l 1
 141 802 l 1
68 722 m 1
 159 722 l 1
 159.791 720.163 160.2 718.172 160.2 716.15 c 0
 160.2 709.235 155.631 704.498 152.571 700.195 c 0
 148.296 694.182 148 690.266 148 685 c 2
 148 248 l 2
 148 212.142 148.701 177.155 165.336 141.578 c 0
 191.299 86.0527 245.805 55.9209 303.067 55.9209 c 0
 359.414 55.9209 413.783 85.3438 440.467 140.549 c 0
 458.225 177.288 459 213.693 459 251 c 2
 459 722 l 1
 536 722 l 1
 536 253 l 2
 536 200.192 534.408 150.173 507.085 99.8135 c 0
 466.018 24.125 384.91 -13.0732 301.461 -13.0732 c 0
 216.265 -13.0732 136.155 24.9775 96.1416 99.2168 c 0
 69.4092 148.814 68 197.96 68 249 c 1
 68 249 l 1
 68 722 l 1
EndSplineSet
Validated: 1
EndChar

StartChar: Udieresis
Encoding: 220 220 156
Width: 600
GlyphClass: 2
Flags: W
LayerCount: 2
Fore
SplineSet
262.019 855.498 m 0
 262.019 823.211 235.789 796.981 203.502 796.981 c 0
 171.212 796.981 144.981 823.209 144.981 855.499 c 0
 144.981 887.789 171.21 914.019 203.5 914.019 c 0
 235.79 914.019 262.019 887.789 262.019 855.498 c 0
468.002 855.512 m 0
 468.002 823.168 441.956 796.991 410.005 796.991 c 0
 378.061 796.991 351.998 823.155 351.998 855.514 c 0
 351.998 887.862 378.052 914.035 410.008 914.035 c 0
 441.936 914.035 468.002 887.877 468.002 855.512 c 0
68 722 m 1
 159 722 l 1
 159.791 720.163 160.2 718.172 160.2 716.15 c 0
 160.2 709.235 155.631 704.498 152.571 700.195 c 0
 148.296 694.182 148 690.266 148 685 c 2
 148 248 l 2
 148 212.142 148.701 177.155 165.336 141.578 c 0
 191.299 86.0527 245.805 55.9209 303.067 55.9209 c 0
 359.414 55.9209 413.783 85.3438 440.467 140.549 c 0
 458.225 177.288 459 213.693 459 251 c 2
 459 722 l 1
 536 722 l 1
 536 253 l 2
 536 200.192 534.408 150.173 507.085 99.8135 c 0
 466.018 24.125 384.91 -13.0732 301.461 -13.0732 c 0
 216.265 -13.0732 136.155 24.9775 96.1416 99.2168 c 0
 69.4092 148.814 68 197.96 68 249 c 1
 68 249 l 1
 68 722 l 1
EndSplineSet
Validated: 1
EndChar

StartChar: Yacute
Encoding: 221 221 157
Width: 600
GlyphClass: 2
Flags: W
LayerCount: 2
Fore
SplineSet
387 917 m 1
 433 836 l 1
 237 765 l 1
 210 813 l 1
 387 917 l 1
43 723 m 1
 135 723 l 1
 312 372 l 1
 472 722 l 1
 558 722 l 1
 353 285 l 1
 353 0 l 1
 265 0 l 1
 265 285 l 1
 43 723 l 1
EndSplineSet
Validated: 1
EndChar

StartChar: Thorn
Encoding: 222 222 158
Width: 600
GlyphClass: 2
Flags: W
LayerCount: 2
Fore
SplineSet
78 722 m 1
 168.998 722 l 1
 169.519 720.466 169.782 718.85 169.782 717.216 c 0
 169.782 710.792 165.817 706.356 163.315 702.381 c 0
 160.182 697.398 159.998 694.171 159.998 690.001 c 2
 159.998 586.001 l 1
 297.998 586.001 l 2
 344.582 586.001 389.357 584.806 434.622 561.495 c 0
 502.826 526.372 538.015 455.719 538.015 382.7 c 0
 538.015 309.504 502.882 240.353 436.113 206.409 c 0
 392.262 184.116 348.977 183 304 183 c 2
 160 183 l 1
 160 0 l 1
 78 0 l 1
 78 722 l 1
159.998 510 m 1
 159.998 254.001 l 1
 306.998 254.001 l 2
 335.464 254.001 362.991 254.679 390.829 268.764 c 0
 432.657 289.927 455.001 332.944 455.001 378.986 c 0
 455.001 425.985 431.627 471.921 386.617 494.5 c 0
 357.188 509.263 328.163 510 297.998 510 c 2
 159.998 510 l 1
EndSplineSet
Validated: 1
EndChar

StartChar: germandbls
Encoding: 223 223 159
Width: 600
GlyphClass: 2
Flags: W
LayerCount: 2
Fore
SplineSet
74 0 m 1
 73.9971 489.999 l 2
 73.9971 542.806 74.6641 596.233 98.2061 649.709 c 0
 133.728 730.398 208.296 775.003 287.297 775.003 c 0
 402.903 775.003 497.208 681.293 497.208 571.107 c 0
 497.208 504.486 461.898 445.293 404.998 415.999 c 1
 491.889 389.078 548.004 305.6 548.004 209.319 c 0
 548.004 83.4287 454.188 -12.0303 335.409 -12.0303 c 0
 292.773 -12.0303 250.918 0.469727 214.997 23.999 c 1
 255.997 88.999 l 1
 278.146 71.5078 305.637 61.9648 334.042 61.9648 c 0
 407.899 61.9648 471.131 125.49 471.131 209.398 c 0
 471.131 270.28 438.46 323.525 394.788 350.882 c 0
 362.071 371.375 330.751 374 292.999 374 c 2
 257.999 374 l 1
 257.999 440 l 1
 290.999 440 l 2
 308.301 440 324.827 440.514 344.2 449.183 c 0
 387.875 468.726 418.114 518.563 418.114 573.124 c 0
 418.114 649.496 360.646 708.193 291.766 708.193 c 0
 253.833 708.193 213.869 689.799 186.719 650.367 c 0
 153.729 602.454 153 543.204 153 492 c 2
 153 0 l 1
 74 0 l 1
EndSplineSet
Validated: 1
EndChar

StartChar: agrave
Encoding: 224 224 160
Width: 600
GlyphClass: 2
Flags: W
LayerCount: 2
Fore
SplineSet
292 810 m 1
 219 761 l 1
 336 605 l 1
 394 640 l 1
 292 810 l 1
115 467 m 1
 164.456 518.083 232.512 541.055 303.925 541.055 c 0
 386.091 541.055 453.267 510.995 488.008 453.097 c 0
 512.442 412.375 514 371.39 514 328 c 2
 514 0 l 1
 435 0 l 1
 435 58 l 1
 377.24 10.665 309.94 -13.002 244.918 -13.002 c 0
 134.316 -13.002 66.8184 59.1631 66.8184 136.825 c 0
 66.8184 195.507 104.707 257.379 188.205 288.065 c 0
 255.557 312.817 339.023 312 417 312 c 2
 434 312 l 1
 434 331 l 2
 434 359.055 434.409 393.114 416.772 422.078 c 0
 401.83 446.615 370.745 473.031 307.869 473.031 c 0
 258.955 473.031 199.358 459.393 156 414 c 1
 115 467 l 1
437 248 m 1
 418 248 l 2
 362.991 248 292.114 251.465 244.035 239.987 c 0
 177.665 224.143 150.668 180.909 150.668 142.456 c 0
 150.668 95.1367 191.681 50.8145 261.864 50.8145 c 0
 331.199 50.8145 381.823 92.8438 401.058 113.287 c 0
 436.77 151.242 437 185.578 437 213 c 2
 437 248 l 1
EndSplineSet
Validated: 41
EndChar

StartChar: aacute
Encoding: 225 225 161
Width: 600
GlyphClass: 2
Flags: W
LayerCount: 2
Fore
SplineSet
348 810 m 1
 421 761 l 1
 304 605 l 1
 246 640 l 1
 348 810 l 1
115 467 m 1
 164.456 518.083 232.512 541.055 303.925 541.055 c 0
 386.091 541.055 453.267 510.995 488.008 453.097 c 0
 512.442 412.375 514 371.39 514 328 c 2
 514 0 l 1
 435 0 l 1
 435 58 l 1
 377.24 10.665 309.94 -13.002 244.918 -13.002 c 0
 134.316 -13.002 66.8184 59.1631 66.8184 136.825 c 0
 66.8184 195.507 104.707 257.379 188.205 288.065 c 0
 255.557 312.817 339.023 312 417 312 c 2
 434 312 l 1
 434 331 l 2
 434 359.055 434.409 393.114 416.772 422.078 c 0
 401.83 446.615 370.745 473.031 307.869 473.031 c 0
 258.955 473.031 199.358 459.393 156 414 c 1
 115 467 l 1
437 248 m 1
 418 248 l 2
 362.991 248 292.114 251.465 244.035 239.987 c 0
 177.665 224.143 150.668 180.909 150.668 142.456 c 0
 150.668 95.1367 191.681 50.8145 261.864 50.8145 c 0
 331.199 50.8145 381.823 92.8438 401.058 113.287 c 0
 436.77 151.242 437 185.578 437 213 c 2
 437 248 l 1
EndSplineSet
Validated: 33
EndChar

StartChar: acircumflex
Encoding: 226 226 162
Width: 600
GlyphClass: 2
Flags: W
LayerCount: 2
Fore
SplineSet
173 631 m 1
 302 794 l 1
 327 794 l 1
 455 630 l 1
 401 590 l 1
 311 709 l 1
 217 591 l 1
 173 631 l 1
115 467 m 1
 164.456 518.083 232.512 541.055 303.925 541.055 c 0
 386.091 541.055 453.267 510.995 488.008 453.097 c 0
 512.442 412.375 514 371.39 514 328 c 2
 514 0 l 1
 435 0 l 1
 435 58 l 1
 377.24 10.665 309.94 -13.002 244.918 -13.002 c 0
 134.316 -13.002 66.8184 59.1631 66.8184 136.825 c 0
 66.8184 195.507 104.707 257.379 188.205 288.065 c 0
 255.557 312.817 339.023 312 417 312 c 2
 434 312 l 1
 434 331 l 2
 434 359.055 434.409 393.114 416.772 422.078 c 0
 401.83 446.615 370.745 473.031 307.869 473.031 c 0
 258.955 473.031 199.358 459.393 156 414 c 1
 115 467 l 1
437 248 m 1
 418 248 l 2
 362.991 248 292.114 251.465 244.035 239.987 c 0
 177.665 224.143 150.668 180.909 150.668 142.456 c 0
 150.668 95.1367 191.681 50.8145 261.864 50.8145 c 0
 331.199 50.8145 381.823 92.8438 401.058 113.287 c 0
 436.77 151.242 437 185.578 437 213 c 2
 437 248 l 1
EndSplineSet
Validated: 33
EndChar

StartChar: atilde
Encoding: 227 227 163
Width: 600
GlyphClass: 2
Flags: W
LayerCount: 2
Fore
SplineSet
178 646 m 1
 126 683 l 1
 168.86 750.837 211.854 783.268 257.029 783.268 c 0
 303.862 783.268 334.97 749.067 349.861 733.55 c 0
 368.642 713.979 386.041 696.93 407.658 696.93 c 0
 436.237 696.93 449.799 723.991 475 758 c 1
 518 712 l 1
 477.944 662.14 446.39 629.754 403.65 629.754 c 0
 336.264 629.754 304.884 717.432 253.844 717.432 c 0
 223.153 717.432 205.763 690.786 178 646 c 1
115 467 m 1
 164.456 518.083 232.512 541.055 303.925 541.055 c 0
 386.091 541.055 453.267 510.995 488.008 453.097 c 0
 512.442 412.375 514 371.39 514 328 c 2
 514 0 l 1
 435 0 l 1
 435 58 l 1
 377.24 10.665 309.94 -13.002 244.918 -13.002 c 0
 134.316 -13.002 66.8184 59.1631 66.8184 136.825 c 0
 66.8184 195.507 104.707 257.379 188.205 288.065 c 0
 255.557 312.817 339.023 312 417 312 c 2
 434 312 l 1
 434 331 l 2
 434 359.055 434.409 393.114 416.772 422.078 c 0
 401.83 446.615 370.745 473.031 307.869 473.031 c 0
 258.955 473.031 199.358 459.393 156 414 c 1
 115 467 l 1
437 248 m 1
 418 248 l 2
 362.991 248 292.114 251.465 244.035 239.987 c 0
 177.665 224.143 150.668 180.909 150.668 142.456 c 0
 150.668 95.1367 191.681 50.8145 261.864 50.8145 c 0
 331.199 50.8145 381.823 92.8438 401.058 113.287 c 0
 436.77 151.242 437 185.578 437 213 c 2
 437 248 l 1
EndSplineSet
Validated: 33
EndChar

StartChar: adieresis
Encoding: 228 228 164
Width: 600
GlyphClass: 2
Flags: W
LayerCount: 2
Fore
SplineSet
272.019 711.498 m 0
 272.019 679.211 245.789 652.981 213.502 652.981 c 0
 181.212 652.981 154.981 679.209 154.981 711.499 c 0
 154.981 743.789 181.21 770.019 213.5 770.019 c 0
 245.79 770.019 272.019 743.789 272.019 711.498 c 0
478.002 711.512 m 0
 478.002 679.168 451.956 652.991 420.005 652.991 c 0
 388.061 652.991 361.998 679.155 361.998 711.514 c 0
 361.998 743.862 388.052 770.035 420.008 770.035 c 0
 451.936 770.035 478.002 743.877 478.002 711.512 c 0
115 467 m 1
 164.456 518.083 232.512 541.055 303.925 541.055 c 0
 386.091 541.055 453.267 510.995 488.008 453.097 c 0
 512.442 412.375 514 371.39 514 328 c 2
 514 0 l 1
 435 0 l 1
 435 58 l 1
 377.24 10.665 309.94 -13.002 244.918 -13.002 c 0
 134.316 -13.002 66.8184 59.1631 66.8184 136.825 c 0
 66.8184 195.507 104.707 257.379 188.205 288.065 c 0
 255.557 312.817 339.023 312 417 312 c 2
 434 312 l 1
 434 331 l 2
 434 359.055 434.409 393.114 416.772 422.078 c 0
 401.83 446.615 370.745 473.031 307.869 473.031 c 0
 258.955 473.031 199.358 459.393 156 414 c 1
 115 467 l 1
437 248 m 1
 418 248 l 2
 362.991 248 292.114 251.465 244.035 239.987 c 0
 177.665 224.143 150.668 180.909 150.668 142.456 c 0
 150.668 95.1367 191.681 50.8145 261.864 50.8145 c 0
 331.199 50.8145 381.823 92.8438 401.058 113.287 c 0
 436.77 151.242 437 185.578 437 213 c 2
 437 248 l 1
EndSplineSet
Validated: 33
EndChar

StartChar: aring
Encoding: 229 229 165
Width: 600
GlyphClass: 2
Flags: W
LayerCount: 2
Fore
SplineSet
413.005 700.997 m 0
 413.005 645.145 366.039 598.958 306.924 598.958 c 0
 247.95 598.958 200.921 645.101 200.921 701.065 c 0
 200.921 756.856 247.86 803.005 306.911 803.005 c 0
 366.013 803.005 413.005 756.837 413.005 700.997 c 0
259.914 701.774 m 0
 259.914 672.11 281.627 648.896 307.995 648.896 c 0
 334.032 648.896 356.035 671.837 356.035 702.068 c 0
 356.035 731.828 334.332 755.012 308.022 755.012 c 0
 282 755.012 259.914 732.072 259.914 701.774 c 0
115 467 m 1
 164.456 518.083 232.512 541.055 303.925 541.055 c 0
 386.091 541.055 453.267 510.995 488.008 453.097 c 0
 512.442 412.375 514 371.39 514 328 c 2
 514 0 l 1
 435 0 l 1
 435 58 l 1
 377.24 10.665 309.94 -13.002 244.918 -13.002 c 0
 134.316 -13.002 66.8184 59.1631 66.8184 136.825 c 0
 66.8184 195.507 104.707 257.379 188.205 288.065 c 0
 255.557 312.817 339.023 312 417 312 c 2
 434 312 l 1
 434 331 l 2
 434 359.055 434.409 393.114 416.772 422.078 c 0
 401.83 446.615 370.745 473.031 307.869 473.031 c 0
 258.955 473.031 199.358 459.393 156 414 c 1
 115 467 l 1
437 248 m 1
 418 248 l 2
 362.991 248 292.114 251.465 244.035 239.987 c 0
 177.665 224.143 150.668 180.909 150.668 142.456 c 0
 150.668 95.1367 191.681 50.8145 261.864 50.8145 c 0
 331.199 50.8145 381.823 92.8438 401.058 113.287 c 0
 436.77 151.242 437 185.578 437 213 c 2
 437 248 l 1
EndSplineSet
Validated: 33
EndChar

StartChar: ae
Encoding: 230 230 166
Width: 600
GlyphClass: 2
Flags: W
LayerCount: 2
Fore
SplineSet
46 477 m 1
 78.8398 518.176 128.529 541.039 179.792 541.039 c 0
 236.105 541.039 284.016 513.299 308.996 468.997 c 1
 334.853 513.7 382.027 541.061 431.032 541.061 c 0
 472.728 541.061 518.65 520.727 547.491 473.47 c 0
 578.342 422.919 577.996 363.162 577.996 310.998 c 2
 577.996 266.998 l 1
 336.996 256.998 l 1
 336.996 202.998 l 2
 336.996 175.491 338.018 151.765 349.061 126.612 c 0
 368.65 81.9893 411.519 54.9844 456.728 54.9844 c 0
 490.678 54.9844 522.095 70.3682 541.997 96.998 c 1
 582.997 48.998 l 1
 550.248 9.72656 501.733 -13.002 450.562 -13.002 c 0
 391.558 -13.002 336.628 17.1875 304.998 66.999 c 1
 280.106 17.8691 229.63 -13.1562 174.236 -13.1562 c 0
 90.7705 -13.1562 21.835 56.2129 21.835 143.281 c 0
 21.835 202.575 54.9902 266.973 127.653 299.766 c 0
 170.84 319.256 212.144 320.928 240 322 c 2
 266 323 l 1
 266 353 l 2
 266 374.299 265.203 393.531 258.429 412.516 c 0
 244.401 451.823 210.556 476.08 174.377 476.08 c 0
 141.829 476.08 108.382 456.741 87 426 c 1
 46 477 l 1
265.995 253.997 m 1
 240.994 252.998 l 2
 211.376 251.814 180.816 251.081 151.419 236.016 c 0
 113.551 216.609 95.9746 181.17 95.9746 148.06 c 0
 95.9746 97.6191 135.253 57.9668 182.2 57.9668 c 0
 213.612 57.9668 245.526 76.2559 258.594 111.793 c 0
 268.706 139.293 265.995 169.72 265.995 209.997 c 2
 265.995 253.997 l 1
336.994 322.998 m 1
 510.994 329.999 l 1
 510.994 352.999 l 2
 510.994 376.886 510.551 401.018 500.253 424.943 c 0
 486.364 457.211 459.417 476.186 430.013 476.186 c 0
 401.436 476.186 375.794 458.053 358.919 432.774 c 0
 338.418 402.065 336.994 371.268 336.994 342.998 c 2
 336.994 322.998 l 1
EndSplineSet
Validated: 33
EndChar

StartChar: ccedilla
Encoding: 231 231 167
Width: 600
GlyphClass: 2
Flags: W
LayerCount: 2
Fore
SplineSet
313 0 m 1
 363 0 l 1
 357 -55 l 1
 376 -56 l 2
 390.785 -56.7783 405.994 -57.7168 420.883 -64.9414 c 0
 442.973 -75.6602 455.07 -96.4922 455.07 -118.956 c 0
 455.07 -160.352 414.433 -205.092 329.389 -205.092 c 0
 284.871 -205.092 235.296 -192.447 192 -162 c 1
 221 -114 l 1
 257.397 -143.353 301.031 -155.011 336.064 -155.011 c 0
 381.118 -155.011 389.002 -136.826 389.002 -126.739 c 0
 389.002 -119.915 385.46 -112.176 376.38 -106.611 c 0
 363.902 -98.9639 347.2 -99 334 -99 c 2
 300 -99 l 1
 313 0 l 1
539 442 m 1
 480 373 l 1
 470.825 379.924 477.126 390.809 472.703 399.753 c 0
 469.634 405.96 426.164 469.074 335.78 469.074 c 0
 238.504 469.074 160.969 393.768 160.969 273.126 c 0
 160.969 149.42 239.6 62.9785 342.756 62.9785 c 0
 395.811 62.9785 447.209 86.4434 483 127 c 1
 531 71 l 1
 480.516 16.5811 409.688 -13.001 335.781 -13.001 c 0
 186.048 -13.001 75 104.892 75 264.509 c 0
 75 423.38 185.476 540.028 341.051 540.028 c 0
 426.18 540.028 497.315 503.103 539 442 c 1
EndSplineSet
Validated: 37
EndChar

StartChar: egrave
Encoding: 232 232 168
Width: 600
GlyphClass: 2
Flags: W
LayerCount: 2
Fore
SplineSet
292 810 m 1
 219 761 l 1
 336 605 l 1
 394 640 l 1
 292 810 l 1
309.698 542.271 m 0
 396.487 542.271 495.286 496.221 519.331 354.102 c 0
 524.53 323.371 526.211 289.371 523 253 c 1
 147.298 253 l 1
 153.598 94.4854 256.131 55.4414 326.953 55.4414 c 0
 379.589 55.4414 429.496 76.3574 464 115 c 1
 510 70 l 1
 464.675 15.5068 396.045 -12.1426 320.487 -12.1426 c 0
 176.7 -12.1426 66.2988 82.2266 66.2988 258.611 c 0
 66.2988 451.856 183.262 542.271 309.698 542.271 c 0
150.008 317 m 1
 441 317 l 1
 450.942 402.839 389.68 478.169 303.883 478.169 c 0
 247.072 478.169 166.495 441.85 150.008 317 c 1
EndSplineSet
Validated: 41
EndChar

StartChar: eacute
Encoding: 233 233 169
Width: 600
GlyphClass: 2
Flags: W
LayerCount: 2
Fore
SplineSet
348 810 m 1
 421 761 l 1
 304 605 l 1
 246 640 l 1
 348 810 l 1
309.698 542.271 m 0
 396.487 542.271 495.286 496.221 519.331 354.102 c 0
 524.53 323.371 526.211 289.371 523 253 c 1
 147.298 253 l 1
 153.598 94.4854 256.131 55.4414 326.953 55.4414 c 0
 379.589 55.4414 429.496 76.3574 464 115 c 1
 510 70 l 1
 464.675 15.5068 396.045 -12.1426 320.487 -12.1426 c 0
 176.7 -12.1426 66.2988 82.2266 66.2988 258.611 c 0
 66.2988 451.856 183.262 542.271 309.698 542.271 c 0
150.008 317 m 1
 441 317 l 1
 450.942 402.839 389.68 478.169 303.883 478.169 c 0
 247.072 478.169 166.495 441.85 150.008 317 c 1
EndSplineSet
Validated: 33
EndChar

StartChar: ecircumflex
Encoding: 234 234 170
Width: 600
GlyphClass: 2
Flags: W
LayerCount: 2
Fore
SplineSet
165 631 m 1
 294 794 l 1
 319 794 l 1
 447 630 l 1
 393 590 l 1
 303 709 l 1
 209 591 l 1
 165 631 l 1
309.698 542.271 m 0
 396.487 542.271 495.286 496.221 519.331 354.102 c 0
 524.53 323.371 526.211 289.371 523 253 c 1
 147.298 253 l 1
 153.598 94.4854 256.131 55.4414 326.953 55.4414 c 0
 379.589 55.4414 429.496 76.3574 464 115 c 1
 510 70 l 1
 464.675 15.5068 396.045 -12.1426 320.487 -12.1426 c 0
 176.7 -12.1426 66.2988 82.2266 66.2988 258.611 c 0
 66.2988 451.856 183.262 542.271 309.698 542.271 c 0
150.008 317 m 1
 441 317 l 1
 450.942 402.839 389.68 478.169 303.883 478.169 c 0
 247.072 478.169 166.495 441.85 150.008 317 c 1
EndSplineSet
Validated: 33
EndChar

StartChar: edieresis
Encoding: 235 235 171
Width: 600
GlyphClass: 2
Flags: W
LayerCount: 2
Fore
SplineSet
259.019 711.498 m 0
 259.019 679.211 232.789 652.981 200.502 652.981 c 0
 168.212 652.981 141.981 679.209 141.981 711.499 c 0
 141.981 743.789 168.21 770.019 200.5 770.019 c 0
 232.79 770.019 259.019 743.789 259.019 711.498 c 0
465.002 711.512 m 0
 465.002 679.168 438.956 652.991 407.005 652.991 c 0
 375.061 652.991 348.998 679.155 348.998 711.514 c 0
 348.998 743.862 375.052 770.035 407.008 770.035 c 0
 438.936 770.035 465.002 743.877 465.002 711.512 c 0
309.698 542.271 m 0
 396.487 542.271 495.286 496.221 519.331 354.102 c 0
 524.53 323.371 526.211 289.371 523 253 c 1
 147.298 253 l 1
 153.598 94.4854 256.131 55.4414 326.953 55.4414 c 0
 379.589 55.4414 429.496 76.3574 464 115 c 1
 510 70 l 1
 464.675 15.5068 396.045 -12.1426 320.487 -12.1426 c 0
 176.7 -12.1426 66.2988 82.2266 66.2988 258.611 c 0
 66.2988 451.856 183.262 542.271 309.698 542.271 c 0
150.008 317 m 1
 441 317 l 1
 450.942 402.839 389.68 478.169 303.883 478.169 c 0
 247.072 478.169 166.495 441.85 150.008 317 c 1
EndSplineSet
Validated: 33
EndChar

StartChar: igrave
Encoding: 236 236 172
Width: 600
GlyphClass: 2
Flags: W
LayerCount: 2
Fore
SplineSet
242 810 m 1
 169 761 l 1
 286 605 l 1
 344 640 l 1
 242 810 l 1
133 530 m 1
 345 530 l 1
 345 67 l 1
 469 67 l 1
 469 0 l 1
 126 0 l 1
 126 67 l 1
 261 67 l 1
 261 462 l 1
 133 462 l 1
 133 530 l 1
EndSplineSet
Validated: 9
EndChar

StartChar: iacute
Encoding: 237 237 173
Width: 600
GlyphClass: 2
Flags: W
LayerCount: 2
Fore
SplineSet
348 810 m 1
 421 761 l 1
 304 605 l 1
 246 640 l 1
 348 810 l 1
133 530 m 1
 345 530 l 1
 345 67 l 1
 469 67 l 1
 469 0 l 1
 126 0 l 1
 126 67 l 1
 261 67 l 1
 261 462 l 1
 133 462 l 1
 133 530 l 1
EndSplineSet
Validated: 1
EndChar

StartChar: icircumflex
Encoding: 238 238 174
Width: 600
GlyphClass: 2
Flags: W
LayerCount: 2
Fore
SplineSet
151 631 m 1
 280 794 l 1
 305 794 l 1
 433 630 l 1
 379 590 l 1
 289 709 l 1
 195 591 l 1
 151 631 l 1
133 530 m 1
 345 530 l 1
 345 67 l 1
 469 67 l 1
 469 0 l 1
 126 0 l 1
 126 67 l 1
 261 67 l 1
 261 462 l 1
 133 462 l 1
 133 530 l 1
EndSplineSet
Validated: 1
EndChar

StartChar: idieresis
Encoding: 239 239 175
Width: 600
GlyphClass: 2
Flags: W
LayerCount: 2
Fore
SplineSet
255.019 711.498 m 0
 255.019 679.211 228.789 652.981 196.502 652.981 c 0
 164.212 652.981 137.981 679.209 137.981 711.499 c 0
 137.981 743.789 164.21 770.019 196.5 770.019 c 0
 228.79 770.019 255.019 743.789 255.019 711.498 c 0
461.002 711.512 m 0
 461.002 679.168 434.956 652.991 403.005 652.991 c 0
 371.061 652.991 344.998 679.155 344.998 711.514 c 0
 344.998 743.862 371.052 770.035 403.008 770.035 c 0
 434.936 770.035 461.002 743.877 461.002 711.512 c 0
133 530 m 1
 345 530 l 1
 345 67 l 1
 469 67 l 1
 469 0 l 1
 126 0 l 1
 126 67 l 1
 261 67 l 1
 261 462 l 1
 133 462 l 1
 133 530 l 1
EndSplineSet
Validated: 1
EndChar

StartChar: eth
Encoding: 240 240 176
Width: 600
GlyphClass: 2
Flags: W
LayerCount: 2
Fore
SplineSet
305.228 470.011 m 0
 226.957 470.011 144.997 405.544 144.997 269.225 c 0
 144.997 134.477 222.953 57.9971 306.098 57.9971 c 0
 371.358 57.9971 459.002 107.826 459.002 268.758 c 0
 459.002 429.627 365.393 470.011 305.228 470.011 c 0
411.851 660.893 m 1
 482.807 580.389 543.32 462.27 543.32 293.321 c 0
 543.32 230.904 536.105 156.905 498.492 94.5254 c 0
 455.936 23.9473 383.681 -14.0059 306.688 -14.0059 c 0
 172.738 -14.0059 56.7812 98.7598 56.7812 258.021 c 0
 56.7812 417.047 169.437 541.311 298.021 541.311 c 0
 351.946 541.311 401.983 518.883 437.002 481.001 c 1
 413.68 540.163 379.783 593.874 337.519 639.82 c 1
 190.002 598.001 l 1
 169.002 653.001 l 1
 289.259 685.866 l 1
 253.71 715.613 213.991 740.639 171.002 760.002 c 1
 265.002 779.002 l 1
 294.811 762.218 330.446 738.685 366.106 706.868 c 1
 491.001 741.001 l 1
 511.001 689.001 l 1
 411.851 660.893 l 1
EndSplineSet
Validated: 1
EndChar

StartChar: ntilde
Encoding: 241 241 177
Width: 600
GlyphClass: 2
Flags: W
LayerCount: 2
Fore
SplineSet
161 646 m 1
 109 683 l 1
 151.86 750.837 194.854 783.268 240.029 783.268 c 0
 286.862 783.268 317.97 749.067 332.861 733.55 c 0
 351.642 713.979 369.041 696.93 390.658 696.93 c 0
 419.237 696.93 432.799 723.991 458 758 c 1
 501 712 l 1
 460.944 662.14 429.39 629.754 386.65 629.754 c 0
 319.264 629.754 287.884 717.432 236.844 717.432 c 0
 206.153 717.432 188.763 690.786 161 646 c 1
89 0 m 1
 89 529 l 1
 174 529 l 1
 174 436 l 1
 212.871 495.002 278.12 542.003 349.957 542.003 c 0
 410.281 542.003 464.544 508.129 490.899 448.568 c 0
 509.729 406.014 510 362.334 510 321 c 1
 510 321 l 1
 510 0 l 1
 428 0 l 1
 428 319 l 2
 428 356.393 427.762 401.823 399.11 436.061 c 0
 380.097 458.781 353.908 469.58 327.341 469.58 c 0
 271.362 469.58 220.49 422.787 200.308 395.893 c 0
 178.287 366.55 174 340.651 174 305 c 2
 174 0 l 1
 89 0 l 1
EndSplineSet
Validated: 1
EndChar

StartChar: ograve
Encoding: 242 242 178
Width: 600
GlyphClass: 2
Flags: W
LayerCount: 2
Fore
SplineSet
292 810 m 1
 219 761 l 1
 336 605 l 1
 394 640 l 1
 292 810 l 1
543.113 262.304 m 0
 543.113 86.8047 430.326 -14 304.969 -14 c 0
 171.548 -14 56.8682 99.5322 56.8682 260.578 c 0
 56.8682 424.14 172.53 541.005 307.44 541.005 c 0
 427.751 541.005 543.113 445.084 543.113 262.304 c 0
301.758 470.103 m 0
 220.795 470.103 144.985 397.575 144.985 267.806 c 0
 144.985 137.225 221.249 57.9932 305.614 57.9932 c 0
 382.884 57.9932 459.167 125.6 459.167 258.844 c 0
 459.167 404.202 378.128 470.103 301.758 470.103 c 0
EndSplineSet
Validated: 9
EndChar

StartChar: oacute
Encoding: 243 243 179
Width: 600
GlyphClass: 2
Flags: W
LayerCount: 2
Fore
SplineSet
348 810 m 1
 421 761 l 1
 304 605 l 1
 246 640 l 1
 348 810 l 1
543.113 262.304 m 0
 543.113 86.8047 430.326 -14 304.969 -14 c 0
 171.548 -14 56.8682 99.5322 56.8682 260.578 c 0
 56.8682 424.14 172.53 541.005 307.44 541.005 c 0
 427.751 541.005 543.113 445.084 543.113 262.304 c 0
301.758 470.103 m 0
 220.795 470.103 144.985 397.575 144.985 267.806 c 0
 144.985 137.225 221.249 57.9932 305.614 57.9932 c 0
 382.884 57.9932 459.167 125.6 459.167 258.844 c 0
 459.167 404.202 378.128 470.103 301.758 470.103 c 0
EndSplineSet
Validated: 1
EndChar

StartChar: ocircumflex
Encoding: 244 244 180
Width: 600
GlyphClass: 2
Flags: W
LayerCount: 2
Fore
SplineSet
165 631 m 1
 294 794 l 1
 319 794 l 1
 447 630 l 1
 393 590 l 1
 303 709 l 1
 209 591 l 1
 165 631 l 1
543.113 262.304 m 0
 543.113 86.8047 430.326 -14 304.969 -14 c 0
 171.548 -14 56.8682 99.5322 56.8682 260.578 c 0
 56.8682 424.14 172.53 541.005 307.44 541.005 c 0
 427.751 541.005 543.113 445.084 543.113 262.304 c 0
301.758 470.103 m 0
 220.795 470.103 144.985 397.575 144.985 267.806 c 0
 144.985 137.225 221.249 57.9932 305.614 57.9932 c 0
 382.884 57.9932 459.167 125.6 459.167 258.844 c 0
 459.167 404.202 378.128 470.103 301.758 470.103 c 0
EndSplineSet
Validated: 1
EndChar

StartChar: otilde
Encoding: 245 245 181
Width: 600
GlyphClass: 2
Flags: W
LayerCount: 2
Fore
SplineSet
167 646 m 1
 115 683 l 1
 157.86 750.837 200.854 783.268 246.029 783.268 c 0
 292.862 783.268 323.97 749.067 338.861 733.55 c 0
 357.642 713.979 375.041 696.93 396.658 696.93 c 0
 425.237 696.93 438.799 723.991 464 758 c 1
 507 712 l 1
 466.944 662.14 435.39 629.754 392.65 629.754 c 0
 325.264 629.754 293.884 717.432 242.844 717.432 c 0
 212.153 717.432 194.763 690.786 167 646 c 1
543.113 262.304 m 0
 543.113 86.8047 430.326 -14 304.969 -14 c 0
 171.548 -14 56.8682 99.5322 56.8682 260.578 c 0
 56.8682 424.14 172.53 541.005 307.44 541.005 c 0
 427.751 541.005 543.113 445.084 543.113 262.304 c 0
301.758 470.103 m 0
 220.795 470.103 144.985 397.575 144.985 267.806 c 0
 144.985 137.225 221.249 57.9932 305.614 57.9932 c 0
 382.884 57.9932 459.167 125.6 459.167 258.844 c 0
 459.167 404.202 378.128 470.103 301.758 470.103 c 0
EndSplineSet
Validated: 1
EndChar

StartChar: odieresis
Encoding: 246 246 182
Width: 600
GlyphClass: 2
Flags: W
LayerCount: 2
Fore
SplineSet
257.019 711.498 m 0
 257.019 679.211 230.789 652.981 198.502 652.981 c 0
 166.212 652.981 139.981 679.209 139.981 711.499 c 0
 139.981 743.789 166.21 770.019 198.5 770.019 c 0
 230.79 770.019 257.019 743.789 257.019 711.498 c 0
463.002 711.512 m 0
 463.002 679.168 436.956 652.991 405.005 652.991 c 0
 373.061 652.991 346.998 679.155 346.998 711.514 c 0
 346.998 743.862 373.052 770.035 405.008 770.035 c 0
 436.936 770.035 463.002 743.877 463.002 711.512 c 0
543.113 262.304 m 0
 543.113 86.8047 430.326 -14 304.969 -14 c 0
 171.548 -14 56.8682 99.5322 56.8682 260.578 c 0
 56.8682 424.14 172.53 541.005 307.44 541.005 c 0
 427.751 541.005 543.113 445.084 543.113 262.304 c 0
301.758 470.103 m 0
 220.795 470.103 144.985 397.575 144.985 267.806 c 0
 144.985 137.225 221.249 57.9932 305.614 57.9932 c 0
 382.884 57.9932 459.167 125.6 459.167 258.844 c 0
 459.167 404.202 378.128 470.103 301.758 470.103 c 0
EndSplineSet
Validated: 1
EndChar

StartChar: divide
Encoding: 247 247 183
Width: 600
GlyphClass: 2
Flags: W
LayerCount: 2
Fore
SplineSet
92 403 m 1
 509 403 l 1
 509 326 l 1
 92 326 l 1
 92 403 l 1
358 540.992 m 0
 358 512.297 334.695 488.972 305.98 488.972 c 0
 277.279 488.972 253.962 512.289 253.962 540.99 c 0
 253.962 569.692 277.277 593.011 305.98 593.011 c 0
 334.693 593.011 358 569.687 358 540.992 c 0
358.01 183.993 m 0
 358.01 155.275 334.682 131.943 305.964 131.943 c 0
 277.243 131.943 253.913 155.271 253.913 183.992 c 0
 253.913 212.712 277.242 236.04 305.963 236.04 c 0
 334.68 236.04 358.01 212.71 358.01 183.993 c 0
EndSplineSet
Validated: 1
EndChar

StartChar: oslash
Encoding: 248 248 184
Width: 600
GlyphClass: 2
Flags: W
LayerCount: 2
Fore
SplineSet
301.758 470.103 m 0
 220.795 470.103 144.985 397.574 144.985 267.806 c 0
 144.985 210.231 159.812 162.64 183.62 127.42 c 1
 362.111 455.844 l 1
 342.74 465.435 322.083 470.103 301.758 470.103 c 0
543.113 262.304 m 0
 543.113 86.8037 430.326 -14 304.969 -14 c 0
 267.108 -14 230.757 -4.8584 198.106 11.917 c 1
 150.999 -74 l 1
 90.999 -43 l 1
 142.316 51.4238 l 1
 90.4092 100.283 56.8672 173.482 56.8672 260.578 c 0
 56.8672 424.14 172.529 541.005 307.439 541.005 c 0
 338.595 541.005 369.418 534.573 397.992 521.866 c 1
 441 601 l 1
 503 568 l 1
 456.732 483.613 l 1
 508.189 437.146 543.113 362.872 543.113 262.304 c 0
416.344 409.949 m 1
 234.443 78.1885 l 1
 256.268 64.9678 280.585 57.9932 305.615 57.9932 c 0
 382.885 57.9932 459.168 125.601 459.168 258.845 c 0
 459.168 325.472 442.142 375.404 416.344 409.949 c 1
EndSplineSet
Validated: 1
EndChar

StartChar: ugrave
Encoding: 249 249 185
Width: 600
GlyphClass: 2
Flags: W
LayerCount: 2
Fore
SplineSet
292 810 m 1
 219 761 l 1
 336 605 l 1
 394 640 l 1
 292 810 l 1
83 529 m 1
 167 529 l 1
 167 234 l 2
 167 198.5 166.87 157.109 185.678 119.763 c 0
 206.758 77.9062 245.414 55 286.847 55 c 0
 337.84 55 384.893 89.1885 409.153 133.494 c 0
 426.843 165.8 430 197.247 430 238 c 2
 430 529 l 1
 514 529 l 1
 514 48 l 2
 514 32.4902 514.914 15.8203 520 0 c 1
 432 0 l 1
 429.806 13.6494 429.662 27.4941 430 41 c 2
 431 81 l 1
 396.509 22.585 333.904 -13.0166 267.52 -13.0166 c 0
 198.648 -13.0166 133.916 25.4336 102.995 94.9658 c 0
 82.3164 141.466 81.8438 187.899 82 234 c 2
 83 529 l 1
EndSplineSet
Validated: 41
EndChar

StartChar: uacute
Encoding: 250 250 186
Width: 600
GlyphClass: 2
Flags: W
LayerCount: 2
Fore
SplineSet
348 810 m 1
 421 761 l 1
 304 605 l 1
 246 640 l 1
 348 810 l 1
83 529 m 1
 167 529 l 1
 167 234 l 2
 167 198.5 166.87 157.109 185.678 119.763 c 0
 206.758 77.9062 245.414 55 286.847 55 c 0
 337.84 55 384.893 89.1885 409.153 133.494 c 0
 426.843 165.8 430 197.247 430 238 c 2
 430 529 l 1
 514 529 l 1
 514 48 l 2
 514 32.4902 514.914 15.8203 520 0 c 1
 432 0 l 1
 429.806 13.6494 429.662 27.4941 430 41 c 2
 431 81 l 1
 396.509 22.585 333.904 -13.0166 267.52 -13.0166 c 0
 198.648 -13.0166 133.916 25.4336 102.995 94.9658 c 0
 82.3164 141.466 81.8438 187.899 82 234 c 2
 83 529 l 1
EndSplineSet
Validated: 33
EndChar

StartChar: ucircumflex
Encoding: 251 251 187
Width: 600
GlyphClass: 2
Flags: W
LayerCount: 2
Fore
SplineSet
165 631 m 1
 294 794 l 1
 319 794 l 1
 447 630 l 1
 393 590 l 1
 303 709 l 1
 209 591 l 1
 165 631 l 1
83 529 m 1
 167 529 l 1
 167 234 l 2
 167 198.5 166.87 157.109 185.678 119.763 c 0
 206.758 77.9062 245.414 55 286.847 55 c 0
 337.84 55 384.893 89.1885 409.153 133.494 c 0
 426.843 165.8 430 197.247 430 238 c 2
 430 529 l 1
 514 529 l 1
 514 48 l 2
 514 32.4902 514.914 15.8203 520 0 c 1
 432 0 l 1
 429.806 13.6494 429.662 27.4941 430 41 c 2
 431 81 l 1
 396.509 22.585 333.904 -13.0166 267.52 -13.0166 c 0
 198.648 -13.0166 133.916 25.4336 102.995 94.9658 c 0
 82.3164 141.466 81.8438 187.899 82 234 c 2
 83 529 l 1
EndSplineSet
Validated: 33
EndChar

StartChar: udieresis
Encoding: 252 252 188
Width: 600
GlyphClass: 2
Flags: W
LayerCount: 2
Fore
SplineSet
257.019 711.498 m 0
 257.019 679.211 230.789 652.981 198.502 652.981 c 0
 166.212 652.981 139.981 679.209 139.981 711.499 c 0
 139.981 743.789 166.21 770.019 198.5 770.019 c 0
 230.79 770.019 257.019 743.789 257.019 711.498 c 0
463.002 711.512 m 0
 463.002 679.168 436.956 652.991 405.005 652.991 c 0
 373.061 652.991 346.998 679.155 346.998 711.514 c 0
 346.998 743.862 373.052 770.035 405.008 770.035 c 0
 436.936 770.035 463.002 743.877 463.002 711.512 c 0
83 529 m 1
 167 529 l 1
 167 234 l 2
 167 198.5 166.87 157.109 185.678 119.763 c 0
 206.758 77.9062 245.414 55 286.847 55 c 0
 337.84 55 384.893 89.1885 409.153 133.494 c 0
 426.843 165.8 430 197.247 430 238 c 2
 430 529 l 1
 514 529 l 1
 514 48 l 2
 514 32.4902 514.914 15.8203 520 0 c 1
 432 0 l 1
 429.806 13.6494 429.662 27.4941 430 41 c 2
 431 81 l 1
 396.509 22.585 333.904 -13.0166 267.52 -13.0166 c 0
 198.648 -13.0166 133.916 25.4336 102.995 94.9658 c 0
 82.3164 141.466 81.8438 187.899 82 234 c 2
 83 529 l 1
EndSplineSet
Validated: 33
EndChar

StartChar: yacute
Encoding: 253 253 189
Width: 600
GlyphClass: 2
Flags: W
LayerCount: 2
Fore
SplineSet
348 810 m 1
 421 761 l 1
 304 605 l 1
 246 640 l 1
 348 810 l 1
63 529 m 1
 167 529 l 1
 167.651 518.579 161.833 512.755 161.833 504.226 c 0
 161.833 500.853 162.694 498.287 164 495 c 2
 319 105 l 1
 420 389 l 2
 436.209 434.578 451.255 481.532 460 530 c 1
 547 530 l 1
 531.434 478.243 513.035 427.412 494 377 c 2
 329 -60 l 2
 317.685 -89.9668 306.505 -117.887 283.381 -143.905 c 0
 248.107 -183.593 198.508 -201.18 150.696 -201.18 c 0
 107.172 -201.18 66.5488 -186.251 36 -157 c 1
 79 -82 l 1
 85.8369 -87.3564 85.248 -95.084 88.2402 -100.819 c 0
 91.1875 -106.465 111.21 -132.772 150.447 -132.772 c 0
 175.241 -132.772 202.436 -121.95 224.474 -98.4824 c 0
 241.247 -80.6211 251.822 -58.0557 261 -37 c 2
 278 2 l 1
 63 529 l 1
EndSplineSet
Validated: 33
EndChar

StartChar: thorn
Encoding: 254 254 190
Width: 600
GlyphClass: 2
Flags: W
LayerCount: 2
Fore
SplineSet
80 770 m 1
 171.999 770.001 l 1
 172.533 754.227 163.999 750.54 163.999 732.001 c 2
 163.999 448.001 l 1
 199.964 505.863 263.254 541.001 331.195 541.001 c 0
 435.346 541.001 546.008 457.518 546.008 270.69 c 0
 546.008 76.5713 432.1 -14.1494 323.885 -14.1494 c 0
 259.582 -14.1494 200.339 17.6553 165 70 c 1
 165 -193 l 1
 80 -193 l 1
 80 770 l 1
300.598 469.912 m 0
 247.268 469.912 198.021 440.747 177.863 393.199 c 0
 166.208 365.706 163.873 333.507 163.873 288.854 c 0
 163.873 212.179 163.541 168.562 179.043 132.851 c 0
 199.941 84.71 249.87 59.8389 300.075 59.8389 c 0
 349.664 59.8389 459.205 86.543 459.205 253.488 c 0
 459.205 445.621 347.067 469.912 300.598 469.912 c 0
EndSplineSet
Validated: 33
EndChar

StartChar: ydieresis
Encoding: 255 255 191
Width: 600
GlyphClass: 2
Flags: W
LayerCount: 2
Fore
SplineSet
257.019 711.498 m 0
 257.019 679.211 230.789 652.981 198.502 652.981 c 0
 166.212 652.981 139.981 679.209 139.981 711.499 c 0
 139.981 743.789 166.21 770.019 198.5 770.019 c 0
 230.79 770.019 257.019 743.789 257.019 711.498 c 0
463.002 711.512 m 0
 463.002 679.168 436.956 652.991 405.005 652.991 c 0
 373.061 652.991 346.998 679.155 346.998 711.514 c 0
 346.998 743.862 373.052 770.035 405.008 770.035 c 0
 436.936 770.035 463.002 743.877 463.002 711.512 c 0
63 529 m 1
 167 529 l 1
 167.651 518.579 161.833 512.755 161.833 504.226 c 0
 161.833 500.853 162.694 498.287 164 495 c 2
 319 105 l 1
 420 389 l 2
 436.209 434.578 451.255 481.532 460 530 c 1
 547 530 l 1
 531.434 478.243 513.035 427.412 494 377 c 2
 329 -60 l 2
 317.685 -89.9668 306.505 -117.887 283.381 -143.905 c 0
 248.107 -183.593 198.508 -201.18 150.696 -201.18 c 0
 107.172 -201.18 66.5488 -186.251 36 -157 c 1
 79 -82 l 1
 85.8369 -87.3564 85.248 -95.084 88.2402 -100.819 c 0
 91.1875 -106.465 111.21 -132.772 150.447 -132.772 c 0
 175.241 -132.772 202.436 -121.95 224.474 -98.4824 c 0
 241.247 -80.6211 251.822 -58.0557 261 -37 c 2
 278 2 l 1
 63 529 l 1
EndSplineSet
Validated: 33
EndChar

StartChar: minus
Encoding: 8722 8722 192
Width: 600
GlyphClass: 2
Flags: W
LayerCount: 2
Fore
SplineSet
62 398 m 1
 538 398 l 1
 538 327 l 1
 62 327 l 1
 62 398 l 1
EndSplineSet
Validated: 1
EndChar

StartChar: quoteright
Encoding: 8217 8217 193
Width: 600
GlyphClass: 2
Flags: W
LayerCount: 2
Fore
SplineSet
364.152 642.835 m 0
 364.152 582.506 321.706 506.943 241 425 c 1
 201 460 l 1
 228.481 485.274 247.951 513.471 259.27 532.066 c 0
 264.928 541.362 276.427 561.166 276.427 580.342 c 0
 276.427 604.197 259.351 614.867 249.284 621.562 c 0
 239.047 628.371 216.973 641.694 216.973 672.853 c 0
 216.973 707.85 245.536 738.93 283.672 738.93 c 0
 324.887 738.93 364.152 702.133 364.152 642.835 c 0
EndSplineSet
Validated: 1
EndChar

StartChar: quoteleft
Encoding: 8216 8216 194
Width: 600
GlyphClass: 2
Flags: W
LayerCount: 2
Fore
SplineSet
200.994 521.085 m 0
 200.994 581.414 243.44 656.977 324.146 738.92 c 1
 364.146 703.92 l 1
 336.665 678.646 317.195 650.449 305.876 631.854 c 0
 300.218 622.559 288.719 602.754 288.719 583.578 c 0
 288.719 559.723 305.795 549.053 315.862 542.357 c 0
 326.099 535.549 348.173 522.227 348.173 491.067 c 0
 348.173 456.07 319.61 424.99 281.474 424.99 c 0
 240.259 424.99 200.994 461.787 200.994 521.085 c 0
EndSplineSet
Validated: 1
EndChar

StartChar: uni02CB
Encoding: 715 715 195
Width: 600
GlyphClass: 2
Flags: W
LayerCount: 2
Fore
SplineSet
292 810 m 1
 219 761 l 1
 336 605 l 1
 394 640 l 1
 292 810 l 1
EndSplineSet
Validated: 9
EndChar

StartChar: acute
Encoding: 180 180 196
Width: 600
GlyphClass: 2
Flags: W
LayerCount: 2
Fore
SplineSet
348 810 m 1
 421 761 l 1
 304 605 l 1
 246 640 l 1
 348 810 l 1
EndSplineSet
Validated: 1
EndChar

StartChar: circumflex
Encoding: 710 710 197
Width: 600
GlyphClass: 2
Flags: W
LayerCount: 2
Fore
SplineSet
165 631 m 1
 294 794 l 1
 319 794 l 1
 447 630 l 1
 393 590 l 1
 303 709 l 1
 209 591 l 1
 165 631 l 1
EndSplineSet
Validated: 1
EndChar

StartChar: tilde
Encoding: 732 732 198
Width: 600
GlyphClass: 2
Flags: W
LayerCount: 2
Fore
SplineSet
167 646 m 1
 114.998 683 l 1
 157.858 750.837 200.853 783.268 246.027 783.268 c 0
 292.86 783.268 323.969 749.066 338.859 733.55 c 0
 357.641 713.979 375.04 696.93 396.657 696.93 c 0
 425.236 696.93 438.798 723.991 463.999 758 c 1
 506.999 712 l 1
 466.943 662.14 435.39 629.754 392.649 629.754 c 0
 325.264 629.754 293.884 717.432 242.844 717.432 c 0
 212.152 717.432 194.763 690.786 167 646 c 1
EndSplineSet
Validated: 1
EndChar

StartChar: uni02C9
Encoding: 713 713 199
Width: 600
GlyphClass: 2
Flags: W
LayerCount: 2
Fore
SplineSet
153 720 m 1
 447 720 l 1
 447 655 l 1
 153 655 l 1
 153 720 l 1
EndSplineSet
Validated: 1
EndChar

StartChar: breve
Encoding: 728 728 200
Width: 600
GlyphClass: 2
Flags: W
LayerCount: 2
Fore
SplineSet
169 749 m 1
 195.428 707.212 242.083 666.993 299.318 666.993 c 0
 347.637 666.993 397.466 696.856 436.999 748 c 1
 469.999 700 l 1
 430.783 646.838 369.515 606.982 299.498 606.982 c 0
 236.205 606.982 172.965 640.673 127 696 c 1
 169 749 l 1
EndSplineSet
Validated: 1
EndChar

StartChar: dotaccent
Encoding: 729 729 201
Width: 600
GlyphClass: 2
Flags: W
LayerCount: 2
Fore
SplineSet
305.003 760 m 0
 338.171 760 365.02 733.279 365.02 700.492 c 0
 365.02 667.727 338.183 640.991 304.99 640.991 c 0
 271.818 640.991 244.981 667.715 244.981 700.485 c 0
 244.981 733.264 271.822 760 305.003 760 c 0
EndSplineSet
Validated: 1
EndChar

StartChar: dieresis
Encoding: 168 168 202
Width: 600
GlyphClass: 2
Flags: W
LayerCount: 2
Fore
SplineSet
257.019 711.498 m 0
 257.019 679.211 230.789 652.981 198.502 652.981 c 0
 166.212 652.981 139.98 679.209 139.98 711.499 c 0
 139.98 743.789 166.209 770.02 198.499 770.02 c 0
 230.789 770.02 257.019 743.789 257.019 711.498 c 0
463.003 711.512 m 0
 463.003 679.168 436.958 652.991 405.007 652.991 c 0
 373.062 652.991 346.999 679.155 346.999 711.515 c 0
 346.999 743.862 373.053 770.035 405.009 770.035 c 0
 436.937 770.035 463.003 743.877 463.003 711.512 c 0
EndSplineSet
Validated: 1
EndChar

StartChar: hungarumlaut
Encoding: 733 733 203
Width: 600
GlyphClass: 2
Flags: W
LayerCount: 2
Fore
SplineSet
258 810 m 1
 331 761 l 1
 214 605 l 1
 156 640 l 1
 258 810 l 1
438 810 m 1
 511 761 l 1
 394 605 l 1
 336 640 l 1
 438 810 l 1
EndSplineSet
Validated: 1
EndChar

StartChar: ring
Encoding: 730 730 204
Width: 600
GlyphClass: 2
Flags: W
LayerCount: 2
Fore
SplineSet
413.005 700.997 m 0
 413.005 645.146 366.039 598.958 306.924 598.958 c 0
 247.95 598.958 200.921 645.101 200.921 701.064 c 0
 200.921 756.855 247.86 803.005 306.911 803.005 c 0
 366.013 803.005 413.005 756.837 413.005 700.997 c 0
259.914 701.773 m 0
 259.914 672.109 281.627 648.896 307.995 648.896 c 0
 334.032 648.896 356.035 671.837 356.035 702.068 c 0
 356.035 731.828 334.332 755.012 308.022 755.012 c 0
 282 755.012 259.914 732.071 259.914 701.773 c 0
EndSplineSet
Validated: 1
EndChar

StartChar: cedilla
Encoding: 184 184 205
Width: 600
GlyphClass: 2
Flags: W
LayerCount: 2
Fore
SplineSet
313 0 m 1
 363 -0.00195312 l 1
 357 -55.002 l 1
 376 -56.002 l 2
 390.785 -56.7803 405.994 -57.7178 420.883 -64.9424 c 0
 442.973 -75.6611 455.069 -96.4922 455.069 -118.956 c 0
 455.069 -160.353 414.433 -205.093 329.389 -205.093 c 0
 284.871 -205.093 235.296 -192.448 192 -162.001 c 1
 221 -114.001 l 1
 257.397 -143.354 301.031 -155.012 336.064 -155.012 c 0
 381.118 -155.012 389.002 -136.827 389.002 -126.74 c 0
 389.002 -119.916 385.46 -112.177 376.38 -106.611 c 0
 363.902 -98.9639 347.2 -99 334 -99 c 2
 300 -99 l 1
 313 0 l 1
EndSplineSet
Validated: 33
EndChar

StartChar: ogonek
Encoding: 731 731 206
Width: 600
GlyphClass: 2
Flags: W
LayerCount: 2
Fore
SplineSet
422 0 m 1
 498.999 0 l 1
 460.041 -34.9922 431.396 -66.5957 421.556 -77.7402 c 0
 413.412 -86.9639 402.048 -100.704 402.048 -117.841 c 0
 402.048 -135.639 414.849 -150.796 435.946 -150.796 c 0
 443.138 -150.796 451.677 -149.113 463.856 -144.679 c 0
 481.956 -138.087 493.633 -130.111 500.999 -124 c 1
 500.999 -177 l 1
 478.279 -196.689 449.699 -204.003 420.899 -204.003 c 0
 360.857 -204.003 330.051 -171.746 330.051 -133.095 c 0
 330.051 -95.7617 361.962 -49.5293 422 0 c 1
EndSplineSet
Validated: 1
EndChar

StartChar: caron
Encoding: 711 711 207
Width: 600
GlyphClass: 2
Flags: W
LayerCount: 2
Fore
SplineSet
447 763 m 1
 318 600 l 1
 293 600 l 1
 165 764 l 1
 219 804 l 1
 309 685 l 1
 403 803 l 1
 447 763 l 1
EndSplineSet
Validated: 1
EndChar

StartChar: dotlessi
Encoding: 305 305 208
Width: 600
GlyphClass: 2
Flags: W
LayerCount: 2
Fore
SplineSet
133 530 m 1
 345 530 l 1
 345 67 l 1
 469 67 l 1
 469 0 l 1
 126 0 l 1
 126 67 l 1
 261 67 l 1
 261 462 l 1
 133 462 l 1
 133 530 l 1
EndSplineSet
Validated: 1
EndChar

StartChar: guilsinglleft
Encoding: 8249 8249 209
Width: 600
GlyphClass: 2
Flags: W
LayerCount: 2
Fore
SplineSet
178 293 m 1
 354 464 l 1
 399 416 l 1
 259 279 l 1
 407 117 l 1
 361 71 l 1
 178 266 l 1
 178 293 l 1
EndSplineSet
Validated: 1
EndChar

StartChar: guilsinglright
Encoding: 8250 8250 210
Width: 600
GlyphClass: 2
Flags: W
LayerCount: 2
Fore
SplineSet
407 293 m 1
 231 464 l 1
 186 416 l 1
 326 279 l 1
 178 117 l 1
 224 71 l 1
 407 266 l 1
 407 293 l 1
EndSplineSet
Validated: 9
EndChar

StartChar: circumflex.cap
Encoding: 65537 -1 211
Width: 600
GlyphClass: 2
Flags: W
LayerCount: 2
Fore
SplineSet
142 659 m 1
 294 774 l 1
 319 774 l 1
 462 661 l 1
 424 617 l 1
 304 699 l 1
 175 620 l 1
 142 659 l 1
EndSplineSet
Validated: 1
EndChar

StartChar: caron.cap
Encoding: 65538 -1 212
Width: 600
GlyphClass: 2
Flags: W
LayerCount: 2
Fore
SplineSet
462 732 m 1
 310 617 l 1
 285 617 l 1
 142 730 l 1
 180 774 l 1
 300 692 l 1
 429 771 l 1
 462 732 l 1
EndSplineSet
Validated: 1
EndChar

StartChar: grave.cap
Encoding: 65539 -1 213
Width: 600
GlyphClass: 2
Flags: W
LayerCount: 2
Fore
SplineSet
250 779 m 1
 204 698 l 1
 400 627 l 1
 427 675 l 1
 250 779 l 1
EndSplineSet
Validated: 9
EndChar

StartChar: acute.cap
Encoding: 65540 -1 214
Width: 600
GlyphClass: 2
Flags: W
LayerCount: 2
Fore
SplineSet
387 779 m 1
 433 698 l 1
 237 627 l 1
 210 675 l 1
 387 779 l 1
EndSplineSet
Validated: 1
EndChar

StartChar: omacron
Encoding: 333 333 215
Width: 600
GlyphClass: 2
Flags: W
LayerCount: 2
Fore
SplineSet
153 720 m 1
 447 720 l 1
 447 655 l 1
 153 655 l 1
 153 720 l 1
543.113 262.304 m 0
 543.113 86.8047 430.326 -14 304.969 -14 c 0
 171.548 -14 56.8682 99.5322 56.8682 260.578 c 0
 56.8682 424.14 172.53 541.005 307.44 541.005 c 0
 427.751 541.005 543.113 445.084 543.113 262.304 c 0
301.758 470.103 m 0
 220.795 470.103 144.985 397.575 144.985 267.806 c 0
 144.985 137.225 221.249 57.9932 305.614 57.9932 c 0
 382.884 57.9932 459.167 125.6 459.167 258.844 c 0
 459.167 404.202 378.128 470.103 301.758 470.103 c 0
EndSplineSet
Validated: 1
EndChar

StartChar: currency
Encoding: 164 164 216
Width: 600
GlyphClass: 2
Flags: W
LayerCount: 2
Fore
SplineSet
300.7 516.248 m 0
 236.708 516.248 184.352 463.893 184.352 399.899 c 0
 184.352 335.906 236.708 283.553 300.7 283.553 c 0
 364.693 283.553 417.05 335.906 417.05 399.899 c 0
 417.05 463.893 364.693 516.248 300.7 516.248 c 0
88.9004 569.9 m 1
 130.1 611.1 l 1
 195.482 545.717 l 1
 225.126 567.202 261.502 579.9 300.699 579.9 c 0
 339.283 579.9 375.132 567.598 404.519 546.72 c 1
 468.898 611.101 l 1
 510.099 569.9 l 1
 446.01 505.812 l 1
 467.802 476.043 480.699 439.405 480.699 399.901 c 0
 480.699 360.704 468.001 324.328 446.516 294.685 c 1
 510.099 231.102 l 1
 468.898 189.901 l 1
 405.219 253.581 l 1
 375.703 232.401 339.59 219.901 300.699 219.901 c 0
 261.195 219.901 224.558 232.799 194.789 254.591 c 1
 130.1 189.901 l 1
 88.9004 231.102 l 1
 153.881 296.081 l 1
 133.003 325.468 120.7 361.316 120.7 399.9 c 0
 120.7 438.791 133.2 474.904 154.38 504.42 c 1
 88.9004 569.9 l 1
EndSplineSet
Validated: 1
EndChar

StartChar: brokenbar
Encoding: 166 166 217
Width: 600
GlyphClass: 2
Flags: W
LayerCount: 2
Fore
SplineSet
261 756 m 1
 339 756 l 1
 339 342 l 1
 261 342 l 1
 261 756 l 1
339 -175 m 1
 261 -175 l 1
 261 227 l 1
 339 227 l 1
 339 -175 l 1
EndSplineSet
Validated: 1
EndChar

StartChar: onequarter
Encoding: 188 188 218
Width: 600
GlyphClass: 2
Flags: W
LayerCount: 2
Fore
SplineSet
98 -19 m 1
 461 770 l 1
 516 739 l 1
 152 -49 l 1
 98 -19 l 1
466.6 279.9 m 1
 502.6 279.9 l 1
 502.6 52.7002 l 1
 561 52.7002 l 1
 561 8.7002 l 1
 502.6 8.7002 l 1
 502.6 -80.9004 l 1
 449.8 -80.9004 l 1
 449.8 9.5 l 1
 281 9.5 l 1
 281 42.2998 l 1
 466.6 279.9 l 1
450.6 189.5 m 1
 341.8 52.7002 l 1
 450.6 52.7002 l 1
 450.6 189.5 l 1
177.4 785 m 1
 177.4 433 l 1
 118.2 433 l 1
 118.2 711.4 l 1
 28.5996 688.2 l 1
 13.4004 717 l 1
 137.4 785 l 1
 177.4 785 l 1
EndSplineSet
Validated: 1
EndChar

StartChar: onehalf
Encoding: 189 189 219
Width: 600
GlyphClass: 2
Flags: W
LayerCount: 2
Fore
SplineSet
98 -19 m 1
 461 770 l 1
 516 739 l 1
 152 -49 l 1
 98 -19 l 1
312.5 194.729 m 1
 340.32 243.117 392.361 271.759 448.577 271.759 c 0
 522.369 271.759 572.501 224.145 572.501 167.977 c 0
 572.501 124.088 542.341 93.9316 529.173 81.7949 c 0
 492.353 47.8613 441.093 23.8096 389.3 -34.0723 c 1
 558.1 -34.0723 l 2
 562.327 -34.0723 564.254 -33.4795 568.014 -30.2363 c 0
 569.94 -28.5752 574.483 -24.0752 580.5 -26.0723 c 1
 580.5 -84.4717 l 1
 321.3 -84.4717 l 1
 321.3 -43.6719 l 1
 372.944 27.748 441.035 72.9502 468.797 95.5244 c 0
 495.695 117.398 516.591 139.776 516.591 167.661 c 0
 516.591 197.073 491.121 224.262 446.801 224.262 c 0
 411.198 224.262 380.94 205.737 364.64 185.113 c 0
 359.64 178.789 360.296 174.651 355.7 165.928 c 1
 312.5 194.729 l 1
177.4 785 m 1
 177.4 433 l 1
 118.2 433 l 1
 118.2 711.4 l 1
 28.5996 688.2 l 1
 13.4004 717 l 1
 137.4 785 l 1
 177.4 785 l 1
EndSplineSet
Validated: 1
EndChar

StartChar: threequarters
Encoding: 190 190 220
Width: 600
GlyphClass: 2
Flags: W
LayerCount: 2
Fore
SplineSet
104 -19 m 1
 467 770 l 1
 522 739 l 1
 158 -49 l 1
 104 -19 l 1
155.836 792.298 m 0
 224.907 792.298 277.167 746.008 277.167 692.65 c 0
 277.167 658.73 255.742 629.998 225 620.21 c 1
 264.249 613.272 293.001 579.748 293.001 540.745 c 0
 293.001 480.164 226.85 433.802 152.923 433.802 c 0
 102.359 433.802 54.2793 455.787 21 493.81 c 1
 64.2002 541.81 l 1
 72.3701 533.133 68.4893 524.407 77.123 515.981 c 0
 82.0059 511.216 109.98 485.8 153.863 485.8 c 0
 199.312 485.8 235.764 512.825 235.764 545.817 c 0
 235.764 562.869 225.261 597.091 154.31 597.091 c 0
 144.702 597.091 135.547 596.504 126.601 595.41 c 1
 126.601 641.81 l 1
 132.709 641.226 138.841 640.925 144.978 640.925 c 0
 205.711 640.925 222.232 667.327 222.232 688.611 c 0
 222.232 716.348 194.728 743.44 153.033 743.44 c 0
 121.68 743.44 88.8613 728.031 66.6006 700.21 c 1
 33 734.61 l 1
 64.1445 771.422 109.173 792.298 155.836 792.298 c 0
466.6 279.9 m 1
 502.6 279.9 l 1
 502.6 52.7002 l 1
 561 52.7002 l 1
 561 8.7002 l 1
 502.6 8.7002 l 1
 502.6 -80.9004 l 1
 449.8 -80.9004 l 1
 449.8 9.5 l 1
 281 9.5 l 1
 281 42.2998 l 1
 466.6 279.9 l 1
450.6 189.5 m 1
 341.8 52.7002 l 1
 450.6 52.7002 l 1
 450.6 189.5 l 1
EndSplineSet
Validated: 9
EndChar

StartChar: Aogonek
Encoding: 260 260 221
Width: 600
GlyphClass: 2
Flags: W
LayerCount: 2
Fore
SplineSet
494 0 m 1
 571 0 l 1
 532.042 -34.9922 503.396 -66.5967 493.556 -77.7402 c 0
 485.412 -86.9648 474.048 -100.705 474.048 -117.842 c 0
 474.048 -135.64 486.849 -150.797 507.947 -150.797 c 0
 515.138 -150.797 523.677 -149.114 535.857 -144.679 c 0
 553.957 -138.087 565.634 -130.111 573 -124 c 1
 573 -177 l 1
 550.28 -196.689 521.7 -204.002 492.9 -204.002 c 0
 432.858 -204.002 402.051 -171.745 402.051 -133.094 c 0
 402.051 -95.7617 433.962 -49.5293 494 0 c 1
27 -1 m 1
 282 735 l 1
 291 735 l 1
 570 0 l 1
 486 0 l 1
 406 211 l 1
 177 211 l 1
 107 -1 l 1
 27 -1 l 1
388 274 m 1
 286 549 l 1
 193 274 l 1
 388 274 l 1
EndSplineSet
Validated: 5
EndChar

StartChar: Lslash
Encoding: 321 321 222
Width: 600
GlyphClass: 2
Flags: W
LayerCount: 2
Fore
SplineSet
95 722 m 1
 189 721.999 l 1
 189.172 720.865 189.256 719.72 189.256 718.57 c 0
 189.256 703.816 179 701.43 179 682.999 c 2
 179 380.514 l 1
 371 442.999 l 2
 381.223 446.326 390.329 449.186 401 454 c 1
 401 380 l 1
 179 308.815 l 1
 179 69 l 1
 527 69 l 1
 527 -1 l 1
 95 -1 l 1
 95 281.88 l 1
 33 262 l 1
 33 333 l 1
 95 353.178 l 1
 95 722 l 1
EndSplineSet
Validated: 1
EndChar

StartChar: Lcaron
Encoding: 317 317 223
Width: 600
GlyphClass: 2
Flags: W
LayerCount: 2
Fore
SplineSet
497.837 650.661 m 0
 497.837 602.397 463.88 541.947 399.315 476.393 c 1
 367.315 504.393 l 1
 389.3 524.612 404.876 547.17 413.931 562.046 c 0
 418.457 569.482 427.656 585.326 427.656 600.666 c 0
 427.656 619.751 413.996 628.286 405.942 633.643 c 0
 397.753 639.09 380.094 649.748 380.094 674.675 c 0
 380.094 702.673 402.943 727.537 433.452 727.537 c 0
 466.425 727.537 497.837 698.1 497.837 650.661 c 0
87 722 m 1
 181 722 l 1
 182.252 713.763 178.671 707.037 176.957 703.776 c 0
 173.543 697.278 171 693.469 171 683 c 2
 171 69 l 1
 519 69 l 1
 519 -1 l 1
 87 -1 l 1
 87 722 l 1
EndSplineSet
Validated: 33
EndChar

StartChar: Sacute
Encoding: 346 346 224
Width: 600
GlyphClass: 2
Flags: W
LayerCount: 2
Fore
SplineSet
367 917 m 1
 413 836 l 1
 217 765 l 1
 190 813 l 1
 367 917 l 1
514 636 m 1
 463 567 l 1
 460.467 567.77 457.129 570.059 456.897 576.479 c 0
 456.744 580.739 457.326 583.155 454.259 587.627 c 0
 426.295 628.402 374.583 659.139 307.322 659.139 c 0
 224.667 659.139 176.928 608.659 176.928 553.304 c 0
 176.928 523.788 190.278 480.959 250.701 445.621 c 0
 316.767 406.982 418.491 386.478 481.296 327.335 c 0
 526.491 284.776 537.39 234.352 537.39 196.567 c 0
 537.39 105.698 472.479 -12.0684 296.743 -12.0684 c 0
 207.646 -12.0684 126.78 19.167 70 81 c 1
 118 164 l 1
 123.54 161.188 123.285 154.812 123.259 152.899 c 0
 123.193 148.118 122.894 145.188 126.519 140.598 c 0
 158.801 99.7119 219.842 60.9502 299.1 60.9502 c 0
 403.921 60.9502 456.763 129.108 456.763 191.929 c 0
 456.763 224.218 443.541 261.931 396.186 291.612 c 0
 341.618 325.812 237.401 350.797 170.523 400.177 c 0
 110.323 444.627 93.7998 498.906 93.7998 541.004 c 0
 93.7998 639.749 183.363 726.008 313.761 726.008 c 0
 392.466 726.008 465.102 694.099 514 636 c 1
EndSplineSet
Validated: 1
EndChar

StartChar: Scedilla
Encoding: 350 350 225
Width: 600
GlyphClass: 2
Flags: W
LayerCount: 2
Fore
SplineSet
276 0 m 1
 326 0 l 1
 320 -55 l 1
 339 -56 l 2
 353.785 -56.7783 368.994 -57.7168 383.883 -64.9414 c 0
 405.973 -75.6602 418.07 -96.4922 418.07 -118.956 c 0
 418.07 -160.352 377.433 -205.092 292.389 -205.092 c 0
 247.871 -205.092 198.296 -192.447 155 -162 c 1
 184 -114 l 1
 220.397 -143.353 264.031 -155.011 299.064 -155.011 c 0
 344.118 -155.011 352.002 -136.826 352.002 -126.739 c 0
 352.002 -119.915 348.46 -112.176 339.38 -106.611 c 0
 326.902 -98.9639 310.2 -99 297 -99 c 2
 263 -99 l 1
 276 0 l 1
514 636 m 1
 463 567 l 1
 460.467 567.77 457.129 570.059 456.897 576.479 c 0
 456.744 580.739 457.326 583.155 454.259 587.627 c 0
 426.295 628.402 374.583 659.139 307.322 659.139 c 0
 224.667 659.139 176.928 608.659 176.928 553.304 c 0
 176.928 523.788 190.278 480.959 250.701 445.621 c 0
 316.767 406.982 418.491 386.478 481.296 327.335 c 0
 526.491 284.776 537.39 234.352 537.39 196.567 c 0
 537.39 105.698 472.479 -12.0684 296.743 -12.0684 c 0
 207.646 -12.0684 126.78 19.167 70 81 c 1
 118 164 l 1
 123.54 161.188 123.285 154.812 123.259 152.899 c 0
 123.193 148.118 122.894 145.188 126.519 140.598 c 0
 158.801 99.7119 219.842 60.9502 299.1 60.9502 c 0
 403.921 60.9502 456.763 129.108 456.763 191.929 c 0
 456.763 224.218 443.541 261.931 396.186 291.612 c 0
 341.618 325.812 237.401 350.797 170.523 400.177 c 0
 110.323 444.627 93.7998 498.906 93.7998 541.004 c 0
 93.7998 639.749 183.363 726.008 313.761 726.008 c 0
 392.466 726.008 465.102 694.099 514 636 c 1
EndSplineSet
Validated: 37
EndChar

StartChar: Tcaron
Encoding: 356 356 226
Width: 600
GlyphClass: 2
Flags: W
LayerCount: 2
Fore
SplineSet
470 875 m 1
 318 760 l 1
 293 760 l 1
 150 873 l 1
 188 917 l 1
 308 835 l 1
 437 914 l 1
 470 875 l 1
46 723 m 1
 546 723 l 1
 546 650 l 1
 333 650 l 1
 333 -1 l 1
 251 -1 l 1
 251 650 l 1
 46 650 l 1
 46 723 l 1
EndSplineSet
Validated: 1
EndChar

StartChar: Zacute
Encoding: 377 377 227
Width: 600
GlyphClass: 2
Flags: W
LayerCount: 2
Fore
SplineSet
367 917 m 1
 413 836 l 1
 217 765 l 1
 190 813 l 1
 367 917 l 1
82 722 m 1
 528 722 l 1
 527 665 l 1
 170 71 l 1
 511 71 l 2
 527.142 71 531.579 80.1396 546 78 c 1
 546 -1 l 1
 68 -1 l 1
 68 56 l 1
 432 649 l 1
 82 649 l 1
 82 722 l 1
EndSplineSet
Validated: 33
EndChar

StartChar: Zdotaccent
Encoding: 379 379 228
Width: 600
GlyphClass: 2
Flags: W
LayerCount: 2
Fore
SplineSet
305.003 907 m 0
 338.171 907 365.019 880.28 365.019 847.493 c 0
 365.019 814.727 338.182 787.992 304.99 787.992 c 0
 271.818 787.992 244.981 814.716 244.981 847.486 c 0
 244.981 880.264 271.822 907 305.003 907 c 0
82 722 m 1
 528 722 l 1
 527 665 l 1
 170 71 l 1
 511 71 l 2
 527.142 71 531.579 80.1396 546 78 c 1
 546 -1 l 1
 68 -1 l 1
 68 56 l 1
 432 649 l 1
 82 649 l 1
 82 722 l 1
EndSplineSet
Validated: 33
EndChar

StartChar: Racute
Encoding: 340 340 229
Width: 600
GlyphClass: 2
Flags: W
LayerCount: 2
Fore
SplineSet
367 917 m 1
 413 836 l 1
 217 765 l 1
 190 813 l 1
 367 917 l 1
75 722 m 1
 288 722 l 2
 334.667 722 380.248 720.95 425.988 697.719 c 0
 492.448 663.965 528.143 596.481 528.143 523.979 c 0
 528.143 428.394 468.499 345.903 381 322 c 1
 548 0 l 1
 457 0 l 1
 297 319 l 1
 157 319 l 1
 157 0 l 1
 75 0 l 1
 75 722 l 1
157 646 m 1
 157 390 l 1
 297 390 l 2
 325.466 390 352.993 390.678 380.831 404.763 c 0
 422.659 425.926 445.003 468.944 445.003 514.986 c 0
 445.003 561.985 421.629 607.921 376.619 630.5 c 0
 347.19 645.263 318.165 646 288 646 c 2
 157 646 l 1
EndSplineSet
Validated: 1
EndChar

StartChar: Abreve
Encoding: 258 258 230
Width: 600
GlyphClass: 2
Flags: W
LayerCount: 2
Fore
SplineSet
158 909 m 1
 184.428 867.212 231.085 826.993 288.32 826.993 c 0
 336.638 826.993 386.467 856.856 426 908 c 1
 459 860 l 1
 419.784 806.838 358.515 766.983 288.498 766.983 c 0
 225.205 766.983 161.965 800.673 116 856 c 1
 158 909 l 1
27 -1 m 1
 282 735 l 1
 291 735 l 1
 570 0 l 1
 486 0 l 1
 406 211 l 1
 177 211 l 1
 107 -1 l 1
 27 -1 l 1
388 274 m 1
 286 549 l 1
 193 274 l 1
 388 274 l 1
EndSplineSet
Validated: 1
EndChar

StartChar: Lacute
Encoding: 313 313 231
Width: 600
GlyphClass: 2
Flags: W
LayerCount: 2
Fore
SplineSet
367 917 m 1
 413 836 l 1
 217 765 l 1
 190 813 l 1
 367 917 l 1
87 722 m 1
 181 722 l 1
 182.252 713.763 178.671 707.037 176.957 703.776 c 0
 173.543 697.278 171 693.469 171 683 c 2
 171 69 l 1
 519 69 l 1
 519 -1 l 1
 87 -1 l 1
 87 722 l 1
EndSplineSet
Validated: 33
EndChar

StartChar: Cacute
Encoding: 262 262 232
Width: 600
GlyphClass: 2
Flags: W
LayerCount: 2
Fore
SplineSet
367 917 m 1
 413 836 l 1
 217 765 l 1
 190 813 l 1
 367 917 l 1
331.618 728 m 0
 427.542 728 514.176 672.042 553 585 c 1
 476 547 l 1
 470.67 550.736 470.716 557.019 470.716 558.375 c 0
 470.716 561.257 471.207 564.142 471.207 567.016 c 0
 471.207 572.403 469.516 575.396 467.216 579.368 c 0
 438.075 629.699 385.397 663.168 328.882 663.168 c 0
 226.816 663.168 135.987 555.779 135.987 363.969 c 0
 135.987 168.839 229.418 57.9941 335.655 57.9941 c 0
 392.317 57.9941 449.702 90.8848 483 146 c 1
 543 107 l 1
 497.694 32.9785 417.217 -12.002 331.109 -12.002 c 0
 212.178 -12.002 56.9668 77.8506 56.9668 356.807 c 0
 56.9668 645.838 219.327 728 331.618 728 c 0
EndSplineSet
Validated: 1
EndChar

StartChar: Ccaron
Encoding: 268 268 233
Width: 600
GlyphClass: 2
Flags: W
LayerCount: 2
Fore
SplineSet
489 875 m 1
 337 760 l 1
 312 760 l 1
 169 873 l 1
 207 917 l 1
 327 835 l 1
 456 914 l 1
 489 875 l 1
331.618 728 m 0
 427.542 728 514.176 672.042 553 585 c 1
 476 547 l 1
 470.67 550.736 470.716 557.019 470.716 558.375 c 0
 470.716 561.257 471.207 564.142 471.207 567.016 c 0
 471.207 572.403 469.516 575.396 467.216 579.368 c 0
 438.075 629.699 385.397 663.168 328.882 663.168 c 0
 226.816 663.168 135.987 555.779 135.987 363.969 c 0
 135.987 168.839 229.418 57.9941 335.655 57.9941 c 0
 392.317 57.9941 449.702 90.8848 483 146 c 1
 543 107 l 1
 497.694 32.9785 417.217 -12.002 331.109 -12.002 c 0
 212.178 -12.002 56.9668 77.8506 56.9668 356.807 c 0
 56.9668 645.838 219.327 728 331.618 728 c 0
EndSplineSet
Validated: 1
EndChar

StartChar: Eogonek
Encoding: 280 280 234
Width: 600
GlyphClass: 2
Flags: W
LayerCount: 2
Fore
SplineSet
439 0 m 1
 516 0 l 1
 477.042 -34.9922 448.396 -66.5967 438.556 -77.7402 c 0
 430.412 -86.9648 419.048 -100.705 419.048 -117.842 c 0
 419.048 -135.64 431.849 -150.797 452.947 -150.797 c 0
 460.138 -150.797 468.677 -149.114 480.857 -144.679 c 0
 498.957 -138.087 510.634 -130.111 518 -124 c 1
 518 -177 l 1
 495.28 -196.689 466.7 -204.002 437.9 -204.002 c 0
 377.858 -204.002 347.051 -171.745 347.051 -133.094 c 0
 347.051 -95.7617 378.962 -49.5293 439 0 c 1
78 723 m 1
 521 723 l 1
 521 651 l 1
 155 651 l 1
 155 414 l 1
 457 414 l 1
 457 340 l 1
 155 340 l 1
 155 72 l 1
 518 72 l 1
 518 0 l 1
 78 0 l 1
 78 723 l 1
EndSplineSet
Validated: 5
EndChar

StartChar: Ecaron
Encoding: 282 282 235
Width: 600
GlyphClass: 2
Flags: W
LayerCount: 2
Fore
SplineSet
470 875 m 1
 318 760 l 1
 293 760 l 1
 150 873 l 1
 188 917 l 1
 308 835 l 1
 437 914 l 1
 470 875 l 1
78 723 m 1
 521 723 l 1
 521 651 l 1
 155 651 l 1
 155 414 l 1
 457 414 l 1
 457 340 l 1
 155 340 l 1
 155 72 l 1
 518 72 l 1
 518 0 l 1
 78 0 l 1
 78 723 l 1
EndSplineSet
Validated: 1
EndChar

StartChar: Dcaron
Encoding: 270 270 236
Width: 600
GlyphClass: 2
Flags: W
LayerCount: 2
Fore
SplineSet
440 875 m 1
 288 760 l 1
 263 760 l 1
 120 873 l 1
 158 917 l 1
 278 835 l 1
 407 914 l 1
 440 875 l 1
72 722 m 1
 241 722 l 2
 304.677 722 356.645 717.434 409.104 683.3 c 0
 501.966 622.876 543.181 501.213 543.181 362.199 c 0
 543.181 204.202 486.7 81.1934 383.192 27.9785 c 0
 332.292 1.81055 284.391 -1 227 -1 c 2
 72 -1 l 1
 72 722 l 1
149 653 m 1
 149 63 l 1
 223 63 l 2
 268.397 63 312.737 65.0195 358.002 95.5625 c 0
 415.69 134.488 461.352 213.696 461.352 351.331 c 0
 461.352 455.017 438.945 557.739 371.85 613.352 c 0
 327.165 650.39 281.491 653 236 653 c 2
 149 653 l 1
EndSplineSet
Validated: 1
EndChar

StartChar: Dcroat
Encoding: 272 272 237
Width: 600
GlyphClass: 2
Flags: W
LayerCount: 2
Fore
SplineSet
101 722 m 1
 263 722 l 2
 325.631 722 375.745 716.402 426.079 679.13 c 0
 512.98 614.782 550.114 487.96 550.114 365.114 c 0
 550.114 211.219 490.967 72.9824 379.857 21.249 c 0
 338.865 2.16309 300.228 -1 249 -1 c 2
 101 -1 l 1
 101 722 l 1
176 654 m 1
 176 66 l 1
 245 66 l 2
 286.258 66 324.723 68.2383 365.552 95.7969 c 0
 435.377 142.927 472.256 240.81 472.256 355.09 c 0
 472.256 435.567 454.827 524.974 411.342 584.517 c 0
 362.022 652.05 302.634 654 258 654 c 2
 176 654 l 1
45 416 m 1
 297 416 l 1
 297 349 l 1
 45 349 l 1
 45 416 l 1
EndSplineSet
Validated: 5
EndChar

StartChar: Nacute
Encoding: 323 323 238
Width: 600
GlyphClass: 2
Flags: W
LayerCount: 2
Fore
SplineSet
367 917 m 1
 413 836 l 1
 217 765 l 1
 190 813 l 1
 367 917 l 1
68 0 m 1
 68 722 l 1
 147 722 l 1
 450 187 l 1
 450 723 l 1
 536 723 l 1
 536.929 716.255 533.916 710.683 532.621 708.22 c 0
 529.844 702.938 528 700.058 528 692 c 2
 528 -1 l 1
 464 -1 l 1
 146 568 l 1
 146 0 l 1
 68 0 l 1
EndSplineSet
Validated: 1
EndChar

StartChar: Ncaron
Encoding: 327 327 239
Width: 600
GlyphClass: 2
Flags: W
LayerCount: 2
Fore
SplineSet
470 875 m 1
 318 760 l 1
 293 760 l 1
 150 873 l 1
 188 917 l 1
 308 835 l 1
 437 914 l 1
 470 875 l 1
68 0 m 1
 68 722 l 1
 147 722 l 1
 450 187 l 1
 450 723 l 1
 536 723 l 1
 536.929 716.255 533.916 710.683 532.621 708.22 c 0
 529.844 702.938 528 700.058 528 692 c 2
 528 -1 l 1
 464 -1 l 1
 146 568 l 1
 146 0 l 1
 68 0 l 1
EndSplineSet
Validated: 1
EndChar

StartChar: Ohungarumlaut
Encoding: 336 336 240
Width: 600
GlyphClass: 2
Flags: W
LayerCount: 2
Fore
SplineSet
486 939 m 1
 540 864 l 1
 371 747 l 1
 334 795 l 1
 486 939 l 1
280 939 m 1
 334 864 l 1
 165 747 l 1
 128 795 l 1
 280 939 l 1
556.008 359.504 m 0
 556.008 296.095 551.428 206.273 513.069 128.645 c 0
 465.538 32.457 382.426 -11.0146 304.485 -11.0146 c 0
 193.976 -11.0146 44 78.3984 44 362.113 c 0
 44 645.884 196.081 730 303.761 730 c 0
 382.353 730 464.443 686.67 511.792 593.902 c 0
 551.172 516.748 556.008 427.05 556.008 359.504 c 0
300.361 654.01 m 0
 224.496 654.01 123.971 587.911 123.971 372.659 c 0
 123.971 143.053 223.619 67.9873 304.834 67.9873 c 0
 353.415 67.9873 409.355 95.4453 442.765 165.717 c 0
 472.355 227.951 475.085 301.614 475.085 348.897 c 0
 475.085 410.01 471.386 479.154 446.984 539.849 c 0
 413.335 623.543 351.591 654.01 300.361 654.01 c 0
EndSplineSet
Validated: 1
EndChar

StartChar: Rcaron
Encoding: 344 344 241
Width: 600
GlyphClass: 2
Flags: W
LayerCount: 2
Fore
SplineSet
470 875 m 1
 318 760 l 1
 293 760 l 1
 150 873 l 1
 188 917 l 1
 308 835 l 1
 437 914 l 1
 470 875 l 1
75 722 m 1
 288 722 l 2
 334.667 722 380.248 720.95 425.988 697.719 c 0
 492.448 663.965 528.143 596.481 528.143 523.979 c 0
 528.143 428.394 468.499 345.903 381 322 c 1
 548 0 l 1
 457 0 l 1
 297 319 l 1
 157 319 l 1
 157 0 l 1
 75 0 l 1
 75 722 l 1
157 646 m 1
 157 390 l 1
 297 390 l 2
 325.466 390 352.993 390.678 380.831 404.763 c 0
 422.659 425.926 445.003 468.944 445.003 514.986 c 0
 445.003 561.985 421.629 607.921 376.619 630.5 c 0
 347.19 645.263 318.165 646 288 646 c 2
 157 646 l 1
EndSplineSet
Validated: 1
EndChar

StartChar: Uring
Encoding: 366 366 242
Width: 600
GlyphClass: 2
Flags: W
LayerCount: 2
Fore
SplineSet
409.005 818.997 m 0
 409.005 763.145 362.039 716.958 302.924 716.958 c 0
 243.95 716.958 196.921 763.101 196.921 819.065 c 0
 196.921 874.856 243.86 921.005 302.911 921.005 c 0
 362.013 921.005 409.005 874.837 409.005 818.997 c 0
255.914 819.774 m 0
 255.914 790.11 277.627 766.896 303.995 766.896 c 0
 330.032 766.896 352.035 789.837 352.035 820.068 c 0
 352.035 849.828 330.332 873.012 304.022 873.012 c 0
 278 873.012 255.914 850.072 255.914 819.774 c 0
68 722 m 1
 159 722 l 1
 159.791 720.163 160.2 718.172 160.2 716.15 c 0
 160.2 709.235 155.631 704.498 152.571 700.195 c 0
 148.296 694.182 148 690.266 148 685 c 2
 148 248 l 2
 148 212.142 148.701 177.155 165.336 141.578 c 0
 191.299 86.0527 245.805 55.9209 303.067 55.9209 c 0
 359.414 55.9209 413.783 85.3438 440.467 140.549 c 0
 458.225 177.288 459 213.693 459 251 c 2
 459 722 l 1
 536 722 l 1
 536 253 l 2
 536 200.192 534.408 150.173 507.085 99.8135 c 0
 466.018 24.125 384.91 -13.0732 301.461 -13.0732 c 0
 216.265 -13.0732 136.155 24.9775 96.1416 99.2168 c 0
 69.4092 148.814 68 197.96 68 249 c 1
 68 249 l 1
 68 722 l 1
EndSplineSet
Validated: 1
EndChar

StartChar: Uhungarumlaut
Encoding: 368 368 243
Width: 600
GlyphClass: 2
Flags: W
LayerCount: 2
Fore
SplineSet
486 939 m 1
 540 864 l 1
 371 747 l 1
 334 795 l 1
 486 939 l 1
280 939 m 1
 334 864 l 1
 165 747 l 1
 128 795 l 1
 280 939 l 1
68 722 m 1
 159 722 l 1
 159.791 720.163 160.2 718.172 160.2 716.15 c 0
 160.2 709.235 155.631 704.498 152.571 700.195 c 0
 148.296 694.182 148 690.266 148 685 c 2
 148 248 l 2
 148 212.142 148.701 177.155 165.336 141.578 c 0
 191.299 86.0527 245.805 55.9209 303.067 55.9209 c 0
 359.414 55.9209 413.783 85.3438 440.467 140.549 c 0
 458.225 177.288 459 213.693 459 251 c 2
 459 722 l 1
 536 722 l 1
 536 253 l 2
 536 200.192 534.408 150.173 507.085 99.8135 c 0
 466.018 24.125 384.91 -13.0732 301.461 -13.0732 c 0
 216.265 -13.0732 136.155 24.9775 96.1416 99.2168 c 0
 69.4092 148.814 68 197.96 68 249 c 1
 68 249 l 1
 68 722 l 1
EndSplineSet
Validated: 1
EndChar

StartChar: Tcedilla
Encoding: 354 354 244
Width: 600
GlyphClass: 2
Flags: W
LayerCount: 2
Fore
SplineSet
269 0 m 1
 319 0 l 1
 313 -55 l 1
 332 -56 l 2
 346.785 -56.7783 361.994 -57.7168 376.883 -64.9414 c 0
 398.973 -75.6602 411.07 -96.4922 411.07 -118.956 c 0
 411.07 -160.352 370.433 -205.092 285.389 -205.092 c 0
 240.871 -205.092 191.296 -192.447 148 -162 c 1
 177 -114 l 1
 213.397 -143.353 257.031 -155.011 292.064 -155.011 c 0
 337.118 -155.011 345.002 -136.826 345.002 -126.739 c 0
 345.002 -119.915 341.46 -112.176 332.38 -106.611 c 0
 319.902 -98.9639 303.2 -99 290 -99 c 2
 256 -99 l 1
 269 0 l 1
46 723 m 1
 546 723 l 1
 546 650 l 1
 333 650 l 1
 333 -1 l 1
 251 -1 l 1
 251 650 l 1
 46 650 l 1
 46 723 l 1
EndSplineSet
Validated: 37
EndChar

StartChar: aogonek
Encoding: 261 261 245
Width: 600
GlyphClass: 2
Flags: W
LayerCount: 2
Fore
SplineSet
436 0 m 1
 513 0 l 1
 474.042 -34.9922 445.396 -66.5967 435.556 -77.7402 c 0
 427.412 -86.9648 416.048 -100.705 416.048 -117.842 c 0
 416.048 -135.64 428.849 -150.797 449.947 -150.797 c 0
 457.138 -150.797 465.677 -149.114 477.857 -144.679 c 0
 495.957 -138.087 507.634 -130.111 515 -124 c 1
 515 -177 l 1
 492.28 -196.689 463.7 -204.002 434.9 -204.002 c 0
 374.858 -204.002 344.051 -171.745 344.051 -133.094 c 0
 344.051 -95.7617 375.962 -49.5293 436 0 c 1
115 467 m 1
 164.456 518.083 232.512 541.055 303.925 541.055 c 0
 386.091 541.055 453.267 510.995 488.008 453.097 c 0
 512.442 412.375 514 371.39 514 328 c 2
 514 0 l 1
 435 0 l 1
 435 58 l 1
 377.24 10.665 309.94 -13.002 244.918 -13.002 c 0
 134.316 -13.002 66.8184 59.1631 66.8184 136.825 c 0
 66.8184 195.507 104.707 257.379 188.205 288.065 c 0
 255.557 312.817 339.023 312 417 312 c 2
 434 312 l 1
 434 331 l 2
 434 359.055 434.409 393.114 416.772 422.078 c 0
 401.83 446.615 370.745 473.031 307.869 473.031 c 0
 258.955 473.031 199.358 459.393 156 414 c 1
 115 467 l 1
437 248 m 1
 418 248 l 2
 362.991 248 292.114 251.465 244.035 239.987 c 0
 177.665 224.143 150.668 180.909 150.668 142.456 c 0
 150.668 95.1367 191.681 50.8145 261.864 50.8145 c 0
 331.199 50.8145 381.823 92.8438 401.058 113.287 c 0
 436.77 151.242 437 185.578 437 213 c 2
 437 248 l 1
EndSplineSet
Validated: 37
EndChar

StartChar: abreve
Encoding: 259 259 246
Width: 600
GlyphClass: 2
Flags: W
LayerCount: 2
Fore
SplineSet
179 749 m 1
 205.428 707.212 252.085 666.993 309.32 666.993 c 0
 357.638 666.993 407.467 696.856 447 748 c 1
 480 700 l 1
 440.784 646.838 379.515 606.983 309.498 606.983 c 0
 246.205 606.983 182.965 640.673 137 696 c 1
 179 749 l 1
115 467 m 1
 164.456 518.083 232.512 541.055 303.925 541.055 c 0
 386.091 541.055 453.267 510.995 488.008 453.097 c 0
 512.442 412.375 514 371.39 514 328 c 2
 514 0 l 1
 435 0 l 1
 435 58 l 1
 377.24 10.665 309.94 -13.002 244.918 -13.002 c 0
 134.316 -13.002 66.8184 59.1631 66.8184 136.825 c 0
 66.8184 195.507 104.707 257.379 188.205 288.065 c 0
 255.557 312.817 339.023 312 417 312 c 2
 434 312 l 1
 434 331 l 2
 434 359.055 434.409 393.114 416.772 422.078 c 0
 401.83 446.615 370.745 473.031 307.869 473.031 c 0
 258.955 473.031 199.358 459.393 156 414 c 1
 115 467 l 1
437 248 m 1
 418 248 l 2
 362.991 248 292.114 251.465 244.035 239.987 c 0
 177.665 224.143 150.668 180.909 150.668 142.456 c 0
 150.668 95.1367 191.681 50.8145 261.864 50.8145 c 0
 331.199 50.8145 381.823 92.8438 401.058 113.287 c 0
 436.77 151.242 437 185.578 437 213 c 2
 437 248 l 1
EndSplineSet
Validated: 33
EndChar

StartChar: ccaron
Encoding: 269 269 247
Width: 600
GlyphClass: 2
Flags: W
LayerCount: 2
Fore
SplineSet
539 442 m 1
 480 373 l 1
 470.825 379.924 477.126 390.809 472.703 399.753 c 0
 469.634 405.96 426.164 469.074 335.78 469.074 c 0
 238.504 469.074 160.969 393.768 160.969 273.126 c 0
 160.969 149.42 239.6 62.9785 342.756 62.9785 c 0
 395.811 62.9785 447.209 86.4434 483 127 c 1
 531 71 l 1
 480.516 16.5811 409.688 -13.001 335.781 -13.001 c 0
 186.048 -13.001 75 104.892 75 264.509 c 0
 75 423.38 185.476 540.028 341.051 540.028 c 0
 426.18 540.028 497.315 503.103 539 442 c 1
447 763 m 1
 318 600 l 1
 293 600 l 1
 165 764 l 1
 219 804 l 1
 309 685 l 1
 403 803 l 1
 447 763 l 1
EndSplineSet
Validated: 1
EndChar

StartChar: dcaron
Encoding: 271 271 248
Width: 600
GlyphClass: 2
Flags: W
LayerCount: 2
Fore
SplineSet
368 452 m 1
 368 771 l 1
 447 771 l 1
 447 49 l 2
 447 32.9912 447.786 16.2109 452 0 c 1
 369 -0 l 1
 364.758 12.8477 364 26.4229 364 39 c 2
 364 85 l 1
 331.672 29.4834 274.15 -12.0137 209.491 -12.0137 c 0
 97.8564 -12.0137 9.99805 105.708 9.99805 268.875 c 0
 9.99805 443.625 112.896 543.229 220.226 543.229 c 0
 283.503 543.229 340.554 507.905 368 452 c 1
224.355 475.159 m 0
 149.202 475.159 90.9326 392.788 90.9326 278.778 c 0
 90.9326 171.018 142.047 61.8809 227.749 61.8809 c 0
 273.538 61.8809 313.654 94.3154 335.297 129.689 c 0
 358.192 167.108 361.312 207.25 361.312 255.021 c 0
 361.312 325.707 359.836 363.117 343.568 397.27 c 0
 320.505 445.688 266.85 475.159 224.355 475.159 c 0
597.838 700.66 m 0
 597.838 652.396 563.881 591.946 499.316 526.392 c 1
 467.316 554.392 l 1
 489.301 574.611 504.877 597.169 513.932 612.045 c 0
 518.458 619.481 527.657 635.325 527.657 650.665 c 0
 527.657 669.75 513.997 678.285 505.943 683.642 c 0
 497.754 689.089 480.095 699.747 480.095 724.674 c 0
 480.095 752.672 502.944 777.536 533.454 777.536 c 0
 566.426 777.536 597.838 748.099 597.838 700.66 c 0
EndSplineSet
Validated: 1
EndChar

StartChar: eogonek
Encoding: 281 281 249
Width: 600
GlyphClass: 2
Flags: W
LayerCount: 2
Fore
SplineSet
309.849 542.279 m 0
 396.962 542.279 495.688 495.776 519.466 353.281 c 0
 524.639 322.28 526.143 288.584 522.997 253.004 c 1
 147.295 253.004 l 1
 153.595 94.4893 256.128 55.4443 326.95 55.4443 c 0
 379.586 55.4443 429.493 76.3604 463.997 115.003 c 1
 509.997 70.0029 l 1
 468.997 19.0029 l 2
 429.069 -30.666 396.599 -67.9541 396.599 -101.805 c 0
 396.599 -127.996 415.586 -147.004 441.831 -147.004 c 0
 447.911 -147.004 467.619 -146.294 500.998 -124.998 c 1
 499.998 -181.998 l 1
 478.221 -193.94 451.108 -202.752 423.729 -202.752 c 0
 365.922 -202.752 327.821 -164.027 327.821 -116.523 c 0
 327.821 -82.2871 349.346 -41.4453 391.999 -0.999023 c 1
 366.184 -8.27539 339.548 -12.0049 312.826 -12.0049 c 0
 173.798 -12.0049 66.4385 87.3652 66.4385 261.323 c 0
 66.4385 451.743 183.57 542.279 309.849 542.279 c 0
150.005 317.004 m 1
 440.996 317.004 l 1
 450.938 402.843 389.677 478.173 303.88 478.173 c 0
 247.069 478.173 166.492 441.854 150.005 317.004 c 1
EndSplineSet
Validated: 33
EndChar

StartChar: lcaron
Encoding: 318 318 250
Width: 600
GlyphClass: 2
Flags: W
LayerCount: 2
Fore
SplineSet
557.837 700.661 m 0
 557.837 652.397 523.88 591.947 459.315 526.393 c 1
 427.315 554.393 l 1
 449.3 574.612 464.876 597.17 473.931 612.046 c 0
 478.457 619.482 487.656 635.326 487.656 650.666 c 0
 487.656 669.751 473.996 678.286 465.942 683.643 c 0
 457.753 689.09 440.094 699.748 440.094 724.675 c 0
 440.094 752.673 462.943 777.537 493.453 777.537 c 0
 526.425 777.537 557.837 748.1 557.837 700.661 c 0
88 770 m 1
 322 770 l 1
 322 67 l 1
 478 67 l 1
 478 0 l 1
 81 0 l 1
 81 67 l 1
 238 67 l 1
 238 703 l 1
 88 703 l 1
 88 770 l 1
EndSplineSet
Validated: 1
EndChar

StartChar: lacute
Encoding: 314 314 251
Width: 600
GlyphClass: 2
Flags: W
LayerCount: 2
Fore
SplineSet
108 770 m 1
 342 770 l 1
 342 67 l 1
 498 67 l 1
 498 0 l 1
 101 0 l 1
 101 67 l 1
 258 67 l 1
 258 703 l 1
 108 703 l 1
 108 770 l 1
367 967 m 1
 413 886 l 1
 217 815 l 1
 190 863 l 1
 367 967 l 1
EndSplineSet
Validated: 1
EndChar

StartChar: nacute
Encoding: 324 324 252
Width: 600
GlyphClass: 2
Flags: W
LayerCount: 2
Fore
SplineSet
348 810 m 1
 421 761 l 1
 304 605 l 1
 246 640 l 1
 348 810 l 1
89 0 m 1
 89 529 l 1
 174 529 l 1
 174 436 l 1
 212.871 495.002 278.12 542.003 349.957 542.003 c 0
 410.281 542.003 464.544 508.129 490.899 448.568 c 0
 509.729 406.014 510 362.334 510 321 c 1
 510 321 l 1
 510 0 l 1
 428 0 l 1
 428 319 l 2
 428 356.393 427.762 401.823 399.11 436.061 c 0
 380.097 458.781 353.908 469.58 327.341 469.58 c 0
 271.362 469.58 220.49 422.787 200.308 395.893 c 0
 178.287 366.55 174 340.651 174 305 c 2
 174 0 l 1
 89 0 l 1
EndSplineSet
Validated: 1
EndChar

StartChar: ncaron
Encoding: 328 328 253
Width: 600
GlyphClass: 2
Flags: W
LayerCount: 2
Fore
SplineSet
447 763 m 1
 318 600 l 1
 293 600 l 1
 165 764 l 1
 219 804 l 1
 309 685 l 1
 403 803 l 1
 447 763 l 1
89 0 m 1
 89 529 l 1
 174 529 l 1
 174 436 l 1
 212.871 495.002 278.12 542.003 349.957 542.003 c 0
 410.281 542.003 464.544 508.129 490.899 448.568 c 0
 509.729 406.014 510 362.334 510 321 c 1
 510 321 l 1
 510 0 l 1
 428 0 l 1
 428 319 l 2
 428 356.393 427.762 401.823 399.11 436.061 c 0
 380.097 458.781 353.908 469.58 327.341 469.58 c 0
 271.362 469.58 220.49 422.787 200.308 395.893 c 0
 178.287 366.55 174 340.651 174 305 c 2
 174 0 l 1
 89 0 l 1
EndSplineSet
Validated: 1
EndChar

StartChar: ohungarumlaut
Encoding: 337 337 254
Width: 600
GlyphClass: 2
Flags: W
LayerCount: 2
Fore
SplineSet
258 810 m 1
 331 761 l 1
 214 605 l 1
 156 640 l 1
 258 810 l 1
438 810 m 1
 511 761 l 1
 394 605 l 1
 336 640 l 1
 438 810 l 1
543.113 262.304 m 0
 543.113 86.8047 430.326 -14 304.969 -14 c 0
 171.548 -14 56.8682 99.5322 56.8682 260.578 c 0
 56.8682 424.14 172.53 541.005 307.44 541.005 c 0
 427.751 541.005 543.113 445.084 543.113 262.304 c 0
301.758 470.103 m 0
 220.795 470.103 144.985 397.575 144.985 267.806 c 0
 144.985 137.225 221.249 57.9932 305.614 57.9932 c 0
 382.884 57.9932 459.167 125.6 459.167 258.844 c 0
 459.167 404.202 378.128 470.103 301.758 470.103 c 0
EndSplineSet
Validated: 1
EndChar

StartChar: rcaron
Encoding: 345 345 255
Width: 600
GlyphClass: 2
Flags: W
LayerCount: 2
Fore
SplineSet
447 763 m 1
 318 600 l 1
 293 600 l 1
 165 764 l 1
 219 804 l 1
 309 685 l 1
 403 803 l 1
 447 763 l 1
125 529 m 1
 212 529 l 1
 209 427 l 1
 243.671 502.684 322.168 541.803 399.502 541.803 c 0
 458.959 541.803 507.697 518.114 541 484 c 1
 502 404 l 1
 493.106 412.505 489.308 421.668 482.352 430.554 c 0
 467.489 449.542 439.485 470.205 394.944 470.205 c 0
 357.514 470.205 294.325 457.033 246.222 380.981 c 0
 210.237 324.088 209 288.944 209 257 c 2
 209 -1 l 1
 125 -1 l 1
 125 529 l 1
EndSplineSet
Validated: 1
EndChar

StartChar: sacute
Encoding: 347 347 256
Width: 600
GlyphClass: 2
Flags: W
LayerCount: 2
Fore
SplineSet
348 810 m 1
 421 761 l 1
 304 605 l 1
 246 640 l 1
 348 810 l 1
511 459 m 1
 462 386 l 1
 459.954 386.487 455.921 388.387 455.967 395.318 c 0
 455.994 399.389 456.754 402.17 453.49 406.383 c 0
 433.342 432.386 382.005 479.074 306.539 479.074 c 0
 246.687 479.074 195 449.386 195 406.786 c 0
 195 389 204.202 363.327 247.446 342.429 c 0
 296.926 318.517 382.175 306.562 441.996 272.983 c 0
 504.635 237.822 519.699 189.926 519.699 153.285 c 0
 519.699 73.3789 444.137 -12 299.462 -12 c 0
 219.049 -12 138.142 14.2178 76 72 c 1
 124 155 l 1
 129.709 152.331 129.203 145.694 129.13 144.104 c 0
 128.917 139.47 128.401 136.208 132.349 131.72 c 0
 149.099 112.681 207.222 58 297.964 58 c 0
 373.592 58 434.068 92.168 434.068 141.757 c 0
 434.068 160.887 424.919 188.765 381.245 209.208 c 0
 342.194 227.486 283.74 241.548 238.968 257.732 c 0
 210.234 268.119 109.997 301.799 109.997 394.231 c 0
 109.997 473.3 190.548 542.004 313.496 542.004 c 0
 391.8 542.004 462.083 512.905 511 459 c 1
EndSplineSet
Validated: 1
EndChar

StartChar: cacute
Encoding: 263 263 257
Width: 600
GlyphClass: 2
Flags: W
LayerCount: 2
Fore
SplineSet
348 810 m 1
 421 761 l 1
 304 605 l 1
 246 640 l 1
 348 810 l 1
539 442 m 1
 480 373 l 1
 470.825 379.924 477.126 390.809 472.703 399.753 c 0
 469.634 405.96 426.164 469.074 335.78 469.074 c 0
 238.504 469.074 160.969 393.768 160.969 273.126 c 0
 160.969 149.42 239.6 62.9785 342.756 62.9785 c 0
 395.811 62.9785 447.209 86.4434 483 127 c 1
 531 71 l 1
 480.516 16.5811 409.688 -13.001 335.781 -13.001 c 0
 186.048 -13.001 75 104.892 75 264.509 c 0
 75 423.38 185.476 540.028 341.051 540.028 c 0
 426.18 540.028 497.315 503.103 539 442 c 1
EndSplineSet
Validated: 1
EndChar

StartChar: scedilla
Encoding: 351 351 258
Width: 600
GlyphClass: 2
Flags: W
LayerCount: 2
Fore
SplineSet
283 0 m 1
 333 0 l 1
 327 -55 l 1
 346 -56 l 2
 360.785 -56.7783 375.994 -57.7168 390.883 -64.9414 c 0
 412.973 -75.6602 425.07 -96.4922 425.07 -118.956 c 0
 425.07 -160.352 384.433 -205.092 299.389 -205.092 c 0
 254.871 -205.092 205.296 -192.447 162 -162 c 1
 191 -114 l 1
 227.397 -143.353 271.031 -155.011 306.064 -155.011 c 0
 351.118 -155.011 359.002 -136.826 359.002 -126.739 c 0
 359.002 -119.915 355.46 -112.176 346.38 -106.611 c 0
 333.902 -98.9639 317.2 -99 304 -99 c 2
 270 -99 l 1
 283 0 l 1
511 459 m 1
 462 386 l 1
 459.954 386.487 455.921 388.387 455.967 395.318 c 0
 455.994 399.389 456.754 402.17 453.49 406.383 c 0
 433.342 432.386 382.005 479.074 306.539 479.074 c 0
 246.687 479.074 195 449.386 195 406.786 c 0
 195 389 204.202 363.327 247.446 342.429 c 0
 296.926 318.517 382.175 306.562 441.996 272.983 c 0
 504.635 237.822 519.699 189.926 519.699 153.285 c 0
 519.699 73.3789 444.137 -12 299.462 -12 c 0
 219.049 -12 138.142 14.2178 76 72 c 1
 124 155 l 1
 129.709 152.331 129.203 145.694 129.13 144.104 c 0
 128.917 139.47 128.401 136.208 132.349 131.72 c 0
 149.099 112.681 207.222 58 297.964 58 c 0
 373.592 58 434.068 92.168 434.068 141.757 c 0
 434.068 160.887 424.919 188.765 381.245 209.208 c 0
 342.194 227.486 283.74 241.548 238.968 257.732 c 0
 210.234 268.119 109.997 301.799 109.997 394.231 c 0
 109.997 473.3 190.548 542.004 313.496 542.004 c 0
 391.8 542.004 462.083 512.905 511 459 c 1
EndSplineSet
Validated: 37
EndChar

StartChar: tcedilla
Encoding: 355 355 259
Width: 600
GlyphClass: 2
Flags: W
LayerCount: 2
Fore
SplineSet
333 0 m 1
 383 0 l 1
 377 -55 l 1
 396 -56 l 2
 410.785 -56.7783 425.994 -57.7168 440.883 -64.9414 c 0
 462.973 -75.6602 475.07 -96.4922 475.07 -118.956 c 0
 475.07 -160.352 434.433 -205.092 349.389 -205.092 c 0
 304.871 -205.092 255.296 -192.447 212 -162 c 1
 241 -114 l 1
 277.397 -143.353 321.031 -155.011 356.064 -155.011 c 0
 401.118 -155.011 409.002 -136.826 409.002 -126.739 c 0
 409.002 -119.915 405.46 -112.176 396.38 -106.611 c 0
 383.902 -98.9639 367.2 -99 354 -99 c 2
 320 -99 l 1
 333 0 l 1
228 671 m 1
 319 686 l 1
 323.069 674.25 314.74 667.101 312.438 654.7 c 0
 306.99 625.35 299 530 299 530 c 1
 472 530 l 1
 472 461 l 1
 298 461 l 1
 291.31 392.178 287.955 323.066 287.955 253.871 c 0
 287.955 177.138 290.735 156.77 291.356 152.111 c 0
 299.829 88.5391 340.908 66.6738 380.424 66.6738 c 0
 413.027 66.6738 454.079 81.5986 499 115 c 1
 525 49 l 1
 480.23 16.2305 418.815 -10.1211 355.783 -10.1211 c 0
 301.714 -10.1211 260.342 10.8887 235.238 46.2598 c 0
 204.429 89.6689 204 142.866 204 190.358 c 0
 204 280.259 207.611 370.358 215 461 c 1
 91 461 l 1
 92 529 l 1
 218 529 l 1
 228 671 l 1
EndSplineSet
Validated: 37
EndChar

StartChar: uring
Encoding: 367 367 260
Width: 600
GlyphClass: 2
Flags: W
LayerCount: 2
Fore
SplineSet
413.005 700.997 m 0
 413.005 645.145 366.039 598.958 306.924 598.958 c 0
 247.95 598.958 200.921 645.101 200.921 701.065 c 0
 200.921 756.856 247.86 803.005 306.911 803.005 c 0
 366.013 803.005 413.005 756.837 413.005 700.997 c 0
259.914 701.774 m 0
 259.914 672.11 281.627 648.896 307.995 648.896 c 0
 334.032 648.896 356.035 671.837 356.035 702.068 c 0
 356.035 731.828 334.332 755.012 308.022 755.012 c 0
 282 755.012 259.914 732.072 259.914 701.774 c 0
83 529 m 1
 167 529 l 1
 167 234 l 2
 167 198.5 166.87 157.109 185.678 119.763 c 0
 206.758 77.9062 245.414 55 286.847 55 c 0
 337.84 55 384.893 89.1885 409.153 133.494 c 0
 426.843 165.8 430 197.247 430 238 c 2
 430 529 l 1
 514 529 l 1
 514 48 l 2
 514 32.4902 514.914 15.8203 520 0 c 1
 432 0 l 1
 429.806 13.6494 429.662 27.4941 430 41 c 2
 431 81 l 1
 396.509 22.585 333.904 -13.0166 267.52 -13.0166 c 0
 198.648 -13.0166 133.916 25.4336 102.995 94.9658 c 0
 82.3164 141.466 81.8438 187.899 82 234 c 2
 83 529 l 1
EndSplineSet
Validated: 33
EndChar

StartChar: uhungarumlaut
Encoding: 369 369 261
Width: 600
GlyphClass: 2
Flags: W
LayerCount: 2
Fore
SplineSet
258 810 m 1
 331 761 l 1
 214 605 l 1
 156 640 l 1
 258 810 l 1
438 810 m 1
 511 761 l 1
 394 605 l 1
 336 640 l 1
 438 810 l 1
83 529 m 1
 167 529 l 1
 167 234 l 2
 167 198.5 166.87 157.109 185.678 119.763 c 0
 206.758 77.9062 245.414 55 286.847 55 c 0
 337.84 55 384.893 89.1885 409.153 133.494 c 0
 426.843 165.8 430 197.247 430 238 c 2
 430 529 l 1
 514 529 l 1
 514 48 l 2
 514 32.4902 514.914 15.8203 520 0 c 1
 432 0 l 1
 429.806 13.6494 429.662 27.4941 430 41 c 2
 431 81 l 1
 396.509 22.585 333.904 -13.0166 267.52 -13.0166 c 0
 198.648 -13.0166 133.916 25.4336 102.995 94.9658 c 0
 82.3164 141.466 81.8438 187.899 82 234 c 2
 83 529 l 1
EndSplineSet
Validated: 33
EndChar

StartChar: zdot
Encoding: 380 380 262
Width: 600
GlyphClass: 2
Flags: W
LayerCount: 2
Fore
SplineSet
92 530 m 1
 504 530 l 1
 504 473 l 1
 181 71 l 1
 496 71 l 2
 512.142 71 516.579 80.1396 531 78 c 1
 531 -1 l 1
 68 -1 l 1
 68 56 l 1
 396 457 l 1
 92 457 l 1
 92 530 l 1
305.003 760 m 0
 338.171 760 365.019 733.28 365.019 700.493 c 0
 365.019 667.727 338.182 640.992 304.99 640.992 c 0
 271.818 640.992 244.981 667.716 244.981 700.486 c 0
 244.981 733.264 271.822 760 305.003 760 c 0
EndSplineSet
Validated: 33
EndChar

StartChar: lslash
Encoding: 322 322 263
Width: 600
GlyphClass: 2
Flags: W
LayerCount: 2
Fore
SplineSet
108 770 m 1
 342 770 l 1
 342 428.9 l 1
 417 455 l 2
 429 459 437 464 448 472 c 1
 448 387 l 1
 342 351.164 l 1
 342 67 l 1
 498 67 l 1
 498 0 l 1
 101 0 l 1
 101 67 l 1
 258 67 l 1
 258 322.765 l 1
 167 292 l 1
 167 368 l 1
 258 399.668 l 1
 258 703 l 1
 108 703 l 1
 108 770 l 1
EndSplineSet
Validated: 1
EndChar

StartChar: ecaron
Encoding: 283 283 264
Width: 600
GlyphClass: 2
Flags: W
LayerCount: 2
Fore
SplineSet
447 763 m 1
 318 600 l 1
 293 600 l 1
 165 764 l 1
 219 804 l 1
 309 685 l 1
 403 803 l 1
 447 763 l 1
309.698 542.271 m 0
 396.487 542.271 495.286 496.221 519.331 354.102 c 0
 524.53 323.371 526.211 289.371 523 253 c 1
 147.298 253 l 1
 153.598 94.4854 256.131 55.4414 326.953 55.4414 c 0
 379.589 55.4414 429.496 76.3574 464 115 c 1
 510 70 l 1
 464.675 15.5068 396.045 -12.1426 320.487 -12.1426 c 0
 176.7 -12.1426 66.2988 82.2266 66.2988 258.611 c 0
 66.2988 451.856 183.262 542.271 309.698 542.271 c 0
150.008 317 m 1
 441 317 l 1
 450.942 402.839 389.68 478.169 303.883 478.169 c 0
 247.072 478.169 166.495 441.85 150.008 317 c 1
EndSplineSet
Validated: 33
EndChar

StartChar: kgreenlandic
Encoding: 312 312 265
Width: 600
GlyphClass: 2
Flags: W
LayerCount: 2
Fore
SplineSet
87 529 m 1
 182 528.999 l 1
 182.131 528.205 182.196 527.402 182.196 526.598 c 0
 182.196 519.678 177.643 515.346 174.832 511.514 c 0
 171.216 506.587 171.001 503.254 171.001 499 c 2
 171.001 286 l 1
 436.001 532 l 1
 456.531 526.949 477.705 526 498.001 526 c 2
 528.001 526 l 1
 305.001 316 l 1
 565.001 -1 l 1
 562.3 -0.982422 559.598 -0.973633 556.896 -0.973633 c 0
 501.401 -0.973633 457 -5 457 -5 c 1
 241 265 l 1
 171 200 l 1
 171 -1 l 1
 87 -1 l 1
 87 529 l 1
EndSplineSet
Validated: 1
EndChar

StartChar: dotlessj
Encoding: 567 567 266
Width: 600
GlyphClass: 2
Flags: W
LayerCount: 2
Fore
SplineSet
156 530 m 1
 437 529.999 l 1
 437 36.999 l 2
 437 -8.68555 435.772 -52.1055 413.163 -96.3818 c 0
 377.277 -166.657 303.238 -202.182 227.699 -202.182 c 0
 162.018 -202.182 103.902 -175.027 66 -128 c 1
 120 -56 l 1
 127.204 -61.9473 125.358 -69.4814 130.11 -77.248 c 0
 134.378 -84.2217 169.009 -130.016 233.016 -130.016 c 0
 277.791 -130.016 319.506 -106.298 339.459 -63.2393 c 0
 352.497 -35.1016 353 -7.27539 353 21 c 2
 353 461 l 1
 156 461 l 1
 156 530 l 1
EndSplineSet
Validated: 1
EndChar

StartChar: eng
Encoding: 331 331 267
Width: 600
GlyphClass: 2
Flags: W
LayerCount: 2
Fore
SplineSet
89 0 m 1
 89.001 529.001 l 1
 174.001 529.001 l 1
 174.001 436.001 l 1
 212.872 495.003 278.121 542.004 349.958 542.004 c 0
 410.282 542.004 464.545 508.13 490.9 448.569 c 0
 509.73 406.016 510.001 362.336 510.001 321.002 c 2
 510.001 65.002 l 2
 510.001 16.9209 509.54 -32.1797 489.488 -81.4951 c 0
 457.361 -160.51 387.103 -203.684 314.114 -203.684 c 0
 273.195 -203.684 233.403 -190.083 201.001 -164.999 c 1
 241.001 -86.999 l 1
 248.912 -88.7295 247.815 -97.6074 250.929 -102.004 c 0
 253.745 -105.981 279.853 -126.182 316.016 -126.182 c 0
 347.935 -126.182 381.004 -110.476 402.717 -76.7217 c 0
 427.984 -37.4424 428.002 10.8906 428.002 52.001 c 2
 428.002 319.001 l 2
 428.002 356.394 427.764 401.823 399.111 436.062 c 0
 380.099 458.781 353.909 469.58 327.342 469.58 c 0
 271.362 469.58 220.49 422.787 200.309 395.894 c 0
 178.287 366.551 174 340.651 174 305 c 2
 174 0 l 1
 89 0 l 1
EndSplineSet
Validated: 1
EndChar

StartChar: quotesinglbase
Encoding: 8218 8218 268
Width: 600
GlyphClass: 2
Flags: W
LayerCount: 2
Fore
SplineSet
364.152 22.835 m 0
 364.152 -37.4941 321.706 -113.057 241 -195 c 1
 201 -160 l 1
 228.481 -134.726 247.951 -106.529 259.27 -87.9336 c 0
 264.928 -78.6377 276.427 -58.834 276.427 -39.6582 c 0
 276.427 -15.8027 259.351 -5.13281 249.284 1.5625 c 0
 239.047 8.37109 216.973 21.6943 216.973 52.8525 c 0
 216.973 87.8496 245.536 118.93 283.672 118.93 c 0
 324.887 118.93 364.152 82.1328 364.152 22.835 c 0
EndSplineSet
Validated: 1
EndChar

StartChar: quotedblleft
Encoding: 8220 8220 269
Width: 600
GlyphClass: 2
Flags: W
LayerCount: 2
Fore
SplineSet
320.994 521.085 m 0
 320.994 581.414 363.44 656.977 444.146 738.92 c 1
 484.146 703.92 l 1
 456.665 678.646 437.195 650.449 425.876 631.854 c 0
 420.218 622.559 408.719 602.754 408.719 583.578 c 0
 408.719 559.723 425.795 549.053 435.862 542.357 c 0
 446.099 535.549 468.173 522.227 468.173 491.067 c 0
 468.173 456.07 439.61 424.99 401.474 424.99 c 0
 360.259 424.99 320.994 461.787 320.994 521.085 c 0
80.9941 521.085 m 0
 80.9941 581.414 123.44 656.977 204.146 738.92 c 1
 244.146 703.92 l 1
 216.665 678.646 197.195 650.449 185.876 631.854 c 0
 180.218 622.559 168.719 602.754 168.719 583.578 c 0
 168.719 559.723 185.795 549.053 195.862 542.357 c 0
 206.099 535.549 228.173 522.227 228.173 491.067 c 0
 228.173 456.07 199.61 424.99 161.474 424.99 c 0
 120.259 424.99 80.9941 461.787 80.9941 521.085 c 0
EndSplineSet
Validated: 1
EndChar

StartChar: quotedblright
Encoding: 8221 8221 270
Width: 600
GlyphClass: 2
Flags: W
LayerCount: 2
Fore
SplineSet
244.152 642.835 m 0
 244.152 582.506 201.706 506.943 121 425 c 1
 81 460 l 1
 108.481 485.274 127.951 513.471 139.27 532.066 c 0
 144.928 541.362 156.427 561.166 156.427 580.342 c 0
 156.427 604.197 139.351 614.867 129.284 621.562 c 0
 119.047 628.371 96.9727 641.694 96.9727 672.853 c 0
 96.9727 707.85 125.536 738.93 163.672 738.93 c 0
 204.887 738.93 244.152 702.133 244.152 642.835 c 0
484.152 642.835 m 0
 484.152 582.506 441.706 506.943 361 425 c 1
 321 460 l 1
 348.481 485.274 367.951 513.471 379.27 532.066 c 0
 384.928 541.362 396.427 561.166 396.427 580.342 c 0
 396.427 604.197 379.351 614.867 369.284 621.562 c 0
 359.047 628.371 336.973 641.694 336.973 672.853 c 0
 336.973 707.85 365.536 738.93 403.672 738.93 c 0
 444.887 738.93 484.152 702.133 484.152 642.835 c 0
EndSplineSet
Validated: 1
EndChar

StartChar: quotedblbase
Encoding: 8222 8222 271
Width: 600
GlyphClass: 2
Flags: W
LayerCount: 2
Fore
SplineSet
484.152 22.835 m 0
 484.152 -37.4941 441.706 -113.057 361 -195 c 1
 321 -160 l 1
 348.481 -134.726 367.951 -106.529 379.27 -87.9336 c 0
 384.928 -78.6377 396.427 -58.834 396.427 -39.6582 c 0
 396.427 -15.8027 379.351 -5.13281 369.284 1.5625 c 0
 359.047 8.37109 336.973 21.6943 336.973 52.8525 c 0
 336.973 87.8496 365.536 118.93 403.672 118.93 c 0
 444.887 118.93 484.152 82.1328 484.152 22.835 c 0
244.152 22.835 m 0
 244.152 -37.4941 201.706 -113.057 121 -195 c 1
 81 -160 l 1
 108.481 -134.726 127.951 -106.529 139.27 -87.9336 c 0
 144.928 -78.6377 156.427 -58.834 156.427 -39.6582 c 0
 156.427 -15.8027 139.351 -5.13281 129.284 1.5625 c 0
 119.047 8.37109 96.9727 21.6943 96.9727 52.8525 c 0
 96.9727 87.8496 125.536 118.93 163.672 118.93 c 0
 204.887 118.93 244.152 82.1328 244.152 22.835 c 0
EndSplineSet
Validated: 1
EndChar

StartChar: ellipsis
Encoding: 8230 8230 272
Width: 600
GlyphClass: 2
Flags: W
LayerCount: 2
Fore
SplineSet
555.002 53.4932 m 0
 555.002 17.0088 524.552 -13.0459 486.441 -13.0459 c 0
 448.415 -13.0459 417.952 16.9805 417.952 53.5088 c 0
 417.952 89.9629 448.383 120.002 486.462 120.002 c 0
 524.556 120.002 555.002 89.9609 555.002 53.4932 c 0
155.002 53.4932 m 0
 155.002 17.0088 124.552 -13.0459 86.4414 -13.0459 c 0
 48.415 -13.0459 17.9521 16.9805 17.9521 53.5088 c 0
 17.9521 89.9629 48.3828 120.002 86.4619 120.002 c 0
 124.556 120.002 155.002 89.9609 155.002 53.4932 c 0
355.002 53.4932 m 0
 355.002 17.0088 324.552 -13.0459 286.441 -13.0459 c 0
 248.415 -13.0459 217.952 16.9805 217.952 53.5088 c 0
 217.952 89.9629 248.383 120.002 286.462 120.002 c 0
 324.556 120.002 355.002 89.9609 355.002 53.4932 c 0
EndSplineSet
Validated: 1
EndChar

StartChar: uparrow
Encoding: 8593 8593 273
Width: 600
GlyphClass: 2
Flags: W
LayerCount: 2
Fore
SplineSet
78 468 m 1
 295 742 l 1
 320 742 l 1
 521 466 l 1
 463 427 l 1
 340 593.819 l 1
 340 -39 l 1
 263 -39 l 1
 263 594.4 l 1
 128 427 l 1
 78 468 l 1
EndSplineSet
Validated: 1
EndChar

StartChar: downarrow
Encoding: 8595 8595 274
Width: 600
GlyphClass: 2
Flags: W
LayerCount: 2
Fore
SplineSet
521 235 m 1
 304 -39 l 1
 279 -39 l 1
 78 237 l 1
 136 276 l 1
 259 109.181 l 1
 259 742 l 1
 336 742 l 1
 336 108.6 l 1
 471 276 l 1
 521 235 l 1
EndSplineSet
Validated: 1
EndChar

StartChar: visiblespace
Encoding: 9251 9251 275
Width: 600
GlyphClass: 2
Flags: W
LayerCount: 2
Fore
SplineSet
66 81 m 1
 120 81 l 1
 120 -24 l 1
 478 -24 l 1
 478 81 l 1
 534 81 l 1
 534 -76 l 1
 66 -76 l 1
 66 81 l 1
EndSplineSet
Validated: 1
EndChar

StartChar: r.serif
Encoding: 65541 -1 276
Width: 600
GlyphClass: 2
Flags: W
LayerCount: 2
Fore
SplineSet
85 529 m 1
 243.998 529 l 1
 240.998 427 l 1
 273.806 493.49 340.05 541.496 416.277 541.496 c 0
 465.611 541.496 515.472 521.475 552.998 484 c 1
 513.998 404 l 1
 505.562 412.004 501.878 420.625 495.326 429.3 c 0
 481.445 447.681 452.812 469.759 411.235 469.759 c 0
 371.702 469.759 324.688 449.297 282.848 390.04 c 0
 241.434 331.385 241 295.589 241 267 c 2
 241 62 l 1
 352 62 l 1
 352 -1 l 1
 83 -1 l 1
 83 62 l 1
 158 62 l 1
 158 462 l 1
 85 462 l 1
 85 529 l 1
EndSplineSet
Validated: 1
EndChar

StartChar: gbreve
Encoding: 287 287 277
Width: 600
GlyphClass: 2
Flags: W
LayerCount: 2
Fore
SplineSet
179 749 m 1
 205.428 707.212 252.085 666.993 309.32 666.993 c 0
 357.638 666.993 407.467 696.856 447 748 c 1
 480 700 l 1
 440.784 646.838 379.515 606.983 309.498 606.983 c 0
 246.205 606.983 182.965 640.673 137 696 c 1
 179 749 l 1
155.954 364.263 m 0
 155.954 300.152 208.143 247.999 272.491 247.999 c 0
 336.833 247.999 389.059 300.157 389.059 364.307 c 0
 389.059 428.413 336.878 480.571 272.536 480.571 c 0
 208.19 480.571 155.954 428.416 155.954 364.263 c 0
277.609 546.548 m 0
 325.887 546.548 370.362 528.527 403 496 c 1
 443.962 530.332 496.755 547.196 550 543 c 1
 560 475 l 1
 549.913 476.74 539.695 477.615 529.459 477.615 c 0
 496.841 477.615 464.884 468.735 437 452 c 1
 454.566 425.561 464.002 394.366 464.002 362.278 c 0
 464.002 264.564 378.096 180.942 273.257 180.942 c 0
 250.3 180.942 227.525 185.021 206 193 c 1
 200.797 188.707 168.184 161.819 168.184 133.805 c 0
 168.184 117.119 179.985 104.638 200.262 99.0664 c 0
 211.549 95.9648 236.341 92.4043 275.863 92.4043 c 0
 335.853 92.4043 399.797 99.8477 455.06 77.4072 c 0
 511.29 54.5742 537.372 8.31543 537.372 -37.5117 c 0
 537.372 -108.516 473.087 -199.384 293.795 -199.384 c 0
 108.265 -199.384 54.4287 -131.698 54.4287 -73.9834 c 0
 54.4287 -31.9209 83.7041 7.00684 140.521 43.2783 c 1
 107.075 60.8545 98.0566 91.7842 98.0566 113.827 c 0
 98.0566 147.839 119.806 183.618 158 216 c 1
 109.489 247.565 79.7402 301.443 79.7402 359.36 c 0
 79.7402 462.8 172.219 546.548 277.609 546.548 c 0
196.923 28.2969 m 1
 166.505 11.5928 130.974 -16.208 130.974 -54.2598 c 0
 130.974 -72.7568 140.35 -101.884 183.142 -118.899 c 0
 223.159 -134.81 268.208 -136.199 292.38 -136.199 c 0
 327.814 -136.199 372.581 -133.958 411.372 -113.024 c 0
 447.725 -93.4053 460.904 -65.7031 460.904 -42.7607 c 0
 460.904 -19.4521 446.825 11.4414 397.736 18.8408 c 0
 367.367 23.418 324.656 20.4795 285.59 21.9268 c 0
 245.08 23.4268 216.987 25.7021 196.923 28.2969 c 1
EndSplineSet
Validated: 33
EndChar

StartChar: hungarumlaut.cap
Encoding: 65542 -1 278
Width: 600
GlyphClass: 2
Flags: W
LayerCount: 2
Fore
SplineSet
486 939 m 1
 540 864 l 1
 371 747 l 1
 334 795 l 1
 486 939 l 1
280 939 m 1
 334 864 l 1
 165 747 l 1
 128 795 l 1
 280 939 l 1
EndSplineSet
Validated: 1
EndChar

StartChar: uni2074
Encoding: 8308 8308 279
Width: 600
GlyphClass: 2
Flags: W
LayerCount: 2
Fore
SplineSet
360 743 m 1
 405 743 l 1
 405 459 l 1
 478 459 l 1
 478 404 l 1
 405 404 l 1
 405 292 l 1
 339 292 l 1
 339 405 l 1
 128 405 l 1
 128 446 l 1
 360 743 l 1
340 630 m 1
 204 459 l 1
 340 459 l 1
 340 630 l 1
EndSplineSet
Validated: 1
EndChar

StartChar: fraction
Encoding: 8260 8260 280
Width: 600
GlyphClass: 2
Flags: W
LayerCount: 2
Fore
SplineSet
98 -19 m 1
 461 770 l 1
 516 739 l 1
 152 -49 l 1
 98 -19 l 1
EndSplineSet
Validated: 1
EndChar

StartChar: Eng
Encoding: 330 330 281
Width: 600
GlyphClass: 2
Flags: W
LayerCount: 2
Fore
SplineSet
69 0 m 1
 68.9971 722 l 1
 153.997 722 l 1
 153.997 628 l 1
 195.061 692.14 265.786 735.013 341.734 735.013 c 0
 413.038 735.013 477.283 696.601 508.239 629.024 c 0
 529.377 582.882 529.997 536.67 529.997 491 c 1
 529.997 491 l 1
 529.997 203 l 2
 529.997 162.878 529.276 123.251 510.424 83.1621 c 0
 481.758 22.207 421.613 -12.2236 354.688 -12.2236 c 0
 319.212 -12.2236 284.071 -2.51367 252.999 16 c 1
 293.999 88 l 1
 300.651 84.1084 301.561 78.1426 306.405 74.6074 c 0
 308.776 72.8779 330.154 60.3711 357.435 60.3711 c 0
 390.135 60.3711 419.596 78.2871 435.091 111.214 c 0
 447.894 138.419 448 169.63 448 197 c 2
 448 489 l 2
 448 522.737 448.069 561.745 430.159 597.471 c 0
 409.568 638.545 370.917 662.054 327.377 662.054 c 0
 264.705 662.054 206.268 613.375 180.496 576.604 c 0
 158.142 544.705 154 516.425 154 478 c 2
 154 0 l 1
 69 0 l 1
EndSplineSet
Validated: 37
EndChar

StartChar: dcroat
Encoding: 273 273 282
Width: 600
GlyphClass: 2
Flags: W
LayerCount: 2
Fore
SplineSet
280.638 475.041 m 0
 219.729 475.041 134.874 433.439 134.874 282.731 c 0
 134.874 108.363 223.936 61.8096 283.87 61.8096 c 0
 339.081 61.8096 393.871 98.7188 414.26 162.215 c 0
 422.843 188.943 425.29 218.613 425.29 258.526 c 0
 425.29 317.62 422.953 347.168 416.391 371.787 c 0
 395.441 450.383 327.053 475.041 280.638 475.041 c 0
510.158 630 m 1
 511 49.002 l 2
 511.023 32.9775 511.825 16.2109 516 0.000976562 c 1
 433 0.000976562 l 1
 428.758 12.8486 428 26.4238 428 39.001 c 2
 428 85.001 l 1
 394.754 25.583 332.198 -11.7422 264.502 -11.7422 c 0
 162.172 -11.7422 53.999 73.6689 53.999 269.088 c 0
 53.999 471.408 175.851 543.089 276.757 543.089 c 0
 349.906 543.089 406.552 506.411 432.001 452 c 1
 432.001 630 l 1
 344.001 630 l 1
 344.001 692 l 1
 432.001 692 l 1
 432.001 771 l 1
 521.001 771 l 1
 521.43 763.115 517.034 757.358 514.646 753.665 c 0
 510.517 747.282 509.992 744.04 510.001 738 c 2
 510.068 692 l 1
 561.001 692 l 1
 561.001 630 l 1
 510.158 630 l 1
EndSplineSet
Validated: 33
EndChar

StartChar: Gbreve
Encoding: 286 286 283
Width: 600
GlyphClass: 2
Flags: W
LayerCount: 2
Fore
SplineSet
179 916 m 1
 205.428 874.212 252.085 833.993 309.32 833.993 c 0
 357.638 833.993 407.467 863.856 447 915 c 1
 480 867 l 1
 440.784 813.838 379.515 773.983 309.498 773.983 c 0
 246.205 773.983 182.965 807.673 137 863 c 1
 179 916 l 1
331.256 729.021 m 0
 420.211 729.021 499.721 682.82 541 608 c 1
 484 550 l 1
 474.934 555.815 472.124 564.988 468.568 572.778 c 0
 446.485 621.163 395.191 658.068 330.753 658.068 c 0
 269.931 658.068 205.563 624.733 168.312 554.634 c 0
 140.066 501.479 131.993 436.71 131.993 369.475 c 0
 131.993 293.213 140.467 191.911 200.744 123.216 c 0
 240.013 78.4619 291.335 59.9971 338.046 59.9971 c 0
 381.069 59.9971 427.485 75.1279 468 104 c 1
 468 276 l 1
 337 276 l 1
 337 346 l 1
 543 346 l 1
 543 64 l 1
 474.935 13.8818 397.763 -11.0488 330.884 -11.0488 c 0
 204.891 -11.0488 51.8867 79.1094 51.8867 352.371 c 0
 51.8867 669.165 235.235 729.021 331.256 729.021 c 0
EndSplineSet
Validated: 1
EndChar

StartChar: Idotaccent
Encoding: 304 304 284
Width: 600
GlyphClass: 2
Flags: W
LayerCount: 2
Fore
SplineSet
285.003 917 m 0
 318.171 917 345.019 890.28 345.019 857.493 c 0
 345.019 824.727 318.182 797.992 284.99 797.992 c 0
 251.818 797.992 224.981 824.716 224.981 857.486 c 0
 224.981 890.264 251.822 917 285.003 917 c 0
112 722 m 1
 470 722 l 1
 470 654 l 1
 327 654 l 1
 327 66 l 1
 477 66 l 1
 477 -1 l 1
 104 -1 l 1
 104 67 l 1
 246 67 l 1
 246 654 l 1
 112 654 l 1
 112 722 l 1
EndSplineSet
Validated: 1
EndChar

StartChar: racute
Encoding: 341 341 285
Width: 600
GlyphClass: 2
Flags: W
LayerCount: 2
Fore
SplineSet
348 810 m 1
 421 761 l 1
 304 605 l 1
 246 640 l 1
 348 810 l 1
125 529 m 1
 212 529 l 1
 209 427 l 1
 243.671 502.684 322.168 541.803 399.502 541.803 c 0
 458.959 541.803 507.697 518.114 541 484 c 1
 502 404 l 1
 493.106 412.505 489.308 421.668 482.352 430.554 c 0
 467.489 449.542 439.485 470.205 394.944 470.205 c 0
 357.514 470.205 294.325 457.033 246.222 380.981 c 0
 210.237 324.088 209 288.944 209 257 c 2
 209 -1 l 1
 125 -1 l 1
 125 529 l 1
EndSplineSet
Validated: 1
EndChar

StartChar: tcaron
Encoding: 357 357 286
Width: 600
GlyphClass: 2
Flags: W
LayerCount: 2
Fore
SplineSet
567.837 740.661 m 0
 567.837 692.397 533.88 631.947 469.315 566.393 c 1
 437.315 594.393 l 1
 459.3 614.612 474.876 637.17 483.931 652.046 c 0
 488.457 659.482 497.656 675.326 497.656 690.666 c 0
 497.656 709.751 483.996 718.286 475.942 723.643 c 0
 467.753 729.09 450.094 739.748 450.094 764.675 c 0
 450.094 792.673 472.943 817.537 503.453 817.537 c 0
 536.425 817.537 567.837 788.1 567.837 740.661 c 0
198 671 m 1
 289 686 l 1
 293.069 674.25 284.74 667.101 282.438 654.7 c 0
 276.99 625.35 269 530 269 530 c 1
 442 530 l 1
 442 461 l 1
 268 461 l 1
 261.31 392.178 257.955 323.066 257.955 253.871 c 0
 257.955 177.138 260.735 156.77 261.356 152.111 c 0
 269.829 88.5391 310.908 66.6738 350.424 66.6738 c 0
 383.027 66.6738 424.079 81.5986 469 115 c 1
 495 49 l 1
 450.23 16.2305 388.815 -10.1211 325.783 -10.1211 c 0
 271.714 -10.1211 230.342 10.8887 205.238 46.2598 c 0
 174.429 89.6689 174 142.866 174 190.358 c 0
 174 280.259 177.611 370.358 185 461 c 1
 61 461 l 1
 62 529 l 1
 188 529 l 1
 198 671 l 1
EndSplineSet
Validated: 33
EndChar

StartChar: zacute
Encoding: 378 378 287
Width: 600
GlyphClass: 2
Flags: W
LayerCount: 2
Fore
SplineSet
348 810 m 1
 421 761 l 1
 304 605 l 1
 246 640 l 1
 348 810 l 1
92 530 m 1
 504 530 l 1
 504 473 l 1
 181 71 l 1
 496 71 l 2
 512.142 71 516.579 80.1396 531 78 c 1
 531 -1 l 1
 68 -1 l 1
 68 56 l 1
 396 457 l 1
 92 457 l 1
 92 530 l 1
EndSplineSet
Validated: 33
EndChar

StartChar: bullet
Encoding: 8226 8226 288
Width: 600
GlyphClass: 2
Flags: W
LayerCount: 2
Fore
SplineSet
405.001 343.496 m 0
 405.001 290.47 361.103 246.968 306.461 246.968 c 0
 251.887 246.968 207.967 290.437 207.967 343.507 c 0
 207.967 396.512 251.854 440.001 306.474 440.001 c 0
 361.085 440.001 405.001 396.528 405.001 343.496 c 0
EndSplineSet
Validated: 1
EndChar

